<?xml version="1.0" encoding="UTF-8" standalone="no"?>
<svg
   xmlns:dc="http://purl.org/dc/elements/1.1/"
   xmlns:cc="http://creativecommons.org/ns#"
   xmlns:rdf="http://www.w3.org/1999/02/22-rdf-syntax-ns#"
   xmlns:svg="http://www.w3.org/2000/svg"
   xmlns="http://www.w3.org/2000/svg"
   xmlns:sodipodi="http://sodipodi.sourceforge.net/DTD/sodipodi-0.dtd"
   xmlns:inkscape="http://www.inkscape.org/namespaces/inkscape"
   width="720pt"
   height="591pt"
   viewBox="0 0 720 591"
   version="1.1"
   id="svg2"
   inkscape:version="0.91 r13725"
   sodipodi:docname="bg_eur_4c.svg">
  <metadata
     id="metadata135">
    <rdf:RDF>
      <cc:Work
         rdf:about="">
        <dc:format>image/svg+xml</dc:format>
        <dc:type
           rdf:resource="http://purl.org/dc/dcmitype/StillImage" />
        <dc:title></dc:title>
      </cc:Work>
    </rdf:RDF>
  </metadata>
  <defs
     id="defs133" />
  <sodipodi:namedview
     pagecolor="#ffffff"
     bordercolor="#666666"
     borderopacity="1"
     objecttolerance="10"
     gridtolerance="10"
     guidetolerance="10"
     inkscape:pageopacity="0"
     inkscape:pageshadow="2"
     inkscape:window-width="1846"
     inkscape:window-height="1053"
     id="namedview131"
     showgrid="false"
     inkscape:zoom="1.28"
     inkscape:cx="331.13175"
     inkscape:cy="600.64616"
     inkscape:window-x="65"
     inkscape:window-y="-9"
     inkscape:window-maximized="1"
     inkscape:current-layer="svg2" />
  <g
     id="#fbcc00ff"
     style="fill:#52b3c7;fill-opacity:1">
    <path
       d="m 565.92,0 68.49,0 c 0.52,2.5 3.02,1.94 4.94,2.1 0.58,-0.53 1.76,-1.58 2.35,-2.1 L 720,0 c 0,0 0,183.20627 0,250.55 -1.98,0.65 -3.9,1.43 -5.77,2.33 -1.58,-1.09 -2.73,-2.63 -3.8,-4.19 -4.1,1.07 -7.96,3.28 -9.75,7.29 -1.03,0.02 -2.06,0.03 -3.07,0.05 -3.08,2.34 -7.3,4.53 -7.5,8.92 0.13,6.87 -8.57,3.73 -12.37,1.98 -0.44,0.35 -1.32,1.04 -1.76,1.39 0.02,0.66 0.06,1.98 0.08,2.63 -3.56,-1.86 -7.93,-2.05 -10.85,-5.04 -4.98,-0.7 -9.24,5.65 -13.77,1.31 -1.35,0.98 -2.71,1.95 -4.04,2.94 -0.53,1.36 -1.1,2.71 -1.73,4.03 -5.02,-3.27 -10.94,1.67 -9.82,7.26 -1.97,2.97 -4.3,5.68 -6.86,8.17 2.68,4.1 -1.8,7.93 -5.13,9.76 2.22,3.35 5.58,6.02 6.52,10.11 -0.62,0.47 -1.86,1.42 -2.48,1.9 -2.07,-1.92 -4.08,-3.93 -5.47,-6.4 -0.38,0.35 -1.15,1.06 -1.53,1.42 -0.87,-0.94 -1.74,-1.87 -2.6,-2.8 -5.17,0.74 -3.14,6.52 -2.14,9.95 -0.59,0.47 -1.77,1.43 -2.36,1.91 0.69,3.08 1.26,6.2 1.3,9.37 1.37,0.83 2.76,1.65 4.15,2.48 -0.78,0.71 -1.55,1.42 -2.31,2.13 -0.13,3.57 0.24,7.14 1.27,10.57 1.81,-0.01 3.62,-0.02 5.44,-0.03 0.43,0.5 1.27,1.49 1.69,1.99 -0.35,0.39 -1.07,1.16 -1.42,1.55 2.22,1.18 4.24,3.02 6.77,3.47 2.13,-1.88 4.76,-3.04 7.62,-3.13 3.7,2.8 7.04,6.05 8.93,10.38 -1.46,0.95 -2.89,1.95 -4.31,2.98 0.03,1.56 0.05,3.12 0.08,4.69 4.16,-0.85 8.32,0.76 7.13,5.69 -0.61,0.49 -1.85,1.47 -2.46,1.96 -1.21,-1.86 -2.28,-3.8 -3.26,-5.77 -2.49,0.61 -5.13,1.17 -6.86,3.22 3.29,1.31 4.89,4.97 3.88,8.32 -0.67,6.7 -0.54,13.53 -2.4,20.08 0.77,0.86 1.55,1.71 2.35,2.58 0.99,0.01 2,0.02 3.02,0.04 4.11,2.28 5.92,6.63 9.3,9.59 1.79,8.91 10.98,13.05 15.59,20.35 0.67,0.02 2.03,0.06 2.7,0.07 0,1.15 0,2.31 0.01,3.47 -0.47,0.47 -1.39,1.41 -1.85,1.88 -0.14,2.01 -0.47,4.01 -1.06,5.95 -0.43,-0.35 -1.27,-1.05 -1.69,-1.4 -0.86,0.89 -1.71,1.79 -2.56,2.68 -1.08,-1.53 -2.12,-3.09 -3.16,-4.64 -1.08,0 -2.16,0 -3.23,0.01 l -1.88,-1.88 c -4.1,-0.18 -8.1,-1.3 -12.22,-1.19 -0.67,-0.75 -1.34,-1.49 -1.99,-2.23 -0.28,-3.21 -2.51,-4.5 -5.36,-3.04 -5.58,-1.88 -11.61,-0.01 -15.07,4.73 0.03,-0.54 0.1,-1.62 0.13,-2.16 -4.88,1.38 -9.77,-1.42 -14.41,-2.7 -4.66,0.31 -9.37,0.92 -13.49,3.29 -6.7,-1.55 -14.03,-2.85 -20.18,1.18 -9.01,-4.53 -17.94,-9.42 -27.94,-11.78 -4.38,2.54 -6.55,-3.29 -10.02,-4.89 -0.01,-0.59 -0.04,-1.76 -0.05,-2.35 1.66,0.03 3.32,0.06 5,0.1 1.86,-4.8 2.98,-9.98 6.44,-13.98 0.82,0.42 1.66,0.84 2.5,1.26 0.05,-0.77 0.14,-2.33 0.18,-3.1 -2.75,-2.39 -6.07,-4.01 -9.64,-4.7 2.47,-1.09 4.94,-2.19 7.53,-2.97 0.01,-0.55 0.03,-1.63 0.05,-2.17 1.47,-1.45 2.93,-2.91 4.38,-4.38 0.64,-0.03 1.93,-0.08 2.57,-0.11 0.01,-1.27 0.03,-2.55 0.06,-3.81 -1.73,-0.46 -3.46,-0.91 -5.2,-1.29 -1.9,1.82 -4.25,3.02 -6.82,3.56 -0.01,-1.26 -0.01,-2.51 0,-3.76 1.91,-1.9 3.38,-4.17 4.48,-6.62 2.72,-0.4 6.43,1.15 8.33,-1.37 0.53,-5.01 0.93,-11.49 -4.05,-14.48 1.07,-0.53 2.14,-1.07 3.23,-1.59 -0.01,-0.62 -0.01,-1.87 -0.02,-2.5 -0.5,-0.01 -1.5,-0.05 -2,-0.07 1.55,-2.51 3.13,-5.53 0.09,-7.69 -0.04,-1.04 -0.08,-2.08 -0.11,-3.12 -2.35,-0.28 -4.69,-0.62 -7.01,-1.08 l -1.48,0.36 c -5,0.13 -10.2,-2.36 -14.98,-0.4 -1.54,-1.57 -2.99,-3.23 -4.19,-5.07 -1.22,0.01 -2.43,0.03 -3.63,0.06 -4.03,4.9 -9.7,2.83 -14.87,3.8 -0.87,-0.39 -1.73,-0.78 -2.59,-1.16 0.06,-4.16 -2.86,-7.2 -5.78,-9.73 -2.8,1.52 -5.91,1.02 -8.71,-0.18 0.46,-2.46 1.02,-4.89 1.46,-7.35 -2.92,-1.41 -4.77,-4 -6.55,-6.59 -5.56,1.38 -11.43,1.62 -16.66,4.15 -0.06,0.91 -0.16,2.74 -0.22,3.65 -2.86,-1.98 -3.09,-5.81 -5.28,-8.33 -0.92,-2.14 -2,-4.21 -3.4,-6.07 0.33,-0.3 0.97,-0.89 1.29,-1.19 4.27,0.59 8.62,-0.45 10.64,-4.61 -0.01,-1.47 -0.02,-2.94 -0.02,-4.41 -0.74,-0.01 -2.23,-0.05 -2.97,-0.07 -0.02,-0.8 -0.07,-2.4 -0.09,-3.2 -2.02,0.23 -4.02,0.51 -5.99,0.96 -0.77,-2.34 -1.66,-4.98 -4.58,-5.06 -2.08,-2.9 -3.14,-6.78 -6.56,-8.45 0.31,-1.46 0.65,-2.9 1.02,-4.34 -1.23,-2.29 -1.96,-4.79 -2.01,-7.4 -1.95,-1.03 -3.84,-2.16 -5.57,-3.5 -2.96,-0.28 -5.79,0.45 -8.29,2.03 0.02,-0.72 0.04,-2.14 0.05,-2.85 -3.65,-0.17 -7.24,-0.89 -10.86,-1.35 0.2,-3.09 -0.92,-5.91 -2.66,-8.39 -0.56,-1.24 -1.33,-2.34 -2.44,-3.14 -0.04,-1.93 -0.04,-3.85 -0.02,-5.77 -1.23,-1.4 -2.46,-2.8 -3.83,-4.06 l 1.17,-2.58 c 0.41,0.36 1.22,1.08 1.63,1.44 0.57,-0.44 1.72,-1.32 2.29,-1.76 -0.43,-1.89 -0.92,-3.77 -1.43,-5.64 -1.22,0.06 -2.44,0.13 -3.66,0.2 1.21,-3.66 1.19,-7.68 -0.08,-11.32 1.35,-2.9 5.72,-9.16 0.54,-10.11 1.34,-0.8 2.65,-1.64 3.93,-2.53 0.58,-0.04 1.74,-0.14 2.32,-0.18 0.53,-1.07 1.07,-2.14 1.6,-3.21 1.9,0.27 3.8,0.59 5.66,1.07 0.95,-0.4 1.92,-0.8 2.88,-1.2 -0.03,-0.47 -0.1,-1.41 -0.13,-1.88 -1.3,-1.18 -2.39,-2.54 -3.43,-3.94 -1.95,0.21 -3.88,0.52 -5.74,1.1 -1.27,-0.68 -2.53,-1.36 -3.77,-2.06 0,-1.51 0.01,-3.03 0.02,-4.54 l -1.96,-1.6 c -1.18,0.94 -2.36,1.87 -3.57,2.76 5.89,-11.43 17.04,-20.03 20.2,-32.8 1.42,-4.04 -0.94,-7.92 -3.56,-10.81 -2.38,-1.58 -5.5,-2.66 -5.69,-6 0.6,-2.68 0.64,-5.44 0.59,-8.17 -4.21,-1.58 -3.4,-6.99 -6.76,-9.41 -2.16,-5.55 0.57,-11.28 -1.47,-16.79 -2.43,-2.52 -4.01,-5.66 -5.49,-8.78 -4.17,-6.02 5.18,-13.09 -0.03,-18.87 -2.31,-5.01 -10.26,-4.56 -9.52,-11.34 1.51,-0.97 3.01,-2.04 3.88,-3.67 -0.8,0.35 -2.4,1.04 -3.2,1.39 0.77,-1.3 1.56,-2.57 2.39,-3.83 0.07,-0.47 0.2,-1.41 0.26,-1.87 1.32,-1.01 2.6,-2.07 3.92,-3.08 0.01,-0.61 0.02,-1.83 0.02,-2.43 0.72,0.01 2.16,0.03 2.87,0.04 0.51,-1.06 1,-2.12 1.5,-3.19 0.41,0.37 1.22,1.11 1.62,1.48 0.35,-0.34 1.05,-1.01 1.4,-1.34 3.03,3.66 9.49,6.16 13.91,3.52 2.93,0.64 5.99,0.74 8.83,-0.36 9.44,3.07 17.34,9.64 27.07,11.82 0.38,-0.26 1.16,-0.8 1.54,-1.07 0.99,1.01 1.99,2.02 2.96,3.05 0.96,0.01 1.92,0.02 2.9,0.04 0.68,0.77 1.36,1.54 2.05,2.32 0.56,2.11 1.28,4.31 3.34,5.43 0.53,6.9 -2,14.87 -8.58,18.12 -2.16,0.13 -4.31,0.35 -6.42,0.78 -3.62,-0.92 -7.35,-0.53 -11.03,-0.75 -3.7,-0.37 -7.36,-2.87 -11.04,-1.12 -0.01,-0.51 -0.01,-1.54 -0.02,-2.06 -1.27,0.34 -2.53,0.7 -3.78,1.08 -0.36,-0.48 -1.1,-1.42 -1.47,-1.9 -0.41,0.36 -1.25,1.08 -1.67,1.44 -1.82,-1.14 -3.61,-2.39 -4.69,-4.3 -1.29,-0.03 -2.58,-0.05 -3.85,-0.07 -1.29,1.34 -2.58,2.68 -3.86,4.03 1.25,0 2.51,0.01 3.77,0.01 1.96,3.52 5.06,6.29 8.96,7.42 2.7,3.23 7.87,2.83 9.76,6.9 -0.32,0.41 -0.97,1.23 -1.3,1.64 0.56,0.03 1.67,0.08 2.23,0.11 -0.01,1.15 -0.01,2.31 -0.01,3.46 -0.79,0.79 -1.58,1.58 -2.35,2.37 2.68,3.6 8.16,7.76 5.29,12.69 2.96,0.8 5.86,3.03 9.02,1.74 1.59,1.06 3.11,2.24 4.59,3.46 3.31,0.51 6.6,1.14 9.95,1.37 0.54,-1.07 1.09,-2.14 1.65,-3.2 0.82,-0.01 2.47,-0.05 3.29,-0.06 -1.97,-3.11 -3.7,-6.35 -5.39,-9.61 1.28,-1.38 2.54,-2.76 3.92,-4.04 4.84,1.26 9.91,0.73 14.85,0.69 1.73,0.13 1.92,-2.19 2.74,-3.25 l -2.28,1.32 c -1.28,-1.49 -2.57,-2.96 -3.79,-4.49 -1.06,-0.96 -2.08,-1.94 -3.09,-2.94 -1.95,-1.52 -3.44,-3.48 -4.73,-5.56 1.04,-1.55 2.08,-3.1 3.2,-4.59 0.04,-0.57 0.11,-1.71 0.15,-2.28 1.26,-0.91 2.54,-1.81 3.85,-2.65 1.12,-2.65 2.07,-5.4 2.22,-8.3 1.84,0.85 3.82,0.9 5.7,0.12 0.93,1.29 1.89,2.56 2.81,3.87 0.71,-0.38 1.43,-0.77 2.15,-1.15 0.42,0.49 1.25,1.48 1.66,1.98 0.71,-0.01 2.14,-0.03 2.85,-0.04 -0.33,-2.84 -1.17,-5.58 -2.29,-8.2 0.28,-0.41 0.83,-1.21 1.11,-1.62 -1.35,-3.45 -2.76,-6.87 -4.18,-10.28 -1.26,0.06 -2.51,0.13 -3.76,0.2 -1.89,-6.09 -1.83,-13.1 -6.28,-18.11 2.69,-1.15 5.5,-2.07 8.45,-2.09 1.73,1.7 3.68,3.14 5.7,4.48 l 0,2.18 c -1.28,1.23 -2.54,2.47 -3.8,3.72 -0.46,1.83 -0.98,3.63 -1.47,5.45 2.93,2.04 6.12,3.71 8.82,6.06 2.49,0.3 4.95,0.83 7.4,1.39 0.01,-0.75 0.03,-2.24 0.04,-2.99 1.4,-0.83 2.81,-1.65 4.22,-2.48 -0.07,-2.55 -0.65,-5.02 -1.97,-7.22 0.95,-0.73 1.73,-1.62 2.34,-2.66 l -3.16,1.44 c 0.89,-2.29 2.18,-4.38 4.39,-5.6 -0.16,-3.85 1.65,-7.31 3.99,-10.23 0.08,-0.5 0.24,-1.5 0.33,-1.99 1.92,-1.89 3.64,-3.98 5.12,-6.23 3.5,0.5 6.01,-2.05 3.95,-5.29 0.45,0.01 1.34,0.03 1.79,0.04 0,-1.65 0,-3.31 0.01,-4.96 l 1.95,0 c 0.02,1.08 0.06,2.17 0.1,3.25 1.29,1.14 2.37,2.49 3.42,3.85 2.26,-0.52 4.52,-1.03 6.82,-1.42 -0.39,-1.68 -0.8,-3.34 -1.26,-4.99 1.81,-4.11 5.93,-5.52 9.83,-6.97 -0.03,-3.83 1.32,-7.47 3.16,-10.78 0.98,0.5 1.97,0.99 2.98,1.47 -0.01,1.04 -0.02,2.08 -0.01,3.12 0.81,0.82 1.63,1.65 2.45,2.47 l 4.54,0 c -0.24,-5.6 0.82,-11.39 -1,-16.81 C 568.22,0.9 566.68,0.3 565.92,0 m -92.65,94.13 c -3.71,2.39 3.18,2.09 0,0 m -40.81,81.79 c -3.49,3 -6.51,6.89 -5.54,11.81 1.36,0.84 2.75,1.67 4.12,2.52 -0.01,0.58 -0.03,1.73 -0.05,2.31 1.29,1.23 2.56,2.49 3.81,3.78 0.69,2.92 1.83,5.72 2.46,8.66 l 4.73,0 c 0,-1.19 0,-2.37 0.01,-3.55 0.82,-0.81 1.63,-1.63 2.45,-2.45 l 5.5,0 c -0.66,-4.35 3.4,-11.02 -1.95,-13.39 l 0,-2.18 c -0.81,-0.78 -1.62,-1.56 -2.42,-2.33 -5.57,0.84 -7.17,-6.93 -13.12,-5.18 m -10.19,73.21 c -3.71,2.4 3.17,2.1 0,0 z"
       id="path5"
       style="opacity:1;fill:#52b3c7;fill-opacity:1"
       inkscape:connector-curvature="0"
       sodipodi:nodetypes="cccccccccccccccccccccccccccccccccccccccccccccccccccccccccccccccccccccccccccccccccccccccccccccccccccccccccccccccccccccccccccccccccccccccccccccccccccccccccccccccccccccccccccccccccccccccccccccccccccccccccccccccccccccccccccccccccccccccccccccccccccccccccccccccccccccccccc" />
    <path
       fill="#fbcc00"
       opacity="1.00"
       d=" M 429.02 182.55 C 430.38 180.64 431.89 178.84 433.99 177.70 C 435.24 178.50 436.56 179.29 437.45 180.53 C 438.49 181.33 439.53 182.13 440.58 182.95 C 441.56 182.97 442.54 183.00 443.53 183.05 C 445.83 185.71 447.58 188.72 449.01 191.95 C 448.09 193.49 447.92 195.26 447.85 197.01 C 446.33 197.00 444.81 196.98 443.31 196.95 C 441.58 198.82 440.30 201.04 439.36 203.40 C 439.09 202.66 438.53 201.19 438.26 200.45 C 437.05 197.27 436.91 192.65 433.01 191.55 C 433.01 191.04 432.99 190.03 432.99 189.52 C 432.04 187.82 431.02 186.07 429.00 185.54 C 429.00 184.54 429.01 183.55 429.02 182.55 Z"
       id="path7"
       style="fill:#52b3c7;fill-opacity:1" />
  </g>
  <g
     id="#719a9bff"
     style="fill:#52b3c7;fill-opacity:1">
    <path
       fill="#719a9b"
       opacity="1.00"
       d=" M 399.00 40.60 C 399.81 41.37 400.63 42.14 401.44 42.91 C 405.09 42.52 413.57 45.14 407.66 49.04 C 404.41 49.26 399.24 47.47 398.64 52.15 C 398.28 51.83 397.58 51.20 397.22 50.89 C 393.20 52.64 388.79 53.53 385.15 56.11 C 382.64 62.18 386.37 70.18 380.06 74.51 C 378.83 73.32 377.62 72.10 376.43 70.88 C 375.47 71.97 374.50 73.05 373.55 74.15 C 367.82 74.67 365.55 68.78 362.69 64.99 C 361.55 64.98 360.41 64.98 359.27 64.97 C 358.44 66.25 357.64 67.55 356.82 68.83 C 351.16 68.40 353.90 75.10 351.72 78.25 C 347.40 76.67 340.10 75.67 341.96 82.67 C 341.46 83.08 340.48 83.92 339.98 84.33 C 339.60 83.99 338.84 83.32 338.45 82.98 C 336.48 84.24 334.67 85.73 332.97 87.34 C 332.99 85.15 333.00 82.96 333.02 80.78 C 334.92 81.21 336.80 81.73 338.70 82.20 C 339.48 80.27 340.64 78.11 339.14 76.19 C 340.18 75.29 341.21 74.39 342.25 73.49 C 341.88 72.37 341.51 71.25 341.13 70.14 C 342.47 69.29 344.19 68.67 344.30 66.82 C 344.72 67.20 345.57 67.94 345.99 68.31 C 346.48 67.91 347.46 67.11 347.95 66.72 C 347.80 67.90 347.48 70.26 347.33 71.44 C 348.98 69.98 350.72 68.57 352.41 67.13 C 351.98 66.54 351.11 65.35 350.68 64.76 C 352.35 64.78 353.30 65.65 353.53 67.38 C 355.52 66.26 356.56 64.15 357.94 62.43 C 357.97 61.28 358.00 60.12 358.04 58.97 C 359.16 59.00 360.28 59.03 361.40 59.07 C 362.50 59.96 363.66 60.79 364.93 61.43 C 365.01 58.87 365.00 56.32 365.01 53.76 C 366.58 54.74 368.14 55.76 369.59 56.93 C 370.17 56.96 371.32 57.01 371.90 57.04 C 371.67 54.11 372.39 51.32 374.15 48.96 C 374.80 48.98 376.11 49.00 376.77 49.01 C 377.39 46.70 377.94 44.35 378.10 41.95 C 379.08 42.43 380.06 42.91 381.06 43.38 C 379.84 47.28 378.96 51.33 378.95 55.43 C 380.45 54.83 381.73 53.83 382.91 52.74 C 383.06 49.75 383.85 45.89 386.89 44.60 C 386.96 46.20 387.03 47.80 387.11 49.40 C 390.24 48.51 391.46 45.39 392.46 42.62 C 393.07 44.10 393.71 45.55 394.37 47.00 C 395.91 47.00 397.45 47.00 399.00 47.00 C 398.99 44.86 398.99 42.73 399.00 40.60 Z"
       id="path10"
       style="fill:#52b3c7;fill-opacity:1" />
    <path
       fill="#719a9b"
       opacity="1.00"
       d=" M 327.88 86.72 C 329.26 87.25 330.64 87.79 332.03 88.29 C 332.01 89.36 331.99 90.44 331.98 91.52 C 328.27 93.50 329.18 97.05 330.14 100.40 C 327.26 103.50 324.19 106.74 322.88 110.86 C 322.65 113.66 318.39 112.37 318.00 115.10 C 316.87 119.46 316.18 123.98 315.89 128.48 C 314.13 130.41 312.59 132.53 310.98 134.58 C 310.59 137.36 311.66 139.87 313.19 142.13 C 312.81 142.60 312.04 143.54 311.66 144.01 C 309.26 144.00 306.85 144.00 304.45 144.00 C 302.02 146.73 298.79 148.90 297.26 152.32 C 296.84 161.94 294.61 170.92 295.00 180.59 C 296.00 181.53 296.99 182.47 298.00 183.41 C 298.01 184.87 298.02 186.34 298.04 187.80 C 295.86 189.01 293.68 190.21 291.56 191.51 C 296.98 193.08 293.91 199.74 293.95 203.75 C 290.81 205.83 288.00 208.31 286.04 211.58 C 286.00 214.19 285.99 216.80 286.00 219.41 C 284.31 217.79 282.64 216.14 280.92 214.55 C 280.82 211.31 281.72 208.19 282.19 205.02 C 281.46 205.01 280.01 204.97 279.28 204.96 C 278.03 206.83 276.84 208.74 275.70 210.68 L 272.55 209.68 C 274.31 210.95 275.87 212.53 276.93 214.44 C 275.97 215.61 275.12 216.86 274.41 218.19 C 273.58 217.74 272.76 217.29 271.94 216.84 C 266.86 220.08 262.61 224.49 258.00 228.37 C 257.65 228.04 256.93 227.38 256.58 227.05 C 255.00 228.53 253.10 229.56 251.10 230.34 C 251.05 229.43 250.95 227.62 250.90 226.71 C 249.55 227.04 248.22 227.46 246.93 227.99 C 246.95 226.56 246.97 225.13 246.99 223.70 C 246.04 224.11 245.09 224.53 244.16 224.96 C 242.18 222.41 240.41 219.70 238.73 216.95 C 239.13 216.46 239.93 215.50 240.33 215.02 C 240.87 215.00 241.95 214.96 242.49 214.94 C 245.26 212.26 246.67 208.70 247.29 204.94 C 245.07 206.27 242.47 206.03 240.00 206.05 L 240.00 205.18 C 243.04 204.92 247.03 204.24 248.40 201.13 C 247.43 201.07 245.49 200.96 244.51 200.90 C 245.78 199.66 247.13 198.51 248.64 197.57 C 249.16 196.70 249.69 195.83 250.23 194.97 C 250.82 194.98 252.01 194.99 252.60 195.00 C 252.71 192.80 254.70 192.90 256.38 192.73 C 255.76 190.63 253.68 189.82 252.00 188.76 C 248.67 189.99 247.52 193.71 244.33 195.11 C 244.06 193.58 242.78 192.79 241.63 191.96 C 243.08 191.97 244.54 191.98 246.00 191.99 C 246.00 190.46 246.00 188.93 246.00 187.41 C 244.19 187.24 243.83 185.85 243.77 184.30 C 247.01 182.09 250.49 184.23 253.99 184.12 C 254.00 185.50 254.01 186.88 254.04 188.26 C 255.73 187.88 257.39 187.35 259.03 186.77 C 259.03 186.08 259.02 184.69 259.02 184.00 C 260.34 183.99 261.67 183.99 263.00 183.99 C 263.00 183.26 263.01 181.80 263.01 181.07 C 262.44 181.05 261.31 181.03 260.74 181.02 C 261.80 179.78 262.76 178.46 263.43 176.97 C 260.48 176.31 257.34 177.50 257.76 181.00 C 257.07 181.00 255.70 181.00 255.01 181.00 C 255.01 179.54 255.00 178.07 255.00 176.61 C 253.68 177.85 252.37 179.10 251.05 180.34 C 250.71 180.08 250.03 179.55 249.70 179.29 C 248.30 179.71 246.86 179.97 245.43 180.20 C 244.99 179.23 244.55 178.27 244.10 177.32 C 245.21 176.23 246.31 175.14 247.40 174.04 C 247.03 173.63 246.29 172.81 245.92 172.39 C 246.24 172.10 246.88 171.51 247.20 171.21 C 249.71 172.35 252.52 171.99 255.19 172.00 C 254.70 169.84 254.10 167.70 253.88 165.49 C 254.28 166.11 255.07 167.35 255.46 167.97 C 256.05 167.98 257.22 168.00 257.81 168.01 C 257.93 165.85 258.49 163.77 259.27 161.77 C 261.53 162.13 263.75 162.67 265.97 163.18 C 265.99 161.89 266.01 160.59 266.05 159.29 C 264.87 158.51 263.68 157.77 262.49 157.02 C 263.85 157.00 265.22 156.99 266.58 156.99 C 267.10 155.97 267.64 154.96 268.19 153.95 C 269.62 153.97 271.05 153.98 272.49 153.99 C 273.70 152.72 275.02 151.57 276.48 150.62 C 276.48 153.43 278.92 153.07 280.94 153.09 C 280.97 151.52 281.02 149.96 281.10 148.39 C 281.95 149.95 282.72 151.54 283.48 153.15 C 285.61 152.53 287.78 152.05 289.99 151.82 C 289.99 151.18 289.98 149.91 289.98 149.27 C 292.37 148.27 295.84 148.17 296.39 145.03 C 295.12 145.03 293.86 145.03 292.61 145.05 C 290.60 146.82 288.18 147.98 285.82 149.17 C 286.02 146.84 286.56 144.57 287.17 142.32 C 288.93 140.58 290.68 138.81 292.42 137.05 C 295.17 137.46 298.52 136.88 298.21 133.35 C 300.49 133.18 299.97 131.71 299.18 130.24 C 299.94 129.49 300.70 128.75 301.46 128.00 C 302.57 128.00 303.69 128.00 304.81 128.00 C 304.88 126.43 304.95 124.78 306.90 124.61 C 306.89 122.46 307.13 120.32 308.18 118.41 C 309.22 117.76 310.24 117.09 311.25 116.40 C 310.54 115.03 310.04 113.57 309.71 112.07 C 310.49 112.05 312.04 112.00 312.82 111.97 C 313.19 109.42 313.71 106.91 314.18 104.38 C 316.07 104.18 316.09 102.53 316.19 101.01 C 316.77 101.00 317.95 100.98 318.54 100.98 C 318.95 99.87 319.67 99.07 320.73 98.56 C 321.25 96.93 321.79 95.29 322.31 93.66 C 323.66 94.10 324.99 94.59 326.30 95.13 C 327.26 94.19 328.21 93.24 329.16 92.29 C 328.09 90.61 327.91 88.66 327.88 86.72 Z"
       id="path12"
       style="fill:#52b3c7;fill-opacity:1" />
  </g>
  <g
     id="#4d9a9bff"
     style="fill:#ee5f59;fill-opacity:1">
    <path
       fill="#4d9a9b"
       opacity="1.00"
       d=" M 387.78 56.71 C 390.44 55.49 393.66 55.46 396.25 53.84 C 396.97 54.54 397.69 55.24 398.42 55.94 C 398.96 55.97 400.05 56.03 400.59 56.07 C 401.43 56.87 402.27 57.68 403.13 58.47 C 402.81 65.53 399.07 72.79 402.30 79.66 C 403.06 81.53 405.16 80.86 406.73 81.05 C 408.19 82.86 409.53 84.75 410.99 86.56 C 411.78 93.11 406.79 99.25 410.18 105.70 C 411.09 106.59 412.00 107.48 412.92 108.37 C 412.98 108.89 413.09 109.93 413.14 110.45 C 414.76 112.38 415.89 114.64 417.00 116.89 C 415.46 120.07 415.45 124.04 417.05 127.20 C 416.70 127.67 416.01 128.61 415.66 129.08 C 417.02 130.49 418.39 131.89 419.74 133.32 C 420.24 135.30 420.59 137.65 422.79 138.44 C 425.35 141.92 422.34 145.85 422.91 149.69 C 427.00 151.77 429.77 155.53 433.15 158.51 C 432.69 161.93 431.70 165.24 430.77 168.56 C 424.34 178.25 416.92 187.23 410.55 196.93 C 406.14 195.72 402.04 200.40 398.00 198.04 C 397.54 199.09 397.09 200.14 396.66 201.21 C 396.36 200.88 395.76 200.23 395.46 199.91 C 394.17 201.28 392.88 202.63 391.59 204.00 C 390.53 204.00 389.46 204.00 388.41 204.00 C 387.95 204.50 387.04 205.50 386.59 206.01 C 385.21 206.00 383.84 206.00 382.47 206.00 C 381.65 206.80 380.83 207.61 380.01 208.41 C 380.01 207.71 379.99 206.29 379.99 205.59 C 379.06 206.48 378.16 207.38 377.24 208.28 C 376.53 206.33 375.97 204.33 375.86 202.25 C 371.50 200.94 365.33 200.12 364.01 194.94 C 364.00 190.62 367.15 186.29 364.91 182.12 C 362.68 177.74 363.41 172.61 361.16 168.25 C 362.98 165.34 365.58 163.03 367.29 160.03 C 367.85 160.00 368.96 159.95 369.52 159.92 C 370.83 158.58 372.26 157.35 373.94 156.50 C 373.97 155.99 374.04 154.98 374.07 154.48 C 375.19 153.09 376.28 151.64 377.66 150.49 C 378.69 146.67 381.13 143.48 383.76 140.61 C 384.44 137.42 385.24 132.81 389.61 133.91 C 390.13 132.88 390.66 131.85 391.21 130.83 C 390.50 130.06 389.80 129.30 389.10 128.54 C 389.04 126.10 388.54 123.70 387.83 121.37 C 386.24 120.60 384.40 120.01 383.52 118.35 C 377.80 116.97 377.41 110.59 379.06 105.96 C 375.82 99.38 374.86 91.94 374.96 84.58 C 372.58 81.13 370.01 77.34 365.51 76.67 C 363.57 74.56 361.21 72.88 359.21 70.83 C 359.63 69.43 359.97 68.02 360.32 66.60 C 362.57 69.12 364.38 71.98 366.17 74.83 C 369.71 76.09 373.63 76.68 376.74 74.06 C 377.15 74.55 377.98 75.53 378.39 76.02 C 378.92 76.01 379.98 76.00 380.51 75.99 C 382.72 74.20 384.66 72.10 386.88 70.31 C 385.97 65.87 385.09 60.76 387.78 56.71 M 366.26 166.14 C 362.58 168.51 369.48 168.23 366.26 166.14 Z"
       id="path18"
       style="fill:#ee5f59;fill-opacity:1" />
  </g>
  <g
     id="#f49b5eff"
     style="fill:#93eeff;fill-opacity:1">
    <path
       fill="#f49b5e"
       opacity="1.00"
       d=" M 355.05 70.60 C 357.87 72.00 359.10 75.46 362.26 76.42 C 361.70 77.39 360.58 79.31 360.02 80.27 C 365.30 75.89 370.32 82.51 372.97 86.59 C 373.36 93.22 372.74 100.68 377.02 106.17 C 376.19 108.92 375.16 112.07 376.84 114.73 C 376.08 115.48 375.32 116.23 374.57 116.99 C 375.43 117.00 377.15 117.02 378.01 117.03 L 378.00 118.05 C 375.73 117.97 373.30 118.32 371.24 117.16 C 370.94 117.47 370.34 118.09 370.04 118.40 C 370.01 117.67 369.95 116.22 369.92 115.50 C 367.92 117.79 366.00 120.17 363.53 121.97 C 363.92 122.37 364.71 123.16 365.10 123.55 C 363.77 124.77 362.46 126.00 361.15 127.23 C 362.10 128.86 362.02 130.76 362.10 132.58 C 361.57 133.03 360.51 133.93 359.99 134.39 C 359.99 135.80 359.99 137.22 359.99 138.64 C 360.49 139.05 361.48 139.86 361.98 140.27 C 359.84 143.83 358.59 147.93 355.73 151.02 C 355.19 151.03 354.10 151.05 353.55 151.06 C 351.09 152.88 348.57 154.65 346.54 156.98 C 346.00 156.98 344.90 156.98 344.35 156.98 C 342.38 159.03 340.72 161.32 339.02 163.58 C 339.36 163.93 340.03 164.64 340.36 165.00 C 339.79 165.00 338.64 165.01 338.06 165.01 C 338.04 164.42 337.99 163.24 337.97 162.65 C 337.47 163.08 336.49 163.94 336.00 164.37 C 336.00 166.36 336.00 168.35 336.00 170.34 C 335.56 169.96 334.69 169.18 334.25 168.79 C 333.57 169.98 332.91 171.17 332.26 172.37 C 334.60 180.22 326.42 188.23 331.09 196.18 C 330.75 196.64 330.05 197.57 329.70 198.03 C 330.15 198.55 331.03 199.60 331.47 200.13 C 329.81 201.41 328.10 202.63 326.46 203.93 C 325.94 203.95 324.90 204.00 324.38 204.02 C 323.45 205.01 322.53 206.01 321.61 207.01 C 326.77 207.92 332.39 206.30 334.29 200.96 C 334.95 200.97 336.28 201.00 336.94 201.01 C 336.97 201.62 337.04 202.84 337.07 203.45 C 338.63 205.53 340.12 207.67 341.96 209.52 C 341.99 210.91 342.02 212.30 342.06 213.70 C 340.45 215.05 338.71 216.21 336.94 217.33 C 336.14 216.58 335.34 215.84 334.55 215.10 C 331.42 215.08 328.46 213.94 325.35 213.82 C 324.33 215.09 323.33 216.39 322.58 217.84 C 325.40 218.04 329.50 217.53 330.47 221.02 C 333.18 221.20 335.84 220.76 338.39 219.83 C 337.92 221.59 336.63 222.89 335.49 224.24 C 335.01 223.64 334.06 222.44 333.59 221.84 C 333.19 222.23 332.40 223.00 332.01 223.39 C 332.01 223.95 332.00 225.07 332.00 225.63 C 329.02 227.28 325.85 228.49 322.38 228.04 C 321.95 228.48 321.11 229.36 320.69 229.80 C 321.87 230.32 323.05 230.84 324.24 231.37 C 323.89 231.67 323.18 232.27 322.82 232.57 C 323.41 233.03 324.59 233.95 325.17 234.41 C 325.62 237.71 321.92 240.31 323.56 243.50 C 321.22 251.20 321.70 260.16 316.09 266.51 C 315.74 266.17 315.03 265.49 314.67 265.14 C 312.75 266.59 310.56 264.79 308.47 264.79 C 308.01 265.35 307.09 266.47 306.63 267.03 C 306.01 267.01 304.79 266.96 304.18 266.94 C 302.07 269.54 301.70 272.77 301.96 276.00 C 298.54 276.00 295.12 276.01 291.70 275.97 C 292.12 274.98 292.55 274.00 292.99 273.02 C 291.85 270.36 291.15 267.53 289.93 264.91 C 290.38 264.94 291.30 265.00 291.75 265.03 C 292.42 262.60 293.09 260.15 293.05 257.61 C 287.92 253.55 288.42 247.31 286.90 241.80 C 287.26 241.35 287.98 240.44 288.35 239.98 C 287.61 239.17 286.88 238.36 286.14 237.56 C 285.96 236.20 285.76 234.84 285.47 233.50 C 285.78 232.16 285.97 230.80 286.15 229.45 C 285.07 228.92 284.00 228.38 282.94 227.83 C 282.96 226.29 282.98 224.75 283.00 223.21 C 288.54 223.45 288.01 216.23 288.01 212.40 C 288.51 211.95 289.50 211.05 290.00 210.60 C 290.00 210.02 290.00 208.85 290.00 208.26 C 292.20 208.02 294.19 207.03 296.01 205.82 C 295.25 201.07 298.99 195.95 295.71 191.64 C 296.70 190.92 297.72 190.24 298.78 189.63 C 300.35 187.15 300.01 184.20 300.03 181.41 C 298.98 180.45 297.94 179.49 296.88 178.55 C 296.92 175.24 298.23 172.12 298.15 168.80 C 297.91 168.51 297.44 167.92 297.21 167.63 C 297.82 163.68 300.93 159.80 299.17 155.81 C 298.72 153.96 299.86 152.15 300.17 150.34 C 301.23 149.29 302.29 148.23 303.33 147.16 C 306.68 145.99 310.22 145.81 313.74 146.00 C 315.18 142.58 315.45 138.90 312.87 135.94 C 314.80 133.61 315.99 130.80 317.83 128.41 C 318.46 123.94 319.08 119.45 320.21 115.08 C 322.01 115.06 324.79 115.35 324.88 112.80 C 324.89 105.68 335.75 101.64 330.99 94.16 C 332.64 94.18 333.21 92.67 333.99 91.50 C 334.00 90.97 334.02 89.92 334.02 89.39 C 335.33 88.14 336.62 86.88 337.92 85.62 C 342.25 91.84 344.03 82.49 344.15 78.87 C 347.61 80.35 357.43 83.38 354.20 76.34 C 354.41 76.07 354.82 75.53 355.03 75.26 C 355.01 73.71 355.02 72.16 355.05 70.60 M 353.27 147.13 C 349.57 149.52 356.46 149.22 353.27 147.13 M 329.27 179.13 C 325.57 181.52 332.46 181.23 329.27 179.13 Z"
       id="path21"
       style="fill:#93eeff;fill-opacity:1" />
  </g>
  <g
     id="#519962ff"
     style="fill:#88fcb0;fill-opacity:1">
    <path
       d="m 375.22,120.26 c 2.04,0.77 4.22,0.82 6.38,0.78 3.19,2.79 6.28,6.29 5.51,10.88 -0.68,0.04 -2.04,0.1 -2.72,0.13 -0.79,0.79 -1.58,1.59 -2.37,2.38 -0.03,1.33 -0.05,2.66 -0.08,3.99 -4.73,6.35 -8.79,13.18 -13.48,19.56 -1.41,0.01 -2.8,0.01 -4.19,0.01 -1.83,2.93 -4.06,5.7 -5.15,9.02 -0.92,4.26 1.22,8.33 0.94,12.59 0.49,0.46 1.45,1.37 1.93,1.82 1.33,6.5 -2.78,13.16 0.19,19.31 2.65,0.75 5.18,1.85 7.82,2.62 0,1.22 0,2.43 0.01,3.65 l -0.95,0 -0.12,-3.12 c -2.02,-0.09 -5.52,0.08 -4.97,2.98 0.12,2.62 3.18,2.42 4.85,1.33 0.39,0.45 1.17,1.36 1.56,1.81 l 3.56,0 c 0.04,0.82 0.12,2.48 0.15,3.3 2.59,-0.69 5.04,-1.77 7.59,-2.6 0.44,-0.42 1.33,-1.27 1.78,-1.69 1.36,-0.01 2.72,-0.01 4.08,-0.02 0.45,-0.42 1.34,-1.28 1.78,-1.7 5.93,-1.51 10.75,-5.83 16.77,-7.06 3.13,-0.27 6.25,-0.71 9.33,-1.36 1.73,2.13 4.03,3.6 6.58,4.56 0,0.63 0.01,1.88 0.01,2.5 -0.67,0.03 -2.01,0.08 -2.68,0.1 -0.43,0.52 -1.29,1.55 -1.72,2.06 -0.3,-0.29 -0.89,-0.86 -1.19,-1.15 -0.8,0.84 -1.6,1.68 -2.4,2.51 -0.02,1.2 -0.04,2.39 -0.05,3.59 -3.39,0.18 -6.75,-0.25 -9.99,-1.27 0.03,-0.43 0.08,-1.3 0.1,-1.73 -2.35,1.29 -5.08,0.97 -7.66,0.98 -0.45,0.47 -1.36,1.42 -1.81,1.89 -3.84,-0.36 -7.28,1.56 -10.14,3.92 -0.52,0.07 -1.58,0.21 -2.11,0.28 -1.11,1.11 -2.23,2.22 -3.36,3.32 0.03,2.91 -0.49,6.02 1,8.69 -4.06374,-6.85786 1.09451,5.5585 0.79,3.74 0.26,3.4 4.87,2.68 7.33,3.3 -1.56,4.07 -1.8,8.87 -0.16,12.94 -0.42,0.86 -0.84,1.73 -1.24,2.6 -0.83,0.42 -1.65,0.84 -2.47,1.28 -2.75,-3.82 -5.99,-7.26 -8.6,-11.2 -2.16,0.33 -4.27,0.86 -6.38,1.38 -2.33,2.21 -4.34,4.71 -6.13,7.38 0.3,3.27 -1.44,6.02 -2.78,8.84 -1.59,6.71 0.98,13.42 0.64,20.16 -1.77,1.58 -3.46,3.3 -4.54,5.44 -1.03,0 -2.05,0.01 -3.06,0.02 -0.72,0.77 -1.42,1.54 -2.12,2.32 -0.21,5.08 -5.13,7.73 -9.79,6.67 0.62,-0.35 1.87,-1.06 2.5,-1.42 0,-1.06 0.01,-2.12 0.03,-3.17 -0.79,-0.71 -1.56,-1.43 -2.33,-2.14 -1.24,-0.37 -2.47,-0.75 -3.69,-1.13 -5.48,1.55 -11,3.05 -16.61,4.05 -5.41,7.16 -16.04,4.79 -22.28,10.95 -2.67,-3.46 -2.56,-7.9 -1.18,-11.86 -1.52,-1.45 -3.56,-2.09 -5.56,-2.54 -0.98,1.56 -1.93,3.14 -2.91,4.71 0.12,-3.69 -3.69,-2.48 -5.75,-1.42 0.82,-4.52 2.69,-8.78 5.88,-12.13 2.57,0.82 5.27,1.5 7.94,0.67 1.67,0.27 3.39,0.71 5.09,0.37 2.55,-2.06 0.6,-5.94 2.55,-8.49 1.19,-0.75 2.33,-1.57 3.44,-2.43 3.48,-1.23 9.36,3.66 10.81,-1.01 1.15,0.01 2.31,0.03 3.47,0.05 3.11,-6.39 6.15,-13.2 6.2,-20.44 -1.04,0.91 -2.07,1.83 -3.1,2.74 0.47,-7.62 -0.23,-18.12 7.56,-22.28 1.01,-0.04 2.02,-0.07 3.04,-0.11 5.71,-4.36 8.33,-11.56 8.48,-18.53 l -2.08,-1.84 c 0,-1.09 0.01,-2.18 0.02,-3.26 -1.34,-0.55 -2.68,-1.11 -4.01,-1.65 0,-0.65 -0.01,-1.94 -0.01,-2.58 -0.6,-0.06 -1.82,-0.19 -2.42,-0.25 -1.17,-0.82 -2.35,-1.62 -3.55,-2.39 0.88,-3.74 -2.17,-10.1 1.94,-11.88 -0.49,-4.28 1.05,-8.27 2.29,-12.27 l 1.71,-1.71 c 0.01,-0.61 0.03,-1.82 0.05,-2.42 0.88,-0.52 1.76,-1.03 2.66,-1.53 1.15,-2.28 2.47,-4.46 3.78,-6.64 l 2.37,0 c 0.51,-0.92 1.03,-1.84 1.55,-2.75 1.96,-0.49 4.17,-0.93 5.12,-2.96 1.01,-0.54 2.03,-1.07 3.07,-1.59 3.07,-3.78 4.96,-8.44 8.75,-11.62 -1.14,-1.75 -2.38,-3.44 -3.37,-5.27 0.8,-2.75 2.5,-5.25 2.22,-8.27 2.58,-1.72 3.69,-4.76 5.69,-7.02 0.54,0.45 1.64,1.37 2.18,1.83 l 2.19,-2.1 m 0.03,3.88 c -3.66,2.36 3.23,2.1 0,0"
       id="path24"
       style="opacity:1;fill:#88fcb0;fill-opacity:1"
       inkscape:connector-curvature="0"
       sodipodi:nodetypes="cccccccccccccccccccccccccccccccccccccccccccccccccccccccccccccccccccccccccccccccccccccccccccccccccccccc" />
  </g>
  <g
     id="#d0cb00ff"
     style="fill:#52b3c7;fill-opacity:1">
    <path
       fill="#d0cb00"
       opacity="1.00"
       d=" M 156.50 198.87 C 160.65 199.26 164.23 202.01 168.61 201.02 C 169.01 201.42 169.80 202.23 170.20 202.63 C 168.29 204.09 166.31 205.46 164.43 206.96 C 163.43 206.97 162.44 206.99 161.45 207.01 C 159.73 208.78 157.97 210.52 156.20 212.24 C 156.65 213.51 156.98 214.81 157.29 216.12 C 161.39 213.61 165.70 215.82 169.68 217.28 C 169.81 219.49 171.24 218.98 172.67 218.20 C 173.41 218.93 175.71 219.02 174.86 220.49 C 170.84 224.58 168.38 229.87 163.43 233.03 C 163.12 232.69 162.51 232.01 162.21 231.67 C 161.46 233.02 161.00 234.49 160.72 236.00 C 160.15 236.00 159.01 236.00 158.44 236.00 C 157.63 236.82 156.82 237.64 156.01 238.45 C 155.99 239.02 155.96 240.17 155.94 240.75 C 157.76 241.46 159.62 242.08 161.60 242.13 C 162.73 243.23 163.85 244.32 164.99 245.42 C 164.99 245.97 165.00 247.07 165.00 247.62 C 165.51 248.07 166.53 248.96 167.04 249.41 C 166.45 254.90 166.47 260.07 167.02 265.57 C 168.65 267.15 170.27 268.75 171.86 270.38 C 172.21 274.10 173.63 277.62 174.22 281.31 C 173.66 280.92 172.54 280.13 171.98 279.73 C 171.47 280.12 170.43 280.90 169.91 281.28 C 171.68 284.17 174.36 286.85 174.13 290.50 C 172.57 291.93 171.07 293.42 169.59 294.93 C 170.04 295.48 170.95 296.58 171.40 297.14 C 176.25 295.72 181.01 295.99 184.19 300.46 C 183.89 302.57 183.35 304.64 182.87 306.72 C 180.94 308.66 178.74 310.29 176.47 311.82 C 174.79 311.95 173.12 312.27 171.69 313.20 C 172.07 313.56 172.84 314.29 173.23 314.65 C 170.42 314.87 169.53 317.27 169.90 319.74 C 171.94 320.21 173.96 320.76 176.00 321.24 C 176.00 321.62 176.00 322.37 176.01 322.75 C 173.38 323.54 170.70 324.09 167.96 324.16 C 163.86 326.28 159.95 321.78 155.57 322.92 C 153.66 321.34 150.95 320.30 150.46 317.58 C 149.80 318.76 149.14 319.94 148.50 321.13 C 146.95 321.02 145.41 320.76 143.99 320.10 C 142.21 321.06 140.19 321.04 138.23 321.09 C 138.83 315.63 132.75 317.08 129.29 316.95 C 128.25 318.22 127.27 319.53 126.49 320.98 C 125.98 320.99 124.95 321.00 124.44 321.01 C 123.51 320.04 122.57 319.08 121.64 318.13 C 120.00 318.05 118.38 317.78 116.92 316.99 C 114.59 318.25 112.24 319.50 109.70 320.31 C 111.48 315.02 119.99 315.99 122.47 311.01 C 123.02 311.01 124.11 311.00 124.65 311.00 C 125.05 310.52 125.84 309.56 126.24 309.07 C 127.21 309.50 128.19 309.91 129.18 310.32 C 128.80 310.74 128.03 311.58 127.64 312.00 C 128.23 312.00 129.41 312.00 130.00 312.00 C 129.98 311.49 129.94 310.46 129.91 309.94 C 132.27 311.27 135.09 310.94 137.54 312.03 C 138.50 309.50 140.52 307.56 142.99 306.52 C 143.00 304.88 143.00 303.25 143.01 301.62 C 142.22 302.33 141.42 303.04 140.63 303.75 C 138.52 304.14 136.62 305.15 134.79 306.22 C 133.93 305.38 133.08 304.53 132.23 303.69 C 131.91 302.44 131.51 301.21 131.07 300.01 C 129.78 300.58 128.42 300.97 127.05 301.27 C 127.02 299.78 126.99 298.30 126.97 296.82 C 124.61 297.08 122.31 297.61 120.01 298.20 C 120.01 297.46 120.00 295.98 120.00 295.24 C 123.86 294.47 127.58 292.87 131.58 292.91 C 132.72 291.79 133.85 290.67 135.00 289.56 C 135.00 286.45 135.00 283.35 135.00 280.25 C 138.41 278.59 141.81 279.36 145.09 280.92 C 147.83 281.76 148.26 278.32 148.08 276.39 C 148.55 275.94 149.50 275.05 149.98 274.61 C 150.00 274.09 150.05 273.05 150.08 272.53 C 151.77 270.58 153.16 268.39 154.40 266.13 C 150.56 266.91 147.61 265.27 147.11 261.31 C 148.58 259.90 150.02 258.47 151.44 257.02 C 152.08 257.00 153.35 256.97 153.99 256.96 C 154.00 256.29 154.03 254.94 154.04 254.27 C 150.36 251.64 146.00 255.81 142.54 252.25 C 141.71 252.59 140.87 252.93 140.03 253.26 C 140.03 252.38 140.01 250.63 140.00 249.76 C 139.42 250.15 138.25 250.95 137.67 251.34 C 138.44 247.86 141.84 245.94 144.16 243.51 C 144.03 242.03 143.81 240.56 143.16 239.21 C 144.11 238.34 145.06 237.47 146.01 236.60 C 146.01 235.53 146.00 234.47 146.00 233.41 C 143.22 232.92 143.66 229.54 142.80 227.47 C 143.36 227.01 144.46 226.08 145.02 225.61 C 145.02 224.93 145.01 223.57 145.01 222.88 C 143.24 223.44 141.45 223.96 139.61 224.19 C 140.47 219.19 148.74 216.90 146.31 211.44 C 146.73 208.52 148.47 206.09 151.73 206.92 C 152.05 205.34 152.59 203.82 153.20 202.34 C 154.93 201.85 155.97 200.54 156.50 198.87 M 161.27 203.13 C 157.57 205.51 164.46 205.23 161.27 203.13 Z"
       id="path27"
       style="fill:#52b3c7;fill-opacity:1" />
    <path
       fill="#d0cb00"
       opacity="1.00"
       d=" M 111.10 247.21 C 114.67 246.38 117.29 243.71 118.96 240.56 C 119.00 241.22 119.07 242.54 119.11 243.21 C 121.26 242.66 123.42 242.12 125.63 241.78 C 129.14 244.72 129.71 249.05 126.75 252.62 C 130.08 252.48 128.66 254.87 127.79 256.71 C 126.14 257.60 124.54 258.58 122.88 259.46 C 124.88 256.82 123.49 253.77 122.74 250.98 C 119.30 250.74 115.81 250.89 112.99 253.10 C 112.29 251.16 111.81 249.15 111.10 247.21 Z"
       id="path29"
       style="fill:#52b3c7;fill-opacity:1" />
  </g>
  <g
     id="#9d9917ff"
     style="fill:#93eeff;fill-opacity:1">
    <path
       fill="#9d9917"
       opacity="1.00"
       d=" M 396.60 215.99 C 397.04 212.55 401.21 214.45 403.59 213.98 C 404.05 214.49 404.95 215.51 405.41 216.02 C 409.39 216.36 413.27 215.46 417.16 214.80 C 413.35 219.22 414.38 224.33 415.09 229.57 C 414.56 230.03 413.51 230.95 412.99 231.40 C 412.99 232.60 412.99 233.81 413.00 235.01 C 413.75 234.99 415.25 234.94 416.01 234.91 C 415.18 236.45 414.91 238.16 414.89 239.89 C 412.74 241.54 410.18 242.29 407.47 242.08 C 406.25 240.78 405.00 239.51 403.72 238.28 C 400.00 236.85 396.23 235.03 392.37 237.22 C 391.52 237.95 390.67 238.68 389.81 239.41 C 390.34 236.89 390.87 234.37 391.19 231.81 C 389.50 231.98 387.81 232.21 386.19 232.74 C 384.71 231.81 383.30 230.79 381.93 229.72 C 382.75 228.65 383.58 227.59 384.39 226.51 C 381.45 226.40 381.90 224.68 383.07 222.81 C 382.74 222.37 382.10 221.51 381.77 221.08 C 383.00 220.60 384.24 220.15 385.48 219.69 C 386.44 217.82 388.45 217.25 390.28 216.62 C 389.90 217.31 389.13 218.67 388.75 219.36 C 390.68 219.19 391.35 217.36 392.33 215.99 C 393.75 215.98 395.17 215.99 396.60 215.99 M 390.25 220.14 C 386.59 222.51 393.48 222.23 390.25 220.14 Z"
       id="path32"
       style="fill:#93eeff;fill-opacity:1" />
    <path
       fill="#9d9917"
       opacity="1.00"
       d=" M 429.12 486.23 C 433.32 480.63 439.60 485.33 444.97 482.78 C 444.97 484.08 444.98 485.40 445.00 486.72 C 446.50 487.69 448.01 488.67 449.44 489.77 C 452.40 490.57 455.38 491.31 458.30 492.28 C 457.87 492.70 457.03 493.54 456.61 493.97 C 448.61 494.13 438.91 494.71 434.88 502.87 C 431.97 501.05 428.69 502.68 425.67 503.21 C 427.14 500.11 428.51 496.90 428.03 493.39 C 428.55 492.93 429.59 492.02 430.10 491.56 C 430.04 489.73 430.06 487.85 429.12 486.23 Z"
       id="path34"
       style="fill:#93eeff;fill-opacity:1" />
  </g>
  <g
     id="#facc57ff"
     style="fill:#88fcb0;fill-opacity:1">
    <path
       fill="#facc57"
       opacity="1.00"
       d=" M 396.40 238.27 C 397.42 238.59 398.45 238.90 399.49 239.18 C 402.04 240.82 405.17 242.27 406.49 245.15 C 409.08 244.30 411.77 243.80 414.51 243.95 C 415.70 245.17 416.92 246.37 418.16 247.56 C 417.74 249.21 417.24 250.85 416.83 252.51 C 418.96 252.95 420.02 254.78 420.99 256.52 C 420.99 257.05 421.00 258.10 421.00 258.62 C 421.51 259.07 422.53 259.97 423.04 260.42 C 423.01 260.92 422.97 261.93 422.95 262.43 C 421.23 264.44 419.77 266.66 418.55 269.00 C 417.16 269.00 415.78 268.99 414.40 268.99 C 413.95 269.50 413.04 270.52 412.59 271.02 C 412.05 271.01 410.98 270.99 410.44 270.98 C 409.15 268.04 405.53 267.28 403.41 265.03 C 402.02 265.01 400.64 265.01 399.26 265.03 C 398.40 263.67 397.57 262.29 396.72 260.94 C 396.14 260.96 394.98 260.98 394.40 261.00 C 393.94 261.52 393.04 262.55 392.58 263.07 C 382.88 262.45 370.20 258.61 363.46 268.14 C 362.92 267.49 362.38 266.83 361.85 266.18 C 363.14 260.17 365.51 254.38 367.18 248.34 C 367.90 247.63 368.62 246.92 369.35 246.22 C 370.47 245.91 371.59 245.57 372.70 245.19 C 377.25 246.84 377.71 252.29 381.38 254.99 C 383.92 254.86 386.50 255.01 388.83 256.14 C 389.81 251.26 390.33 246.36 389.99 241.37 C 392.17 240.44 394.30 239.37 396.40 238.27 Z"
       id="path37"
       style="fill:#88fcb0;fill-opacity:1" />
    <path
       fill="#facc57"
       opacity="1.00"
       d=" M 347.99 479.24 C 349.76 478.51 351.58 477.90 353.52 477.88 C 354.17 481.47 359.33 481.97 358.98 485.95 C 359.08 492.02 357.62 499.65 363.72 503.43 C 364.08 504.71 364.54 505.96 365.12 507.17 C 362.62 509.81 360.86 513.07 358.06 515.43 C 358.01 515.92 357.92 516.91 357.88 517.40 C 357.52 518.14 356.82 519.63 356.47 520.37 C 354.79 519.65 353.72 518.25 353.83 516.39 C 353.07 515.58 352.32 514.78 351.57 513.98 C 350.99 514.00 349.82 514.04 349.23 514.06 C 348.54 512.90 347.86 511.74 347.18 510.59 C 347.68 503.12 348.15 494.88 349.05 486.99 C 348.51 487.02 347.44 487.07 346.90 487.09 C 348.62 484.81 347.88 481.87 347.99 479.24 Z"
       id="path39"
       style="fill:#88fcb0;fill-opacity:1" />
  </g>
  <g
     id="#c89a11ff"
     style="fill:#ee5f59;fill-opacity:1">
    <path
       fill="#c89a11"
       opacity="1.00"
       d=" M 265.56 247.00 C 267.74 244.58 270.07 242.26 273.00 240.77 C 273.00 242.65 273.00 244.53 272.96 246.41 C 271.23 248.10 270.14 250.31 269.76 252.70 C 269.29 253.14 268.36 254.03 267.89 254.48 C 266.93 258.73 270.99 259.70 274.35 259.02 C 273.93 259.51 273.08 260.51 272.66 261.00 C 272.06 260.99 270.85 260.98 270.24 260.97 C 269.33 262.17 268.43 263.37 267.58 264.62 C 265.77 265.80 263.98 267.01 262.16 268.19 C 261.50 270.61 260.94 273.08 260.91 275.61 C 260.44 276.06 259.49 276.95 259.02 277.40 C 259.00 278.11 258.96 279.54 258.94 280.26 C 257.62 279.72 256.31 279.19 254.98 278.71 C 255.00 275.94 255.01 273.18 255.00 270.41 C 254.00 269.47 253.00 268.52 252.00 267.59 C 251.84 263.79 251.88 259.95 253.18 256.33 C 255.52 256.20 254.97 254.69 254.15 253.20 C 254.61 252.82 255.52 252.05 255.98 251.66 C 255.99 251.10 256.02 249.97 256.03 249.41 C 256.84 248.61 257.64 247.80 258.44 247.00 C 260.81 247.00 263.19 247.00 265.56 247.00 Z"
       id="path42"
       style="fill:#ee5f59;fill-opacity:1" />
    <path
       d="m 91.8,248.98 c 1.02,-3.27 4.36,-5.89 5.65,-1.18 3.49,1.55 7.4,1.68 10.47,-0.83 1.67,2.41 2.42,5.19 2.17,8.12 3.87,0.66 6.89,-2.27 10.65,-2.26 0.26,1.21 0.54,2.42 0.84,3.64 -0.27,1.06 -0.52,2.14 -0.76,3.22 -0.46,0.43 -1.37,1.3 -1.82,1.74 l 0,7.14 c -0.46,0.45 -1.39,1.35 -1.85,1.79 -0.2,2.13 -0.76,4.19 -1.36,6.23 -2.27,2.43 -3.92,5.38 -6.46,7.56 -3.08,-1.61 -6.7,-1.1 -9.92,-2.31 -0.45,0.58 -1.34,1.72 -1.78,2.29 l -0.92,-0.92 c -1.62,1.18 -3.45,0.72 -4.95,-0.38 -0.76,0.74 -1.51,1.49 -2.26,2.24 -2.83,0.09 -5.61,-0.45 -8.31,-1.26 -0.45,-1.95 -0.98,-3.87 -1.43,-5.81 -1.37,0 -2.74,0 -4.11,0.01 0.42,-0.5 1.27,-1.5 1.7,-2 0.53,-0.01 1.6,-0.04 2.14,-0.06 1.24,-2.08 3.45,-3.28 5.08,-5.03 3.23,0.09 6.32,1.21 9.55,1.21 -0.49,-1.7 -0.96,-3.4 -1.26,-5.14 -1.67,0.93 -3.4,1.77 -5.23,2.33 0.74,-1.87 1.8,-3.58 2.8,-5.32 1.52,0 3.04,-0.01 4.57,-0.01 l 0,-3.94 c -0.65,-0.02 -1.94,-0.06 -2.59,-0.07 -1.77,-1.73 -3.56,-3.46 -4.82,-5.61 2.13,-0.54 4.26,-1.11 6.41,-1.61 0,-1.24 0,-2.48 0.01,-3.71 -0.56,-0.02 -1.66,-0.06 -2.21,-0.07"
       id="path44"
       style="opacity:1;fill:#ee5f59;fill-opacity:1"
       inkscape:connector-curvature="0"
       sodipodi:nodetypes="cccccccccccccccccccccccccccccccccc" />
    <path
       fill="#c89a11"
       opacity="1.00"
       d=" M 304.53 377.96 C 308.18 377.37 311.39 379.33 313.57 382.12 C 315.20 382.05 316.79 381.68 318.23 380.89 C 318.64 381.24 319.46 381.95 319.87 382.30 C 319.87 386.65 322.74 390.36 323.00 394.62 C 320.60 396.68 313.42 395.55 316.85 400.81 C 316.39 401.20 315.45 401.98 314.99 402.37 C 315.00 403.45 315.01 404.53 315.02 405.62 C 311.11 410.69 304.23 410.91 298.38 411.02 C 297.42 412.06 296.47 413.09 295.53 414.14 C 287.41 412.62 278.77 411.88 272.01 406.53 C 272.00 404.95 271.99 403.38 271.98 401.82 C 266.53 403.41 260.87 403.75 255.35 404.68 C 254.08 403.77 252.80 402.88 251.53 401.98 C 251.19 402.28 250.51 402.86 250.16 403.15 C 249.05 402.60 247.93 402.07 246.81 401.55 C 248.14 398.71 248.34 395.75 245.64 393.65 C 248.28 394.04 249.84 396.38 251.53 398.19 C 253.69 398.32 254.99 396.76 255.40 394.77 C 256.03 395.45 256.67 396.14 257.30 396.82 C 258.84 397.18 260.34 397.74 261.92 397.94 C 267.73 394.49 274.77 396.09 281.04 397.20 C 280.99 394.74 281.32 392.13 280.01 389.92 C 280.45 389.03 280.88 388.14 281.32 387.25 C 282.76 386.84 284.18 386.35 285.59 385.83 C 286.40 384.43 287.34 383.10 288.30 381.80 C 292.04 382.11 295.67 383.40 299.46 383.00 C 301.11 381.28 303.36 380.10 304.53 377.96 Z"
       id="path46"
       style="fill:#ee5f59;fill-opacity:1" />
    <path
       d="m 47.2,404.95 c 1.45,0.01 2.89,0.04 4.34,0.07 6.75,8.56 18.95,7.31 27.01,13.74 4.11,0.47 7.77,2.68 11.04,5.09 2.97,-0.19 5.76,0.85 7.88,2.93 3.46,0.98 7.24,1.37 10.02,3.89 6.37,0.81 8.11,7.78 13.16,10.64 4.15,3.86 9.31,6.36 14.44,8.65 3.33,-1.9 6.16,0.13 8.73,2.27 -0.24,2.36 1.44,4.11 3.81,3.99 0.45,0.4 1.33,1.21 1.77,1.61 4.95,1.01 9.98,1.51 14.97,2.33 -0.79,0.76 -1.59,1.52 -2.38,2.29 0,1.38 0.01,2.77 0.01,4.16 -8.13,4.83 -17.49,6.07 -26.57,7.6 -2.28,1.43 -4.27,3.2 -5.7,5.51 -5.66,5.17 -12.59,9.15 -16.7,15.85 -0.03,2.3 -0.04,4.6 -0.03,6.91 1.63,0.84 3.05,1.99 4.39,3.23 -7.15,1.98 -10.57,8.71 -15.86,13.4 -1.75,-0.1 -3.51,-0.26 -5.2,-0.75 -4.55,1.58 -8.31,4.45 -10.62,8.71 -0.59,-0.02 -1.75,-0.06 -2.33,-0.08 -0.39,-0.45 -1.17,-1.36 -1.56,-1.82 -8.52,2.38 -16.82,-3.59 -25.09,-5.29 -0.74,0.7 -1.48,1.4 -2.21,2.11 -3.98,-0.21 -8.45,-0.41 -11.16,3.1 -1.75,-0.07 -3.43,-0.52 -5,-1.26 -3.22,-3.88 -5.02,-9.37 -1.06,-13.14 -0.58,0.39 -1.73,1.16 -2.31,1.55 l 0,-3.74 c -1.6,-2.38 -4.24,-3.89 -5.5,-6.5 -0.65,0.02 -1.94,0.05 -2.59,0.07 0.51,-1.07 1.01,-2.14 1.5,-3.21 -1.12,0.48 -2.24,0.95 -3.37,1.42 -0.02,-1.31 -0.03,-2.6 -0.04,-3.89 2.64,-1.18 5.19,-2.52 7.84,-3.67 2.25,-3.53 -0.66,-7.44 0.14,-11.29 1.36,-1.28 2.7,-2.58 4.06,-3.86 0.32,-3.14 -0.53,-6.15 -1.03,-9.19 1.99,-2.2 5.39,-1.11 7.89,-2.49 1.02,-5.95 2.61,-11.71 6.47,-16.57 3.16,-1.46 6.04,-3.45 8.74,-5.64 0.34,-3.53 -0.85,-6.78 -2.45,-9.85 -0.26,0.26 -0.76,0.79 -1.02,1.05 -4.52,-3.44 -15.5,-0.77 -14.75,-8.88 -2.71,0 -5.42,0.01 -8.13,-0.01 0.85,-1.43 1.68,-2.98 3.37,-3.53 -0.19,-1.33 -0.4,-2.64 -0.6,-3.96 0.86,-3.04 -0.66,-6.1 -1.76,-8.87 1.31,-1.02 2.71,-1.91 4.13,-2.76 1.69,0.76 3.42,1.45 5.14,2.19 0.88,-0.47 1.76,-0.92 2.65,-1.36 0.5,-0.93 1.01,-1.84 1.52,-2.75"
       id="path48"
       style="opacity:1;fill:#93eeff;fill-opacity:1"
       inkscape:connector-curvature="0"
       sodipodi:nodetypes="cccccccccccccccccccccccccccccccccccccccccccccccccccccc" />
  </g>
  <g
     id="#9c9a61ff"
     style="fill:#88fcb0;fill-opacity:1">
    <path
       fill="#9c9a61"
       opacity="1.00"
       d=" M 702.66 259.05 C 703.46 255.45 705.35 252.30 708.83 250.77 C 709.33 251.83 709.83 252.90 710.33 253.97 C 713.68 255.72 717.44 255.10 720.00 252.29 L 720.00 401.29 C 719.60 401.83 718.79 402.89 718.39 403.43 C 717.84 404.78 717.29 406.13 716.74 407.48 C 715.79 405.62 714.85 403.77 713.89 401.93 C 714.21 401.45 714.84 400.48 715.16 400.00 C 714.64 398.33 714.14 396.66 713.67 394.98 C 707.86 395.41 702.13 394.53 696.39 393.85 C 695.00 388.04 689.61 385.57 685.39 382.13 C 682.61 382.07 679.79 381.96 677.19 380.90 C 681.18 377.92 686.73 379.22 691.04 376.59 C 691.01 376.13 690.94 375.23 690.90 374.78 C 688.49 372.70 686.82 369.96 685.56 367.08 C 687.33 367.04 689.12 367.02 690.91 367.02 C 691.43 365.01 691.88 362.99 692.25 360.95 C 695.44 358.54 699.47 358.94 703.23 358.94 C 706.77 352.98 714.35 356.37 719.29 352.56 C 718.92 344.93 710.54 342.48 704.21 341.85 C 702.89 340.35 701.61 338.82 700.43 337.22 C 697.90 336.19 695.06 335.46 693.30 333.20 C 688.48 331.59 681.07 330.30 678.40 335.92 C 678.10 335.68 677.50 335.20 677.19 334.96 C 674.25 336.11 671.14 336.87 668.34 338.34 C 665.18 340.20 665.38 344.49 663.18 347.08 C 659.00 350.35 654.82 353.72 650.06 356.12 C 650.00 355.51 649.88 354.29 649.82 353.68 C 646.93 348.52 644.08 342.79 637.90 341.01 C 634.95 341.86 632.11 343.01 629.17 343.85 C 628.55 343.13 627.94 342.41 627.34 341.70 C 626.89 340.43 626.43 339.17 625.96 337.92 C 624.02 337.97 622.08 338.01 620.14 338.07 C 617.67 333.82 620.29 329.60 621.37 325.42 C 619.99 324.42 618.62 323.43 617.22 322.48 C 616.92 320.48 616.56 318.50 616.06 316.55 C 616.74 315.86 617.43 315.18 618.13 314.50 C 618.04 311.78 617.60 309.10 616.90 306.47 C 620.30 307.93 623.32 310.14 625.75 312.94 C 627.14 312.99 628.53 313.04 629.93 313.10 C 631.28 310.85 632.16 308.36 632.12 305.71 C 630.48 303.97 629.03 302.06 627.70 300.08 C 629.86 296.95 632.28 293.73 632.26 289.73 C 634.82 287.83 636.15 284.88 637.91 282.30 C 637.94 280.99 637.97 279.68 638.02 278.37 C 638.87 277.58 639.75 276.80 640.62 276.03 C 643.35 277.49 646.26 276.58 649.04 275.78 C 649.00 274.30 648.98 272.82 648.97 271.34 C 649.47 270.95 650.45 270.17 650.94 269.78 C 652.27 270.56 653.62 271.33 654.96 272.10 C 657.44 270.66 659.88 268.68 662.70 268.12 C 667.29 270.95 673.88 270.70 676.73 275.96 C 678.16 275.98 679.61 275.99 681.07 276.00 C 681.02 275.41 680.92 274.23 680.88 273.63 C 680.03 272.40 679.21 271.15 678.42 269.89 C 682.17 272.68 686.55 271.25 690.76 270.84 C 691.35 265.19 695.65 255.61 702.66 259.05 Z"
       id="path51"
       style="fill:#88fcb0;fill-opacity:1" />
    <path
       fill="#9c9a61"
       opacity="1.00"
       d=" M 179.32 329.05 C 181.94 329.11 184.57 328.91 187.01 327.86 C 187.00 329.46 187.00 331.07 186.99 332.68 C 188.33 333.21 189.66 333.77 191.01 334.32 C 191.00 334.91 190.99 336.08 190.98 336.67 C 193.18 338.74 195.64 340.49 198.05 342.29 C 198.02 344.11 197.99 345.94 197.96 347.77 C 199.83 348.52 201.78 349.05 203.80 349.12 C 204.31 350.63 204.81 352.14 205.26 353.67 C 205.97 354.45 206.69 355.22 207.41 356.01 C 208.46 356.00 209.52 355.99 210.58 355.99 C 211.04 356.49 211.95 357.50 212.41 358.00 C 213.45 358.00 214.50 358.00 215.55 358.00 C 216.68 359.15 217.82 360.29 218.97 361.42 C 218.98 361.95 219.00 363.03 219.01 363.57 C 220.93 364.42 222.80 365.41 224.48 366.70 C 226.09 367.21 227.68 367.76 229.28 368.31 C 228.80 369.33 228.32 370.36 227.85 371.39 C 229.38 371.08 230.19 369.81 231.05 368.65 C 231.04 369.37 231.01 370.81 230.99 371.53 C 225.23 375.78 224.20 382.94 222.69 389.35 C 221.38 388.91 220.09 388.43 218.82 387.91 C 218.36 388.26 217.45 388.96 216.99 389.31 C 217.00 389.92 217.02 391.15 217.02 391.76 C 214.34 393.83 211.10 395.47 209.57 398.68 C 207.99 399.50 206.41 400.33 204.83 401.18 C 205.08 401.48 205.56 402.07 205.81 402.37 C 204.91 404.50 204.19 406.70 203.77 408.98 C 205.06 408.99 206.35 409.01 207.65 409.02 C 208.60 407.89 209.56 406.78 210.53 405.66 C 213.84 410.64 210.10 416.88 212.03 422.46 C 210.30 424.01 208.94 425.91 207.82 427.94 C 208.56 429.24 209.29 430.55 210.02 431.87 C 208.36 434.63 208.76 438.01 210.19 440.77 C 211.83 441.18 213.43 441.70 215.04 442.22 C 215.02 443.33 215.01 444.45 214.99 445.57 C 208.73 447.65 204.48 454.58 197.44 454.09 C 196.51 453.06 195.57 452.04 194.63 451.02 C 194.09 451.01 193.02 450.98 192.49 450.97 C 191.35 447.09 186.93 446.72 183.54 446.92 C 181.86 445.60 180.10 444.37 178.44 443.04 C 177.44 443.01 176.44 442.99 175.44 442.98 C 174.99 443.45 174.09 444.38 173.64 444.84 C 171.20 445.24 168.80 445.75 166.37 446.16 C 165.64 446.87 164.90 447.59 164.17 448.31 C 163.13 451.48 162.77 454.78 162.99 458.11 C 159.16 457.01 155.24 456.06 151.25 455.95 C 150.31 454.77 149.40 453.58 148.55 452.34 C 145.79 451.18 143.48 449.27 141.54 447.02 C 130.71 448.14 122.25 440.02 115.67 432.65 C 120.98 431.24 120.52 424.99 123.66 421.51 C 124.28 418.75 125.79 416.34 127.93 414.50 C 127.31 410.57 129.63 407.29 130.33 403.59 C 131.40 404.99 132.14 406.86 133.99 407.40 C 134.30 404.01 133.75 400.66 132.34 397.56 C 133.78 394.06 134.05 390.25 135.18 386.65 C 134.61 387.07 133.47 387.91 132.90 388.33 C 131.29 386.79 129.70 385.23 128.15 383.64 C 128.05 381.93 127.71 380.26 126.90 378.76 C 127.70 377.84 128.51 376.93 129.32 376.03 C 128.92 375.53 128.13 374.52 127.73 374.02 C 128.65 373.99 130.48 373.94 131.40 373.91 C 130.86 370.73 127.42 371.03 125.05 370.11 C 125.50 368.83 125.90 367.53 126.28 366.23 C 124.61 366.11 122.72 366.14 122.60 364.00 C 121.49 364.00 120.38 364.01 119.28 364.02 C 118.12 360.37 114.04 359.30 112.49 356.03 C 111.19 355.99 109.89 355.95 108.58 355.90 C 109.28 354.58 110.13 353.34 111.02 352.15 C 110.28 350.65 109.96 349.02 109.82 347.38 C 109.24 347.04 108.09 346.37 107.51 346.04 C 112.13 344.79 116.89 348.57 121.14 345.93 C 124.02 346.97 125.49 349.68 127.26 351.96 C 132.05 351.70 136.38 354.40 141.18 354.11 C 138.72 349.25 142.56 343.98 139.78 339.02 C 141.11 339.01 142.43 339.00 143.76 338.99 C 144.22 341.00 144.77 342.99 145.24 345.00 C 145.82 345.00 147.00 345.01 147.59 345.01 C 148.02 345.46 148.88 346.37 149.32 346.82 C 152.29 347.74 155.43 348.55 158.50 347.51 C 160.66 348.57 162.54 347.79 163.34 345.55 C 162.01 345.27 161.11 344.53 160.64 343.33 C 163.86 342.33 167.19 341.76 170.57 341.97 C 171.01 341.53 171.90 340.65 172.34 340.21 C 177.32 339.66 177.40 332.79 179.32 329.05 Z"
       id="path53"
       style="fill:#88fcb0;fill-opacity:1" />
    <path
       fill="#9c9a61"
       opacity="1.00"
       d=" M 376.43 543.22 C 380.33 545.24 384.73 545.97 388.91 547.21 C 390.60 549.97 391.65 553.71 395.27 554.47 C 394.53 555.06 393.80 555.66 393.08 556.26 C 391.44 554.97 389.71 553.81 387.94 552.72 C 387.49 553.08 386.60 553.79 386.15 554.15 C 386.53 555.31 386.90 556.47 387.26 557.65 C 387.65 558.09 388.43 558.96 388.82 559.40 C 389.32 562.07 389.92 564.72 390.14 567.44 C 389.25 566.64 388.38 565.83 387.51 565.02 C 386.96 565.00 385.86 564.96 385.31 564.94 C 384.52 566.11 383.77 567.31 383.01 568.51 C 382.99 567.14 382.99 565.78 382.99 564.43 C 381.61 563.09 380.24 561.74 378.85 560.42 C 377.91 561.67 377.06 562.99 376.30 564.36 C 375.26 563.47 374.56 562.31 373.93 561.14 C 374.70 559.75 375.03 558.21 375.06 556.65 C 374.16 555.54 373.31 554.41 372.51 553.25 C 368.25 553.40 368.40 548.87 370.21 546.22 C 372.56 545.91 374.71 544.84 376.43 543.22 Z"
       id="path55"
       style="fill:#88fcb0;fill-opacity:1" />
  </g>
  <g
     id="#74991aff"
     style="fill:#52b3c7;fill-opacity:1">
    <path
       fill="#74991a"
       opacity="1.00"
       d=" M 362.99 270.48 C 366.82 267.28 371.35 262.47 376.99 264.93 C 383.08 262.39 389.55 267.10 395.59 263.94 C 396.09 264.95 396.61 265.96 397.14 266.97 C 402.79 265.56 405.54 271.15 409.83 273.28 C 408.71 275.27 408.13 278.53 411.41 278.58 C 410.28 279.81 408.93 280.78 407.57 281.73 C 401.65 282.26 404.82 289.79 402.82 293.70 C 397.42 293.26 395.71 301.32 390.54 299.55 C 389.21 299.74 387.88 299.92 386.56 300.11 C 385.24 296.74 382.15 294.69 378.86 293.54 C 380.17 289.02 380.06 284.77 376.15 281.57 C 375.66 281.95 374.68 282.69 374.19 283.07 C 371.21 281.87 368.16 280.84 365.11 279.84 C 363.82 276.85 364.20 273.49 362.99 270.48 Z"
       id="path58"
       style="fill:#52b3c7;fill-opacity:1" />
  </g>
  <g
     id="#d0cc59ff"
     style="fill:#93eeff;fill-opacity:1">
    <path
       fill="#d0cc59"
       opacity="1.00"
       d=" M 423.43 264.90 C 423.80 265.25 424.56 265.96 424.93 266.31 C 425.41 265.96 426.35 265.26 426.82 264.91 C 428.95 266.37 431.55 265.98 433.99 266.04 C 433.99 267.83 434.01 269.62 434.08 271.42 C 436.85 270.28 438.66 267.12 441.81 266.96 C 443.81 268.11 445.71 269.45 447.83 270.39 C 448.13 273.66 450.28 277.26 447.83 280.22 C 452.23 283.64 453.56 289.86 458.85 292.22 C 458.30 295.57 461.83 297.25 464.17 294.85 C 465.69 296.29 467.24 297.75 469.22 298.55 C 468.42 300.14 467.60 301.71 466.75 303.27 C 466.49 302.99 465.96 302.41 465.69 302.13 C 463.70 303.62 461.43 301.73 459.26 301.75 C 457.92 303.82 456.74 306.04 456.88 308.59 C 459.77 308.93 459.31 312.41 460.22 314.50 C 461.51 316.00 462.46 317.75 463.27 319.56 C 462.55 319.89 461.12 320.55 460.41 320.88 C 459.87 320.91 458.80 320.98 458.26 321.01 C 456.81 322.84 455.47 324.75 454.02 326.58 C 453.99 329.08 453.99 331.59 454.06 334.10 C 451.08 331.59 447.52 334.15 444.47 335.12 C 443.97 332.69 441.52 332.18 439.45 331.78 C 438.99 332.36 438.06 333.53 437.60 334.11 C 435.64 334.05 433.63 334.05 431.92 332.98 C 429.93 334.01 427.93 335.03 425.98 336.13 C 425.98 335.60 425.99 334.54 426.00 334.01 C 425.35 334.01 424.05 334.00 423.40 334.00 C 422.46 332.99 421.52 332.00 420.59 331.00 C 415.08 332.83 409.85 327.17 404.84 330.10 C 404.43 329.81 403.59 329.22 403.17 328.93 C 400.34 330.13 397.32 330.84 394.27 331.12 C 393.24 332.61 392.24 334.12 391.13 335.55 C 391.08 334.82 390.99 333.37 390.95 332.64 C 389.96 333.55 388.98 334.47 388.00 335.38 C 387.99 333.72 388.00 332.07 388.00 330.41 C 386.60 329.09 385.21 327.75 383.81 326.44 C 394.21 321.93 388.72 309.73 385.91 301.93 C 390.06 302.01 394.64 302.76 398.06 299.81 C 398.04 299.20 398.00 297.98 397.98 297.37 C 398.97 296.92 399.96 296.47 400.95 296.01 C 402.55 296.93 404.37 297.07 406.19 297.14 C 404.68 292.83 405.93 288.72 406.04 284.35 C 409.47 283.03 413.05 281.47 414.44 277.75 C 413.29 276.81 412.03 276.02 410.64 275.50 C 412.51 274.33 414.76 273.37 415.46 271.06 C 418.17 271.46 421.52 270.88 421.19 267.40 C 421.93 266.57 422.68 265.73 423.43 264.90 Z"
       id="path61"
       style="fill:#93eeff;fill-opacity:1" />
    <path
       d="m 360.45,385.99 c 5.06,-1.2 9.19,2.1 14.05,2.12 2.1,2 4.51,3.61 6.8,5.39 -2.79,1.45 -5.48,3.07 -8.18,4.66 -0.13,2.22 -0.72,4.36 -1.28,6.5 -0.45,0.44 -1.36,1.31 -1.81,1.74 -0.03,0.51 -0.1,1.51 -0.13,2.02 -1.88,2.21 -2.94,4.97 -4.82,7.18 -0.02,0.53 -0.06,1.6 -0.07,2.13 -2.79,1.04 -5.61,1.99 -8.43,2.91 -8.63,-2.04 -16.31,5.78 -25.15,5.47 -0.45,-0.53 -1.36,-1.6 -1.81,-2.13 -0.58,0.01 -1.75,0.04 -2.33,0.05 -3.83,-5.58 -10.35,-9.11 -12.4,-16.05 0.51,0 1.52,0.01 2.03,0.01 -0.55,-3.63 1.65,-6.6 2.39,-9.99 1.54,-0.01 3.09,-0.01 4.65,0 0.03,-0.83 0.08,-2.48 0.11,-3.31 2.03,0.71 3.95,1.74 5.51,3.26 2.63,0.1 5.49,-0.43 7.74,1.29 2.81,-4.37 7.27,-7.74 12.55,-8.02 2.67,1.29 5.38,-0.25 8.12,-0.41 0,-0.59 0.01,-1.78 0.01,-2.37 0.82,-0.82 1.64,-1.63 2.45,-2.45"
       id="path63"
       style="opacity:1;fill:#93eeff;fill-opacity:1"
       inkscape:connector-curvature="0"
       sodipodi:nodetypes="cccccccccccccccccccccccc" />
    <path
       fill="#d0cc59"
       opacity="1.00"
       d=" M 230.55 469.06 C 231.08 467.28 232.22 465.91 234.14 465.63 C 233.35 472.09 232.59 478.78 228.72 484.27 C 227.86 483.38 227.00 482.49 226.15 481.61 C 225.24 477.03 223.92 472.10 226.31 467.72 C 227.74 468.12 229.14 468.58 230.55 469.06 Z"
       id="path65"
       style="fill:#93eeff;fill-opacity:1" />
    <path
       fill="#d0cc59"
       opacity="1.00"
       d=" M 364.05 481.77 C 367.80 483.58 371.69 482.18 375.51 481.44 C 376.92 482.13 378.42 482.10 379.71 481.15 C 381.20 482.81 382.77 484.45 384.81 485.45 C 385.36 488.46 386.24 491.43 386.06 494.53 C 385.21 495.34 384.37 496.16 383.55 496.98 C 379.36 496.41 375.09 497.38 372.50 500.95 C 370.39 501.01 368.14 500.71 366.24 501.85 C 360.42 498.04 360.53 491.21 361.00 485.02 C 361.75 485.01 363.23 485.00 363.98 484.99 C 364.00 484.18 364.03 482.57 364.05 481.77 Z"
       id="path67"
       style="fill:#93eeff;fill-opacity:1" />
    <path
       fill="#d0cc59"
       opacity="1.00"
       d=" M 226.65 489.86 C 228.11 490.21 229.53 490.71 230.94 491.22 C 232.70 499.00 230.32 506.68 229.69 514.54 C 229.42 517.39 227.60 519.81 224.49 519.11 C 222.94 520.67 221.18 521.97 219.31 523.12 C 217.22 519.53 216.57 515.51 216.99 511.40 C 217.49 510.95 218.50 510.05 219.01 509.60 C 218.98 505.59 219.04 501.59 218.95 497.59 C 218.04 496.50 217.18 495.38 216.59 494.09 C 218.20 494.01 219.82 493.98 221.44 493.96 C 223.18 492.59 224.99 491.32 226.65 489.86 Z"
       id="path69"
       style="fill:#93eeff;fill-opacity:1" />
  </g>
  <g
     id="#956627ff"
     style="fill:#52b3c7;fill-opacity:1">
    <path
       d="m 253.81,280.72 c 3.31,1 6.74,2.05 9.25,4.59 -0.79,1.01 -1.59,2.02 -2.38,3.03 1.23,0.49 2.17,1.31 2.82,2.45 2.6,0.6 5.22,1.05 7.87,1.38 -1.13,1.09 -2.25,2.17 -3.37,3.27 -0.01,0.56 -0.02,1.68 -0.02,2.24 0.45,0.35 1.36,1.06 1.81,1.41 1.77,-1.37 3.85,-1.07 5.69,-0.05 2.89,-4.21 9.56,-4.02 14.26,-5.18 0.54,0.89 1.08,1.8 1.63,2.7 1.17,0.83 2.32,1.7 3.45,2.6 -0.24,2.48 1.51,4.25 4,4.03 2.96,5.06 0.06,10.31 -1.01,15.34 0.55,0.47 1.65,1.4 2.2,1.86 0.66,6.42 -2,13.88 2.69,19.22 0.42,2.17 -0.98,4.54 -0.81,6.85 -1.01,-1.79 -2.1,-3.61 -3.87,-4.74 -1.94,1.01 -2.42,3.35 -3.41,5.12 -6.18,1.33 -11.66,5.2 -17.75,7.27 -0.51,-0.38 -1.54,-1.14 -2.05,-1.52 -3,1.82 -1.69,6.76 1.17,7.91 0.01,1.69 0.01,3.38 0.02,5.08 4.93,4.16 8.09,9.95 13.18,13.96 -2.18,0.62 -3.71,2.23 -4.62,4.26 -5.13,0.4 -8.53,5.9 -5.55,10.45 -4.72,-2.16 -9.62,0.56 -14.54,-0.25 -0.8,0.78 -1.6,1.56 -2.39,2.34 -1.58,-1.04 -3.16,-2.1 -4.66,-3.24 -0.49,-0.04 -1.48,-0.1 -1.97,-0.13 -1.07,1.11 -2.14,2.21 -3.21,3.32 -0.53,-1.05 -1.05,-2.1 -1.56,-3.15 -2.26,-1.13 -4.78,-1.27 -7.26,-1.19 -0.43,-0.44 -1.3,-1.32 -1.73,-1.77 -5.05,-1.84 -10.46,-1.05 -15.71,-1.17 -0.53,-6.56 1.98,-14.02 8.02,-17.35 0.01,-1.17 0.03,-2.33 0.05,-3.49 -4.95,-3.44 -12.2,-3.6 -14.98,-9.72 -0.01,-2.52 0.08,-5.11 -0.91,-7.47 2.4,-5.34 1.84,-10.99 0.69,-16.52 0.53,-0.47 1.59,-1.39 2.13,-1.85 -0.27,-3.76 0.69,-7.4 1.27,-11.08 0.28,0.62 0.84,1.85 1.13,2.47 1.52,0 3.04,0 4.57,0.01 0.01,-0.7 0.03,-2.09 0.05,-2.78 1.59,-1.29 3.29,-2.42 5.01,-3.53 l 0,-4.54 c -0.63,-0.09 -1.89,-0.25 -2.52,-0.34 0.58,-0.27 1.73,-0.83 2.3,-1.11 1.11,-3.18 2.35,-6.32 4.02,-9.26 0.08,0.64 0.26,1.92 0.35,2.56 0.46,0 1.38,-0.01 1.84,-0.01 0,-1.21 0,-2.42 0.01,-3.62 -0.55,-0.47 -1.64,-1.4 -2.19,-1.86 0.7,-0.61 1.4,-1.21 2.1,-1.8 0.48,0.33 1.44,0.99 1.92,1.33 1.13,-0.76 2.3,-0.85 3.38,0.08 -0.37,0.45 -1.1,1.35 -1.47,1.8 1.62,0.84 3.4,1.16 5.21,1.24 0.03,0.7 0.07,2.12 0.1,2.83 l 1.92,0 c -0.51,-3.88 -0.4,-9.44 5.1,-8.15 0.84,-3.32 -2.41,-6.98 0.18,-9.74 1.96,-2.04 -0.74,-4.4 -1.45,-6.39"
       id="path72"
       style="opacity:1;fill:#52b3c7;fill-opacity:1"
       inkscape:connector-curvature="0"
       sodipodi:nodetypes="cccccccccccccccccccccccccccccccccccccccccccccccccccccccccccccccc" />
    <path
       fill="#956627"
       opacity="1.00"
       d=" M 190.28 327.18 C 192.81 326.43 195.87 325.00 197.56 327.99 C 201.60 328.48 205.43 326.76 209.46 326.95 C 210.30 329.07 211.88 330.66 213.99 331.53 C 214.00 334.00 214.00 336.48 214.00 338.96 C 214.70 338.96 216.09 338.97 216.79 338.98 C 217.76 341.17 218.13 343.53 218.12 345.92 C 217.43 345.95 216.04 346.01 215.35 346.04 C 212.20 347.55 210.80 355.25 206.94 351.84 C 206.99 349.56 207.00 347.27 207.00 344.99 C 206.36 344.99 205.10 345.00 204.46 345.00 C 203.66 345.79 202.85 346.59 202.04 347.39 C 201.53 346.95 200.51 346.09 200.00 345.65 C 199.99 343.95 199.99 342.25 199.98 340.56 C 197.46 339.11 195.53 336.88 193.03 335.44 C 193.01 334.39 193.00 333.35 193.00 332.31 C 191.59 331.75 190.20 331.18 188.80 330.63 C 189.27 329.47 189.78 328.32 190.28 327.18 Z"
       id="path74"
       style="fill:#52b3c7;fill-opacity:1" />
    <path
       fill="#956627"
       opacity="1.00"
       d=" M 312.30 418.19 C 314.09 417.75 315.87 417.25 317.66 416.79 C 318.93 421.04 323.85 422.04 325.51 425.94 C 326.04 425.97 327.11 426.02 327.64 426.05 C 328.08 426.55 328.97 427.54 329.41 428.04 C 332.93 428.25 336.37 427.47 339.80 426.80 C 340.35 429.42 339.87 433.41 342.98 434.51 C 342.99 436.00 342.99 437.50 343.00 439.00 C 342.51 439.00 341.54 439.00 341.05 439.00 C 341.03 438.31 341.01 436.93 341.00 436.24 C 337.60 435.21 334.00 434.38 330.51 435.50 C 327.23 434.90 323.73 434.37 321.18 432.02 C 319.36 432.91 317.34 433.05 315.36 433.09 C 314.91 433.60 314.01 434.61 313.56 435.12 C 312.57 434.08 311.57 433.05 310.58 432.02 C 309.97 431.99 308.76 431.92 308.15 431.89 C 306.67 434.50 305.82 437.43 305.94 440.45 C 308.72 442.63 310.49 445.85 310.14 449.46 C 310.91 450.47 311.68 451.50 312.44 452.53 C 314.86 453.63 315.67 456.13 316.29 458.51 C 317.80 459.34 319.27 460.41 319.30 462.33 C 316.35 461.11 313.42 459.53 310.11 459.96 C 308.93 458.09 307.99 456.07 307.76 453.86 C 307.42 454.14 306.74 454.70 306.40 454.99 C 304.85 453.89 303.30 452.78 301.76 451.67 C 301.76 449.93 302.50 448.67 304.37 448.40 C 300.50 444.94 298.86 440.46 297.78 435.56 C 303.70 434.53 302.71 427.44 308.12 425.69 C 308.06 423.71 307.97 421.71 307.05 419.92 C 308.21 419.95 309.38 419.98 310.55 420.02 C 310.99 419.56 311.87 418.65 312.30 418.19 Z"
       id="path76"
       style="fill:#52b3c7;fill-opacity:1" />
  </g>
  <g
     id="#739962ff"
     style="fill:#ee5f59;fill-opacity:1">
    <path
       fill="#739962"
       opacity="1.00"
       d=" M 365.00 281.94 C 368.28 283.82 371.92 285.29 375.78 285.06 C 377.22 287.82 377.09 290.94 377.02 293.96 C 368.93 294.61 360.87 295.75 352.82 293.85 C 353.10 291.50 353.66 289.20 354.23 286.92 C 357.44 286.57 360.47 288.05 363.62 287.96 C 365.77 286.66 364.78 283.98 365.00 281.94 Z"
       id="path79"
       style="fill:#ee5f59;fill-opacity:1" />
    <path
       fill="#739962"
       opacity="1.00"
       d=" M 539.33 386.30 C 542.19 385.57 544.79 384.13 547.42 382.82 C 546.61 385.40 544.42 387.08 542.62 388.96 C 542.02 388.97 540.81 388.99 540.21 389.00 C 538.99 390.55 537.88 392.18 536.82 393.85 C 539.00 395.20 541.37 396.24 544.00 396.19 C 544.00 397.30 543.99 398.43 544.00 399.55 C 543.56 399.99 542.68 400.87 542.24 401.31 C 541.44 404.13 540.52 406.92 539.77 409.77 C 537.86 410.50 535.94 411.21 534.03 411.93 C 531.51 410.18 528.70 411.27 526.43 412.84 C 526.17 412.62 525.65 412.18 525.39 411.97 C 524.50 412.91 523.61 413.86 522.73 414.81 C 520.94 415.23 519.17 415.73 517.40 416.19 C 516.26 413.60 515.14 411.01 514.17 408.36 C 517.55 405.61 518.29 401.03 521.26 397.95 C 522.37 397.97 523.48 397.99 524.59 398.01 C 525.52 397.00 526.46 396.00 527.41 395.00 C 528.93 394.99 530.45 394.99 531.99 395.00 C 531.99 393.80 531.99 392.62 532.00 391.43 C 534.89 390.41 537.25 388.49 539.33 386.30 Z"
       id="path81"
       style="fill:#ee5f59;fill-opacity:1" />
    <path
       fill="#739962"
       opacity="1.00"
       d=" M 311.87 443.53 C 309.45 440.69 306.40 437.22 309.51 433.64 C 310.12 435.30 311.16 436.73 312.29 438.08 C 312.86 438.06 314.01 438.01 314.58 437.99 C 315.11 436.93 315.66 435.88 316.21 434.84 C 322.61 434.59 328.66 439.98 335.00 437.16 C 336.33 437.54 337.66 437.92 338.99 438.31 C 339.01 438.98 339.03 440.33 339.04 441.00 C 341.02 441.00 343.01 441.00 345.00 441.01 C 345.01 441.65 345.01 442.94 345.01 443.59 C 344.50 444.04 343.49 444.96 342.98 445.42 C 342.99 446.76 343.00 448.11 343.02 449.46 C 344.54 450.35 345.96 451.40 347.33 452.51 C 346.17 453.03 345.02 453.57 343.87 454.11 C 345.02 455.62 346.11 457.18 347.16 458.76 C 340.95 459.31 338.74 465.65 334.90 469.61 C 335.00 471.28 335.40 472.92 336.00 474.49 C 333.02 473.13 331.16 470.30 328.47 468.52 C 326.93 466.33 325.05 464.41 323.06 462.63 C 323.03 462.06 322.97 460.93 322.94 460.36 C 320.12 457.74 317.13 455.11 315.65 451.45 C 312.48 450.15 311.76 446.60 311.87 443.53 Z"
       id="path83"
       style="fill:#ee5f59;fill-opacity:1" />
  </g>
  <g
     id="#68652aff"
     style="fill:#ee5f59;fill-opacity:1">
    <path
       fill="#68652a"
       opacity="1.00"
       d=" M 319.60 295.58 C 324.74 290.63 332.42 291.05 338.81 288.76 C 338.14 291.63 339.33 294.44 340.26 297.11 C 343.37 297.19 346.43 296.62 349.31 295.47 C 357.42 296.92 365.86 298.03 373.99 296.09 C 377.15 295.26 380.05 296.93 382.77 298.29 C 384.79 305.68 387.35 313.03 388.13 320.67 C 385.17 321.92 383.44 324.61 381.67 327.13 C 383.13 328.63 384.63 330.10 386.17 331.52 C 383.41 336.90 387.21 341.34 388.30 346.46 C 390.18 348.78 390.94 351.70 391.18 354.63 C 384.27 358.98 379.32 366.77 378.97 374.94 C 377.74 374.51 376.50 374.11 375.27 373.72 C 374.02 372.49 372.78 371.25 371.56 370.01 C 369.52 370.00 367.50 370.00 365.47 370.00 C 364.74 370.69 364.02 371.39 363.29 372.08 C 361.19 370.87 358.76 370.94 356.42 370.93 C 355.96 371.46 355.04 372.50 354.58 373.02 C 354.04 373.01 352.96 373.00 352.42 373.00 C 350.89 371.41 349.36 369.83 347.82 368.26 C 341.94 371.28 337.51 365.38 334.79 361.01 C 334.09 360.99 332.70 360.95 332.00 360.94 C 331.99 359.73 331.99 358.52 332.00 357.32 C 329.10 356.50 326.24 355.58 323.35 354.75 C 321.36 361.38 317.90 355.23 317.79 351.41 C 315.28 349.74 312.71 347.87 309.58 347.77 C 308.78 346.75 307.81 345.91 306.80 345.14 C 305.80 345.53 304.81 345.91 303.81 346.29 C 304.51 343.43 305.16 340.53 304.99 337.57 C 298.54 331.80 304.86 322.17 300.29 315.55 C 303.59 312.47 299.83 306.18 303.98 304.55 C 303.99 303.54 304.01 302.53 304.02 301.53 C 305.20 300.78 306.36 300.02 307.53 299.25 C 311.59 298.26 315.98 297.83 319.60 295.58 Z"
       id="path86"
       style="fill:#ee5f59;fill-opacity:1" />
  </g>
  <g
     id="#686500ff">
    <path
       fill="#686500"
       opacity="1.00"
       d=" M 219.71 302.19 C 222.29 301.04 225.19 299.17 228.00 300.81 C 230.76 298.99 232.86 300.61 233.81 303.39 C 232.99 305.05 232.26 306.75 231.67 308.51 C 230.42 309.42 229.17 310.34 227.92 311.26 C 227.95 311.81 228.01 312.90 228.04 313.45 C 234.36 315.52 227.47 317.81 226.41 321.12 C 224.74 320.69 223.10 320.03 221.36 320.00 C 218.27 323.82 220.07 329.48 217.31 333.54 C 217.47 330.92 216.12 328.61 213.27 328.75 C 212.73 327.50 212.18 326.25 211.65 325.00 C 209.09 325.00 206.53 325.00 203.97 325.00 L 204.01 324.22 C 206.38 323.92 208.70 323.35 211.02 322.77 C 211.01 322.02 210.98 320.52 210.97 319.76 C 210.11 320.07 209.25 320.38 208.40 320.69 C 207.79 320.43 206.58 319.91 205.98 319.65 C 205.99 319.13 206.02 318.08 206.03 317.56 C 209.51 316.07 211.34 312.71 212.87 309.47 C 211.76 313.93 215.24 316.05 219.26 315.04 C 218.81 313.87 218.35 312.71 217.92 311.54 C 220.81 310.82 221.34 307.91 222.11 305.47 C 220.29 305.21 219.81 303.80 219.71 302.19 Z"
       id="path89"
       style="fill:#88fcb0;fill-opacity:1" />
    <path
       fill="#686500"
       opacity="1.00"
       d=" M 501.17 409.56 C 502.97 411.90 505.36 412.49 507.94 410.84 C 507.96 411.54 507.99 412.92 508.01 413.62 C 509.04 414.11 510.08 414.61 511.12 415.12 C 511.56 414.80 512.44 414.17 512.89 413.85 C 513.75 415.57 514.59 417.30 515.40 419.05 C 517.92 417.90 520.70 417.94 523.41 417.88 C 525.45 416.24 527.77 415.01 530.11 413.86 C 531.58 419.83 525.25 419.37 521.27 418.97 C 519.79 420.90 518.39 422.88 516.85 424.75 C 511.70 424.71 510.35 429.76 507.76 433.12 C 500.40 434.95 502.72 427.19 500.78 422.97 C 499.32 422.98 497.87 422.99 496.42 423.01 C 495.97 422.51 495.06 421.52 494.60 421.02 C 493.90 421.01 492.50 420.99 491.79 420.98 C 493.49 416.96 497.14 414.59 500.97 412.86 C 501.02 412.04 501.12 410.38 501.17 409.56 Z"
       id="path91"
       style="fill:#52b3c7;fill-opacity:1" />
  </g>
  <g
     id="#f59b00ff"
     style="fill:#93eeff;fill-opacity:1">
    <path
       fill="#f59b00"
       opacity="1.00"
       d=" M 470.19 318.21 C 474.35 316.93 478.71 316.42 482.85 315.12 C 485.00 316.73 485.67 319.23 483.88 321.43 C 484.97 320.90 486.07 320.37 487.17 319.83 C 487.85 320.39 488.54 320.95 489.23 321.52 C 488.61 322.00 487.38 322.96 486.77 323.45 C 487.08 326.02 488.57 328.19 490.31 330.04 C 492.74 330.00 495.17 330.00 497.61 329.97 C 499.47 331.78 501.05 333.84 502.30 336.12 C 501.93 336.50 501.19 337.26 500.82 337.64 C 502.29 338.05 503.49 338.99 504.60 340.02 C 506.45 340.04 508.34 340.01 510.00 339.09 C 512.30 340.36 514.96 339.99 517.48 340.00 C 518.95 338.38 520.71 337.07 522.59 335.97 C 524.14 337.74 525.76 339.54 527.98 340.49 C 528.00 341.18 528.03 342.57 528.05 343.27 C 529.68 342.58 532.18 342.29 532.15 340.00 C 537.16 342.12 543.26 340.07 548.22 343.10 C 548.58 342.78 549.29 342.15 549.65 341.84 C 550.07 343.28 550.97 344.47 551.95 345.59 C 551.96 346.56 551.98 347.54 552.00 348.52 C 550.51 349.10 549.21 350.01 548.63 351.56 C 552.65 351.47 549.73 355.16 549.85 357.42 C 553.78 360.01 554.57 364.64 554.02 369.01 C 551.39 369.00 548.78 369.00 546.16 368.95 C 545.29 370.50 544.46 372.07 543.68 373.67 C 542.76 374.17 541.85 374.68 540.95 375.21 C 540.99 377.74 541.00 380.28 541.05 382.82 C 538.34 384.25 535.53 385.59 533.50 387.95 C 532.95 387.97 531.87 387.99 531.32 388.00 C 528.69 392.94 522.75 394.15 518.34 396.95 C 518.10 396.67 517.64 396.11 517.41 395.83 C 516.98 396.37 516.12 397.45 515.69 397.99 C 516.38 398.00 517.76 398.01 518.45 398.02 C 517.63 398.82 516.81 399.62 515.99 400.42 C 515.60 400.04 514.83 399.28 514.45 398.90 C 513.66 399.75 512.87 400.60 512.09 401.45 C 512.96 405.18 509.74 406.79 506.49 406.06 C 505.69 405.25 504.89 404.44 504.09 403.65 C 501.79 405.59 499.28 407.25 496.69 408.77 C 494.84 407.51 492.87 408.03 491.55 409.77 C 488.13 411.71 483.86 410.68 481.61 407.50 C 483.49 407.36 484.29 406.27 484.13 404.50 C 482.17 403.97 480.96 402.55 480.40 400.65 C 479.39 401.41 478.40 402.18 477.43 402.98 C 477.08 402.64 476.39 401.97 476.04 401.64 C 473.34 404.75 469.46 406.19 465.96 408.16 C 465.96 408.94 465.96 410.50 465.96 411.27 C 464.52 410.96 463.13 410.54 461.80 409.93 C 461.30 410.29 460.31 411.01 459.81 411.38 C 460.87 412.39 461.93 413.41 463.00 414.42 C 463.00 415.60 463.00 416.78 463.00 417.97 C 462.34 417.98 461.02 417.99 460.35 418.00 C 459.90 418.54 459.01 419.61 458.56 420.15 C 458.23 419.79 457.56 419.05 457.23 418.69 C 455.75 420.52 455.45 423.04 457.04 424.91 C 453.70 425.06 450.69 426.87 448.33 429.12 C 441.90 428.64 446.39 421.15 448.86 418.42 C 448.87 416.18 449.31 414.01 450.24 411.97 C 453.07 411.99 455.90 412.00 458.73 412.03 C 460.71 409.26 459.18 406.24 458.85 403.25 C 456.72 401.93 454.74 400.39 452.97 398.61 C 452.98 397.48 452.99 396.35 453.01 395.22 C 445.62 396.26 452.35 385.16 445.32 385.83 C 444.87 385.33 443.97 384.34 443.53 383.84 C 441.89 383.93 440.29 384.26 438.87 385.08 C 437.36 384.20 435.88 383.30 434.51 382.24 C 430.54 379.93 426.43 381.99 422.28 382.07 C 419.82 387.00 414.25 388.97 409.43 390.83 C 408.91 390.89 407.87 391.00 407.35 391.06 C 406.91 391.55 406.02 392.52 405.58 393.01 C 405.04 393.01 403.96 393.01 403.42 393.01 C 402.96 392.51 402.05 391.50 401.59 391.00 C 395.47 390.50 389.50 391.55 383.47 392.03 C 382.22 388.91 378.23 388.61 375.75 386.75 C 376.61 383.51 377.48 380.27 378.24 377.00 C 378.92 377.00 380.27 376.99 380.95 376.98 C 380.81 374.08 381.16 371.20 382.24 368.49 C 385.34 363.89 387.31 358.18 392.83 355.78 C 396.31 348.84 388.92 343.63 387.82 337.15 C 390.82 337.21 394.43 336.40 395.45 333.16 C 397.88 333.03 400.17 332.19 402.43 331.34 C 403.94 332.22 405.59 331.99 407.01 331.03 C 410.30 332.71 413.92 333.34 417.59 333.01 C 418.53 334.01 419.47 335.00 420.42 336.01 C 421.47 336.00 422.52 335.99 423.58 335.99 C 424.04 336.49 424.96 337.50 425.42 338.01 C 425.96 338.01 427.04 338.02 427.59 338.02 C 428.05 337.49 428.97 336.45 429.43 335.92 C 433.23 335.05 439.48 339.84 440.37 333.73 C 441.57 339.17 447.19 336.22 450.73 335.18 C 451.42 335.86 452.12 336.55 452.83 337.23 C 453.88 336.67 454.93 336.12 456.00 335.58 C 456.00 331.35 455.08 326.01 459.28 323.33 C 462.53 320.16 470.42 324.77 470.19 318.21 Z"
       id="path94"
       style="fill:#88fcb0;fill-opacity:1" />
    <path
       fill="#f59b00"
       opacity="1.00"
       d=" M 219.48 391.00 C 227.31 391.46 235.96 389.16 242.68 394.39 C 245.63 395.45 242.55 398.45 243.10 400.49 C 244.44 402.09 245.98 403.51 247.44 404.99 C 248.76 405.00 250.08 405.03 251.40 405.08 C 250.29 407.58 246.99 408.27 246.46 411.23 C 244.40 410.33 242.49 409.15 240.85 407.60 C 238.86 409.32 237.49 411.54 236.59 414.00 C 236.05 414.00 234.96 414.00 234.42 414.00 C 234.10 412.70 233.29 411.90 232.00 411.59 C 231.99 410.39 231.99 409.20 231.99 408.01 C 230.76 407.99 229.53 407.97 228.30 407.95 C 226.96 409.53 225.81 411.26 224.70 413.02 C 221.55 413.00 218.40 412.98 215.25 413.03 C 213.76 410.23 213.93 407.06 213.98 404.00 C 212.49 403.99 211.00 403.99 209.52 404.01 C 208.60 404.84 207.67 405.67 206.72 406.47 C 206.69 402.45 210.77 401.03 212.18 398.01 C 213.21 398.47 214.26 398.91 215.32 399.35 C 214.91 398.27 214.49 397.20 214.06 396.14 C 216.34 395.00 218.64 393.58 219.48 391.00 Z"
       id="path96"
       style="fill:#93eeff;fill-opacity:1" />
    <path
       fill="#f59b00"
       opacity="1.00"
       d=" M 425.00 486.56 C 426.09 487.62 427.17 488.70 428.23 489.80 C 425.78 493.06 425.78 497.20 424.91 501.03 C 422.02 499.38 418.69 499.07 415.52 498.33 C 412.08 496.71 409.04 502.04 405.86 498.91 C 404.03 500.60 401.83 501.85 399.35 502.24 C 398.16 503.34 396.98 504.44 395.78 505.53 C 395.79 507.36 397.37 508.28 398.39 509.58 C 396.84 509.94 395.31 510.39 393.87 511.07 C 391.99 509.86 390.07 508.71 388.06 507.74 C 388.50 506.73 388.93 505.72 389.35 504.71 C 387.41 505.19 385.64 506.14 383.95 507.17 C 384.02 510.64 384.00 514.12 383.99 517.60 C 384.50 518.05 385.51 518.94 386.02 519.39 C 386.00 520.00 385.95 521.22 385.93 521.83 C 387.07 522.42 388.22 523.01 389.38 523.58 C 388.59 524.62 387.76 525.62 386.93 526.63 C 386.95 528.19 387.18 529.75 388.08 531.10 C 386.84 531.04 385.61 531.00 384.38 530.96 C 383.93 531.48 383.04 532.51 382.59 533.02 C 383.02 533.46 383.87 534.34 384.30 534.78 C 387.07 535.50 389.79 536.41 392.55 537.24 C 393.43 539.54 396.59 539.46 397.46 541.79 C 401.16 541.52 401.42 545.75 402.19 548.37 C 400.19 548.11 399.06 546.65 398.50 544.86 C 396.61 545.01 394.78 545.51 393.00 546.13 C 392.99 544.74 392.99 543.37 392.99 542.00 C 391.79 541.99 390.60 542.00 389.41 542.01 C 388.96 541.51 388.05 540.50 387.59 539.99 C 380.87 539.82 374.03 540.70 367.47 538.80 C 366.67 537.53 365.78 536.32 364.86 535.15 C 365.89 534.62 366.94 534.11 367.99 533.61 C 368.01 533.02 368.04 531.83 368.06 531.23 C 366.67 530.41 365.28 529.60 363.91 528.76 C 363.43 529.15 362.46 529.91 361.97 530.29 C 362.00 529.54 362.04 528.04 362.06 527.29 C 360.83 526.32 359.58 525.37 358.26 524.54 C 357.91 523.46 357.57 522.38 357.22 521.32 C 361.14 517.58 362.98 512.23 366.92 508.50 C 365.47 503.19 370.40 502.17 374.53 502.99 C 375.92 496.60 384.83 501.51 386.54 495.79 C 387.39 496.23 388.24 496.68 389.09 497.15 C 394.07 492.80 401.44 492.90 407.66 492.04 C 407.83 492.51 408.17 493.47 408.34 493.94 C 413.18 493.84 417.97 496.20 422.65 493.82 C 423.42 493.06 424.21 492.31 425.00 491.58 C 425.00 489.90 424.99 488.22 425.00 486.56 Z"
       id="path98"
       style="fill:#93eeff;fill-opacity:1" />
  </g>
  <g
     id="#956600ff"
     style="fill:#ee5f59;fill-opacity:1">
    <path
       fill="#956600"
       opacity="1.00"
       d=" M 684.82 333.99 C 687.62 334.21 690.38 334.71 693.15 335.15 C 692.82 335.59 692.18 336.47 691.85 336.91 C 692.48 336.99 693.73 337.15 694.35 337.23 C 695.68 338.00 697.04 338.75 698.41 339.48 C 700.57 342.28 703.41 345.77 707.41 344.69 C 711.38 346.23 715.31 347.79 717.20 351.95 C 713.32 353.18 709.24 353.14 705.22 352.97 C 704.26 354.28 703.31 355.60 702.40 356.95 C 696.51 356.15 689.02 358.28 688.46 365.23 C 687.61 364.79 686.78 364.36 685.96 363.94 C 684.72 366.22 683.89 368.68 683.85 371.30 C 685.14 372.74 686.42 374.20 687.65 375.71 C 682.97 377.06 677.42 376.74 674.23 381.11 C 676.77 383.38 680.01 384.33 683.40 384.19 C 688.57 387.19 693.81 390.90 695.13 397.15 C 700.63 395.39 706.31 397.77 711.94 397.00 C 710.71 404.69 715.38 411.26 720.00 416.87 L 720.00 485.41 C 719.54 484.99 718.62 484.14 718.16 483.72 C 714.47 485.07 710.69 486.09 706.94 487.23 C 698.55 482.90 696.66 472.80 693.61 464.73 C 695.12 465.21 696.63 465.73 698.14 466.23 C 698.26 458.51 694.09 450.77 697.04 443.18 C 697.60 442.99 698.71 442.62 699.27 442.44 C 700.51 442.69 701.76 442.93 703.03 443.18 C 703.00 442.57 702.96 441.36 702.94 440.75 C 702.01 439.79 701.11 438.83 700.22 437.87 C 697.87 438.19 695.55 438.78 693.19 438.87 C 685.76 435.36 679.94 429.24 672.66 425.47 C 667.96 422.46 664.71 416.53 659.20 415.52 C 657.02 410.44 655.89 405.05 654.87 399.65 C 654.18 400.35 653.50 401.05 652.82 401.77 C 651.67 401.27 650.52 400.78 649.37 400.31 C 647.76 398.33 646.00 396.50 644.24 394.68 C 643.66 395.05 642.52 395.79 641.95 396.16 C 641.88 386.87 645.41 377.62 642.92 368.38 C 644.22 369.30 645.51 370.22 646.82 371.16 C 648.55 370.75 650.28 370.32 652.03 369.91 C 652.01 367.48 652.01 365.04 652.04 362.62 C 653.23 361.19 654.42 359.76 655.60 358.32 C 654.55 358.17 652.47 357.88 651.42 357.73 C 656.22 354.53 661.05 351.37 665.61 347.84 C 666.56 344.86 667.91 342.03 669.29 339.23 C 671.13 338.87 672.98 338.47 674.82 338.05 C 676.08 338.45 677.36 338.86 678.65 339.26 C 679.22 338.33 679.81 337.42 680.40 336.50 C 681.90 335.72 683.37 334.87 684.82 333.99 Z"
       id="path101"
       style="fill:#ee5f59;fill-opacity:1" />
  </g>
  <g
     id="#a6cc97ff"
     style="fill:#88fcb0;fill-opacity:1">
    <path
       fill="#a6cc97"
       opacity="1.00"
       d=" M 295.70 348.89 C 296.52 347.75 297.25 346.50 298.38 345.62 C 298.90 348.03 301.04 349.15 302.99 350.25 C 304.38 348.90 307.29 346.23 307.32 350.00 C 308.34 350.00 309.37 350.02 310.40 350.04 C 312.01 351.68 314.12 352.62 316.24 353.41 C 315.41 354.14 314.57 354.87 313.74 355.60 C 316.20 356.20 317.78 358.26 319.45 359.99 C 320.50 360.00 321.55 360.01 322.61 360.02 C 323.07 359.48 323.99 358.38 324.45 357.83 C 326.39 357.93 328.24 358.52 330.04 359.24 C 330.02 360.49 330.00 361.74 329.99 362.99 C 330.67 362.98 332.04 362.96 332.72 362.95 C 334.76 365.29 335.94 368.77 339.33 369.47 C 337.23 371.11 335.06 372.67 332.95 374.30 C 332.97 375.37 332.98 376.44 333.00 377.51 C 331.12 378.28 329.68 379.71 328.38 381.23 C 327.16 380.85 325.96 380.40 324.79 379.92 C 324.34 380.26 323.45 380.94 323.00 381.29 C 323.00 380.62 323.00 379.28 323.00 378.61 C 322.69 378.92 322.06 379.53 321.75 379.84 C 319.57 378.54 316.79 378.64 314.75 380.19 C 313.33 378.81 311.92 377.42 310.54 376.00 C 308.12 376.00 305.70 376.00 303.29 375.95 C 302.31 377.16 301.36 378.40 300.63 379.78 C 298.75 380.89 296.61 381.10 294.48 381.09 C 288.63 375.56 283.50 369.41 278.03 363.57 C 277.97 361.44 278.29 359.16 277.15 357.25 C 278.24 356.21 279.33 355.17 280.42 354.13 C 286.31 354.62 290.06 348.83 295.70 348.89 Z"
       id="path104"
       style="fill:#88fcb0;fill-opacity:1" />
  </g>
  <g
     id="#64cb97ff"
     style="fill:#52b3c7;fill-opacity:1">
    <path
       d="m 338.43,372.21 c 2.98,-1.13 6.15,-1.39 9.31,-1.27 0.83,1.36 1.66,2.73 2.51,4.09 2.11,-0.02 4.22,-0.03 6.34,-0.03 0.46,-0.5 1.36,-1.5 1.82,-2 0.7,-0.01 2.11,-0.02 2.82,-0.02 -0.39,0.6 -1.17,1.79 -1.56,2.39 3.32,-0.99 6.14,-3.54 9.76,-3.49 1.74,2.2 4.12,3.65 6.74,4.58 -0.82,3.17 -1.66,6.35 -2.42,9.54 -0.58,0 -1.75,0.01 -2.34,0.01 -0.45,-0.5 -1.36,-1.51 -1.82,-2.02 -3.01,-0.01 -6.01,0 -9.01,0.05 -1.82,1.51 -4.27,2.54 -5.07,4.96 -6.35,-0.41 -14.7,0.73 -17.8,7.03 -2.05,-0.01 -4.09,-0.04 -6.13,-0.07 -3.74,-2.88 -9.39,-6.03 -8.54,-11.57 1.42,-2.26 4.31,-1.16 6.52,-1.41 3.71,-2.97 5.9,-7.17 8.87,-10.77"
       id="path107"
       style="opacity:1;fill:#52b3c7;fill-opacity:1"
       inkscape:connector-curvature="0"
       sodipodi:nodetypes="ccccccccccccccccccc" />
  </g>
  <g
     id="#c36724ff"
     style="fill:#93eeff;fill-opacity:1">
    <path
       fill="#c36724"
       opacity="1.00"
       d=" M 422.70 385.17 C 424.95 385.05 426.97 384.10 428.92 383.06 C 430.18 383.47 431.44 383.87 432.72 384.26 C 433.63 385.18 434.54 386.11 435.46 387.05 C 437.55 387.06 439.68 386.99 441.70 386.35 C 443.51 387.23 445.30 388.17 447.05 389.18 C 447.01 391.02 446.98 392.87 446.93 394.73 C 448.22 395.73 449.56 396.69 450.98 397.54 C 450.98 398.87 450.99 400.22 451.00 401.57 C 453.15 402.46 455.22 403.58 456.90 405.22 C 456.91 406.90 457.20 408.57 458.01 410.07 C 455.06 409.99 452.10 409.99 449.15 409.96 C 447.55 412.20 446.67 414.79 446.91 417.57 C 446.50 418.01 445.68 418.89 445.27 419.33 C 444.68 421.91 443.47 424.27 442.16 426.55 C 441.07 419.95 441.29 413.13 439.35 406.70 C 436.53 401.89 433.09 397.48 430.22 392.71 C 430.58 391.70 430.93 390.69 431.27 389.68 C 430.82 390.00 429.92 390.64 429.46 390.95 C 427.29 388.93 425.10 386.93 422.70 385.17 Z"
       id="path110"
       style="fill:#93eeff;fill-opacity:1" />
    <path
       d="m 254.8,407.05 c 4.79,-1.72 10.14,-1.09 15.15,-2.19 0.01,0.7 0.04,2.11 0.06,2.82 3.53,4.14 8.87,5.7 14.07,6.47 -0.71,1.22 -1.4,2.47 -2.1,3.71 0.71,2.05 1.31,4.13 1.97,6.2 -0.98,0.72 -2,0.56 -2.99,-0.02 -2.51,1.29 -5.14,2.29 -7.83,3.16 -0.08,-0.67 -0.24,-2 -0.32,-2.67 -1.72,1.91 -3.23,3.99 -4.77,6.04 l -0.06,2.94 c 0.73,0.74 1.45,1.49 2.18,2.25 -2.8,5.02 -3.88,12.81 1.66,16.4 3.38,1.99 5.58,5.41 9,7.34 0.28,5.37 4.15,9.73 4.33,15.12 4.27,4.09 7.64,9.12 12.63,12.44 3.26,-1.79 7.1,-0.94 10.65,-0.97 -0.77,1.72 -2.03,3.12 -3.38,4.4 -0.03,0.58 -0.1,1.74 -0.13,2.32 4.77,2.71 9.78,4.95 14.65,7.49 1.52,3.5 5.95,3.56 9.05,4.97 1.63,3.23 3.69,6.22 5.37,9.43 -0.4,0.37 -1.18,1.11 -1.57,1.47 -1.21,-6.25 -8.42,-6.79 -12.55,-10.48 -2.62,2.54 -5.22,5.12 -7.78,7.72 -0.03,2.06 -0.11,4.16 -1.31,5.93 2.15,1.5 4.23,3.11 6.11,4.95 0.06,1.83 0.51,3.61 1.17,5.31 -2.77,0.92 -5.11,2.65 -7.08,4.78 0,1.37 0.01,2.75 0.01,4.14 -2.67,2.31 -4.48,5.37 -6.84,7.96 -0.55,-0.46 -1.65,-1.39 -2.19,-1.85 0.03,-0.51 0.09,-1.54 0.12,-2.05 1.92,-1.97 3.19,-4.49 3.05,-7.3 1.35,-0.55 2.69,-1.12 4.05,-1.66 -1.51,-7.5 -4.7,-14.5 -6.53,-21.91 -1.17,0.36 -2.33,0.76 -3.48,1.19 -0.06,-2.23 -2.63,-2.4 -4.14,-3.3 0.95,-4.03 -0.84,-7.93 -5.52,-6.69 -1.54,-2.88 -4.81,-4.27 -6.29,-7.26 0.37,-0.98 0.73,-1.97 1.08,-2.95 -0.5,0.34 -1.49,1.01 -1.99,1.34 -0.35,-0.44 -1.06,-1.32 -1.42,-1.77 -2.88,0.41 -5.81,-0.34 -8.46,-1.43 -3.41,-4.29 -6.41,-9.26 -11.09,-12.28 -2.91,-6.41 -10.09,-9.47 -12.7,-16.24 -1.03,-4.88 -1.74,-9.92 -2.82,-14.83 -3.73,-2.9 -7.99,-5.13 -11.34,-8.48 -1.97,-0.01 -3.95,0 -5.92,0.02 -3.88,2.36 -6.66,6.9 -11.55,7.21 -0.01,-2.02 0,-4.02 0.01,-6.03 -1.6,-0.51 -3.2,-1.02 -4.82,-1.44 -2.07,-2.94 -0.03,-6.18 -0.05,-9.37 -0.58,-0.45 -1.72,-1.36 -2.3,-1.81 l 2.55,-2.55 c 0.7,-0.03 2.11,-0.09 2.81,-0.12 -0.58,-3.3 -1.43,-6.57 -1.28,-9.95 3.03,-0.18 6.05,0.16 8.98,0.97 3.42,-0.63 5.07,-3.93 6.95,-6.47 0.06,0.76 0.17,2.28 0.23,3.04 1.68,1.63 3.02,3.53 4.23,5.52 0.56,-0.01 1.69,-0.02 2.26,-0.03 0.97,-2.17 1.88,-4.49 3.84,-5.97 2.71,0.08 5.28,1.16 7.81,2.05 0.44,-0.35 1.33,-1.05 1.78,-1.4 C 250,411.46 250,410.25 250,409.04 l 3,-0.08 0,-3.2 c 0.45,0.32 1.35,0.97 1.8,1.29"
       id="path112"
       style="opacity:1;fill:#52b3c7;fill-opacity:1"
       inkscape:connector-curvature="0"
       sodipodi:nodetypes="ccccccccccccccccccccccccccccccccccccccccccccccccccccccccccccccccccccc" />
  </g>
  <g
     id="#1e689eff"
     style="fill:#ee5f59;fill-opacity:1">
    <path
       fill="#1e689e"
       opacity="1.00"
       d=" M 414.53 391.79 C 416.62 389.96 418.87 388.32 421.11 386.68 C 423.69 389.17 426.26 391.68 428.72 394.30 C 430.01 400.41 435.98 404.16 437.80 410.07 C 439.13 415.96 439.14 422.00 440.13 427.94 C 440.76 427.97 442.02 428.01 442.65 428.04 C 443.59 429.07 444.53 430.10 445.47 431.15 C 448.13 431.25 450.45 429.95 452.47 428.33 C 453.67 427.90 454.88 427.45 456.08 427.00 C 457.36 429.33 457.00 432.03 457.02 434.59 C 455.67 435.85 454.34 437.13 453.00 438.39 C 452.99 436.52 452.98 434.65 452.97 432.79 C 447.69 432.24 449.26 438.16 448.59 441.48 C 449.18 445.01 449.05 448.61 448.97 452.18 C 442.05 451.77 435.31 445.59 428.41 449.34 C 424.19 452.07 419.38 453.84 415.40 456.93 C 405.89 457.36 396.56 455.19 387.00 456.00 C 387.00 453.52 387.00 451.05 387.00 448.58 C 386.22 449.34 385.45 450.11 384.69 450.88 C 383.73 450.43 382.77 450.00 381.82 449.57 C 382.41 447.28 384.04 444.41 381.36 442.78 C 377.45 445.83 373.07 442.16 369.96 439.73 C 369.97 438.29 369.99 436.86 370.00 435.43 C 362.87 434.27 363.77 425.91 358.82 422.31 C 363.81 421.05 367.82 418.51 369.62 413.51 C 370.27 411.35 371.26 409.30 372.65 407.52 C 373.83 404.38 375.10 401.29 376.22 398.14 C 377.71 397.65 379.20 397.17 380.71 396.74 C 381.61 395.85 382.51 394.96 383.42 394.08 C 388.00 394.10 392.42 392.38 397.04 392.97 C 400.11 392.53 402.59 396.12 405.61 394.64 C 408.45 393.32 411.37 392.07 414.53 391.79 Z"
       id="path115"
       style="fill:#ee5f59;fill-opacity:1" />
  </g>
  <g
     id="#63689dff"
     style="fill:#88fcb0;fill-opacity:1">
    <path
       fill="#63689d"
       opacity="1.00"
       d=" M 311.07 410.99 C 311.81 411.00 313.28 411.01 314.01 411.01 C 314.01 411.65 314.00 412.92 314.00 413.56 C 312.51 414.99 311.05 416.45 309.62 417.94 C 309.05 417.96 307.91 418.01 307.34 418.04 C 306.51 418.94 305.69 419.84 304.87 420.76 C 308.12 424.35 303.10 426.06 301.01 428.30 C 300.98 429.05 300.93 430.55 300.91 431.29 C 299.74 430.79 298.58 430.28 297.43 429.77 C 296.17 425.15 292.97 427.89 291.03 430.37 C 290.51 429.94 289.49 429.07 288.98 428.64 C 289.00 427.48 289.03 426.33 289.05 425.19 C 288.08 424.66 287.12 424.14 286.15 423.63 C 285.93 422.58 285.72 421.55 285.49 420.51 C 286.05 418.93 285.97 417.35 285.02 415.95 C 289.37 413.55 296.84 418.94 299.49 412.86 C 301.15 412.96 302.77 413.32 304.25 414.09 C 305.14 413.29 306.03 412.50 306.92 411.72 C 308.16 412.72 309.44 413.67 310.85 414.43 C 310.91 413.57 311.02 411.85 311.07 410.99 Z"
       id="path118"
       style="fill:#88fcb0;fill-opacity:1" />
  </g>
  <g
     id="#946766ff"
     style="fill:#52b3c7;fill-opacity:1">
    <path
       fill="#946766"
       opacity="1.00"
       d=" M 343.30 425.14 C 346.87 425.40 349.53 422.62 352.82 421.95 C 354.75 423.08 356.63 424.33 358.64 425.34 C 361.07 428.47 361.90 432.39 363.26 436.04 C 364.43 436.01 365.61 435.98 366.79 435.95 C 367.47 437.79 367.98 439.69 368.18 441.65 C 369.22 442.72 370.28 443.78 371.35 444.83 C 374.32 445.36 377.26 446.05 380.29 446.18 C 379.81 447.18 379.32 448.18 378.83 449.19 C 379.68 450.13 380.53 451.08 381.39 452.04 C 380.59 452.84 379.79 453.65 378.99 454.47 C 377.74 460.06 380.64 464.58 384.08 468.62 C 383.57 469.05 382.55 469.90 382.04 470.32 C 382.02 470.90 381.98 472.06 381.96 472.64 C 381.47 473.08 380.49 473.97 380.00 474.41 C 379.99 475.92 379.99 477.43 380.00 478.95 C 377.56 478.95 375.02 478.79 372.82 480.01 C 372.41 479.76 371.59 479.24 371.18 478.99 C 369.10 480.13 366.71 480.05 364.41 480.04 C 363.37 481.11 362.33 482.18 361.30 483.25 C 360.74 482.30 360.19 481.36 359.65 480.42 C 357.81 479.51 356.40 478.04 355.51 476.20 C 353.84 476.01 352.20 475.62 350.69 474.90 C 349.16 476.34 347.67 477.81 346.18 479.28 C 345.94 480.36 345.70 481.45 345.45 482.53 C 345.62 483.30 345.96 484.83 346.13 485.60 C 343.76 482.19 340.59 479.49 336.97 477.49 C 338.22 475.25 338.19 472.68 336.93 470.45 C 339.74 469.09 339.63 464.48 344.01 465.86 C 343.99 464.64 343.98 463.42 343.96 462.21 C 345.66 461.66 347.37 461.13 349.09 460.66 C 349.05 458.69 349.01 456.69 348.03 454.93 C 348.52 454.94 349.50 454.95 350.00 454.96 C 350.00 453.75 350.02 452.55 350.04 451.35 C 348.29 449.09 342.56 447.52 346.75 444.56 C 347.23 442.89 347.71 441.23 348.16 439.56 C 346.50 438.92 345.09 437.91 344.59 436.14 C 345.44 436.08 347.15 435.98 348.00 435.93 C 348.00 435.20 348.00 433.75 348.00 433.02 C 346.70 433.01 345.40 432.99 344.10 432.99 C 344.00 431.08 344.51 428.59 341.81 428.56 C 342.30 427.41 342.80 426.27 343.30 425.14 Z"
       id="path121"
       style="fill:#52b3c7;fill-opacity:1" />
    <path
       fill="#946766"
       opacity="1.00"
       d=" M 263.01 541.83 C 265.86 543.49 269.06 543.12 271.63 541.14 C 273.03 542.30 274.61 543.34 275.55 544.96 C 283.38 546.03 290.56 543.58 298.03 541.89 C 298.02 542.56 298.00 543.89 297.99 544.55 C 297.08 545.45 296.17 546.36 295.28 547.28 C 294.64 550.01 293.33 552.51 291.97 554.93 C 292.65 556.58 293.27 558.27 293.93 559.94 C 293.48 561.30 293.06 562.68 292.68 564.08 C 291.00 563.46 289.27 563.01 287.49 562.81 C 283.70 555.79 273.92 556.11 269.64 549.17 C 267.18 549.16 264.97 548.16 262.95 546.86 C 262.97 545.18 262.99 543.50 263.01 541.83 Z"
       id="path123"
       style="fill:#52b3c7;fill-opacity:1" />
  </g>
  <g
     id="#c79b9aff"
     style="fill:#52b3c7;fill-opacity:1">
    <path
       d="m 29.8,441.48 c 1.86,-5 -0.01,-15.46 8.17,-13.54 0.01,0.67 0.02,2 0.03,2.67 0.78,0.7 1.57,1.42 2.35,2.13 5.65,2.99 14.26,1.17 16.97,8.38 -3.01,4.61 -9.31,5.48 -11.28,10.88 -1.13,3.46 -5.47,7.04 -3.18,10.74 -0.78,0.74 -1.56,1.49 -2.33,2.24 -2.17,0.27 -5.07,-0.88 -6.44,1.4 -0.67,3.44 0.55,6.77 1.06,10.13 -4.84,1.9 -6.7,9.36 -3.12,13.33 -2.9,2.33 -6.56,3.58 -8.98,6.52 -0.09,1.65 0.31,3.62 -1.44,4.58 -5.33,0.87 -9.36,-3.92 -14.61,-4.2 0,-0.56 0.01,-1.67 0.01,-2.23 2.58,-2.02 3.87,-5.01 4.77,-8.06 0.11,-0.48 0.33,-1.43 0.44,-1.91 0.87,-2.77 1.98,-5.52 4.09,-7.59 -0.41,-0.47 -1.24,-1.41 -1.65,-1.87 -3.72,1 -4.92,-2.43 -5.81,-5.28 0.64,-0.74 1.28,-1.47 1.92,-2.19 0.35,-1.46 0.87,-2.87 1.44,-4.25 8.32,-4.92 11.73,-14.63 17.59,-21.88"
       id="path126"
       style="opacity:1;fill:#52b3c7;fill-opacity:1"
       inkscape:connector-curvature="0"
       sodipodi:nodetypes="ccccccccccccccccccccccc" />
  </g>
  <g
     id="#90332eff"
     style="fill:#88fcb0;fill-opacity:1">
    <path
       fill="#90332e"
       opacity="1.00"
       d=" M 416.40 458.92 C 421.38 455.60 426.61 452.49 432.09 450.06 C 437.88 451.15 443.36 453.90 449.29 454.16 C 448.92 455.54 448.47 456.90 447.95 458.24 C 447.53 457.90 446.69 457.24 446.27 456.90 C 444.85 458.78 443.51 460.71 442.05 462.55 C 442.01 464.89 441.99 467.23 441.98 469.57 C 440.66 471.10 438.45 472.21 438.00 474.28 C 440.70 475.78 442.36 478.38 444.14 480.81 C 442.68 481.12 441.24 481.49 439.82 481.95 C 438.57 481.28 437.31 480.63 436.07 479.96 C 432.91 481.60 429.38 482.47 426.49 484.62 C 422.95 484.79 422.57 488.01 422.98 490.87 C 418.31 495.12 412.33 491.81 407.69 489.37 C 401.15 490.61 394.66 492.10 388.09 493.19 C 388.31 489.44 387.50 485.77 385.79 482.44 C 384.44 481.58 383.14 480.65 381.84 479.74 C 381.58 475.83 383.42 472.28 385.93 469.41 C 385.94 468.45 385.96 467.50 385.98 466.55 C 384.17 464.65 382.62 462.53 381.01 460.47 C 380.83 457.89 381.09 455.31 382.23 452.96 C 382.98 452.97 384.48 453.00 385.23 453.01 C 384.84 453.53 384.07 454.56 383.69 455.07 C 384.58 456.05 385.48 457.02 386.39 458.00 C 396.47 457.21 406.32 459.73 416.40 458.92 M 427.25 480.14 C 423.60 482.48 430.48 482.25 427.25 480.14 Z"
       id="path129"
       style="fill:#88fcb0;fill-opacity:1" />
  </g>
</svg>
