<?xml version="1.0" encoding="UTF-8" standalone="no"?>
<svg
   xmlns:dc="http://purl.org/dc/elements/1.1/"
   xmlns:cc="http://creativecommons.org/ns#"
   xmlns:rdf="http://www.w3.org/1999/02/22-rdf-syntax-ns#"
   xmlns:svg="http://www.w3.org/2000/svg"
   xmlns="http://www.w3.org/2000/svg"
   id="svg2"
   version="1.1"
   viewBox="0 0 705.18695 704.52246"
   height="704.52246pt"
   width="705.18695pt">
  <metadata
     id="metadata106">
    <rdf:RDF>
      <cc:Work
         rdf:about="">
        <dc:format>image/svg+xml</dc:format>
        <dc:type
           rdf:resource="http://purl.org/dc/dcmitype/StillImage" />
        <dc:title></dc:title>
      </cc:Work>
    </rdf:RDF>
  </metadata>
  <defs
     id="defs104" />
  <g
     transform="translate(-107.78,-6.9275463)"
     style="fill:#52b3c7;fill-opacity:1"
     id="#fbcc00ff">
    <path
       style="opacity:1;fill:#52b3c7;fill-opacity:1"
       id="path5"
       d="m 743.94,7.87 c 4.71,3.63 9.69,-1.91 14.68,-0.79 2.54,1.29 0.89,4.06 0.11,5.93 3.36,0.42 8.69,-1.73 9.69,2.92 -4.08,-0.23 -8.42,-0.15 -11.3,3.2 -2.36,-1.78 -5.4,-1 -8.12,-1.14 -0.01,-1.33 -0.01,-2.66 0,-4 -3.53,0.06 -7.21,0.4 -10.4,-1.4 0.99,-2.32 3.17,-3.65 5.34,-4.72 z" />
    <path
       style="opacity:1;fill:#52b3c7;fill-opacity:1"
       id="path7"
       d="m 675.32,26.16 c 17.75,-3.24 35.68,-6.09 53.65,-9.2 6.05,0.21 12,1.75 18.14,0.97 -0.84,2.43 -2.3,7.16 -5.53,4.26 -3.53,1.88 -7.69,-1.79 -10.84,2.08 1.23,1.24 2.47,2.48 3.7,3.73 1.69,0 3.4,0 5.12,0 0.84,0.86 1.7,1.7 2.57,2.55 -0.84,0.74 -1.67,1.47 -2.49,2.21 -2.09,0.38 -3.99,1.33 -5.78,2.41 -0.96,4.11 2.58,5.68 6.1,4.88 0.02,-0.51 0.06,-1.54 0.09,-2.05 1.16,0 2.33,0 3.52,0 0.8,-0.83 1.62,-1.66 2.44,-2.48 1.2,1.21 2.38,2.43 3.53,3.69 1.18,-0.3 2.32,-0.7 3.46,-1.18 1.14,0.5 2.34,0.91 3.57,1.22 0.44,-0.58 1.33,-1.73 1.77,-2.3 2.61,0.05 5.5,-0.27 7.68,1.51 0.37,2.04 -2.08,2.67 -3.64,2.71 -1.15,1.09 -2.28,2.18 -3.42,3.27 -0.4,5.11 1.69,10.13 4.84,14.07 1.57,4.7 2.72,11.66 -4.4,11.18 -2.34,0.24 -4.48,1.17 -6.42,2.45 0,1.74 -0.01,3.49 -0.02,5.24 -1.05,-0.51 -2.09,-1.04 -3.11,-1.57 -0.51,0.39 -1.53,1.19 -2.04,1.59 2.76,3.89 -1.11,8.3 1.41,11.83 -0.31,0.29 -0.93,0.87 -1.23,1.16 2.95,5.78 9.31,8.84 15.71,7.57 1.29,1.53 2.43,3.18 3.51,4.87 2.13,0.53 4.27,1.11 6.48,1.31 0.98,4.69 5.39,6.84 9.51,8.26 -2.19,3.87 -1.75,9.18 1.77,12.14 0.02,2.31 0.02,4.61 0.08,6.91 0.84,1 1.63,2.05 2.35,3.16 3.65,1.7 5.26,5.88 5.84,9.63 -2.49,-0.23 -4.79,-1.26 -6.83,-2.64 -14.14,-9.3 -32.52,-10.75 -45.4,-21.97 0.23,-2.58 -0.32,-5.08 -0.98,-7.55 4.78,-7.49 -0.88,-16.12 -4.15,-23.07 1.23,-1.96 2.32,-4.04 2.3,-6.42 -1.2,0.54 -2.38,1.12 -3.54,1.72 -0.85,-0.99 -1.62,-2.03 -1.8,-3.35 -1.34,1.04 -3.04,1.07 -4.62,1.24 -0.52,-0.97 -1.03,-1.94 -1.52,-2.91 -3.38,-0.09 -5.57,-6.28 -8.54,-3.16 -0.18,1.25 -0.48,2.47 -1.06,3.6 2.58,2.38 5.28,4.75 6.96,7.9 -1,0.88 -1.97,1.77 -2.94,2.66 -2.11,-1.11 -4.03,-2.51 -5.61,-4.28 -1.33,0 -2.65,0 -3.96,0.02 -1.41,1.32 -3.06,2.32 -4.72,3.27 1.15,7.26 4.02,14.21 7.34,20.71 0.81,0.02 2.43,0.05 3.24,0.06 -0.54,2.63 -2.78,3.38 -5.19,2.99 -2.15,6.28 -9.78,5.63 -14.84,3.76 -0.43,0.55 -1.28,1.65 -1.71,2.2 -1.44,-0.01 -2.86,-0.02 -4.27,-0.02 -0.93,0.98 -1.86,1.97 -2.77,2.96 0.44,0.52 1.32,1.58 1.75,2.1 -3.12,3.06 -6.09,7.54 -11.06,7.06 -0.4,0.42 -1.2,1.27 -1.6,1.69 -5.27,0.88 -8.97,5.37 -12.87,8.67 0.96,3.45 0.66,7.24 2.14,10.51 -1.32,4.35 -2.14,8.87 -3.87,13.14 0.54,7.14 -2.25,13.93 -2.16,21.02 3.98,-0.13 7.64,-1.99 11.61,-2.3 2.1,2.09 4,4.42 4.83,7.33 3.16,-1.05 6.55,-1.08 9.63,-2.4 -0.03,-1.46 -0.04,-2.91 -0.04,-4.36 0.8,-0.77 1.61,-1.55 2.41,-2.32 -0.43,-0.53 -1.3,-1.58 -1.73,-2.1 0.44,-0.56 1.32,-1.68 1.76,-2.24 5.23,3.38 11.63,0.94 16.92,3.49 -0.41,0.35 -1.22,1.04 -1.63,1.39 3.7,1.29 6.59,4.04 9.28,6.77 -0.01,1.38 -0.01,2.76 0.01,4.15 4.1,5.86 11.43,9.95 13.16,17.12 1.3,1.32 2.64,2.61 4.05,3.84 -0.31,1.19 -0.72,2.35 -1.19,3.48 3.08,11 6.88,22.48 3.96,33.98 0.6,4.92 -0.92,9.6 -1.09,14.47 -2.7,3.38 -4.33,7.49 -7.26,10.72 -1.69,-0.12 -3.42,-0.28 -4.8,-1.35 -0.48,0.39 -1.43,1.17 -1.9,1.56 -0.33,-0.34 -1,-1.01 -1.33,-1.35 -1.01,0.64 -2.11,1.05 -3.29,1.23 -2.24,-4.15 -5.05,-7.96 -8.62,-11.06 0.8,-1.36 1.6,-2.73 2.45,-4.07 1.4,-0.1 2.93,-0.11 3.75,-1.48 0.65,-6.49 -0.22,-12.98 -2.11,-19.2 -2.67,-2.4 -3.19,-5.93 -2.77,-9.33 -1.74,-0.82 -3.52,-1.52 -5.25,-2.32 -4.08,3.45 -7.69,7.17 -11.19,11.21 -0.56,0 -1.68,-0.01 -2.25,-0.01 -0.41,0.5 -1.24,1.5 -1.66,2 -1.14,0 -2.28,0.01 -3.4,0.01 -1.35,-2.49 -3.48,-4.45 -4.7,-7 -2.87,-0.17 -6.03,0.66 -8.57,-1.02 -1.81,1.38 -4.2,1.38 -5.99,0 -1.64,1.14 -3.61,1.06 -5.5,1.04 -4,-3.08 -6.85,-6.88 -11.22,-9.28 -2.96,-3.43 -9.25,-2.49 -10.6,-7.53 -1.91,-1.13 -4.1,-1.32 -6.27,-1.3 -1.97,-3.65 -5.44,-3.07 -8.42,-1.05 -4.84,-0.79 -8.66,2.9 -13.46,2.21 -3.8,2.87 -11.02,7.04 -7.33,12.62 0.95,0.47 1.9,0.95 2.84,1.45 -0.03,1.14 -0.05,2.28 -0.06,3.43 -0.75,0.71 -1.49,1.44 -2.22,2.17 2.13,2.86 0.98,6.6 1.21,9.89 0.52,0.43 1.54,1.29 2.05,1.71 -0.03,0.53 -0.07,1.59 -0.09,2.12 -1.25,1.38 -2.24,2.96 -3.19,4.54 -1.47,0 -2.93,-0.01 -4.38,-0.01 -0.95,-1.05 -1.91,-2.1 -2.85,-3.15 -1.33,1.41 -2.66,2.8 -3.95,4.24 -4.56,-1.05 -10.15,-1.78 -11.82,3.95 -0.63,-0.02 -1.88,-0.06 -2.5,-0.08 -1.21,3.51 -5.27,4.54 -6.49,8.05 -7.26,-0.06 -13.86,3.37 -21.37,1.99 -0.93,-1 -1.86,-2 -2.77,-2.99 -5.76,1.02 -10.47,-3.37 -16.28,-2.01 -0.41,0.47 -1.23,1.42 -1.64,1.89 -3.63,-0.39 -6.76,1.85 -7.96,5.21 -4.39,0.74 -9.08,-2.06 -8.87,-6.88 -6.13,-7.19 -16.08,-2.08 -23.58,-6.12 -0.77,0.79 -1.53,1.58 -2.29,2.36 -0.01,1.07 0,2.14 0.01,3.22 -0.52,0.42 -1.57,1.25 -2.09,1.66 -0.32,3.1 0.67,6.06 2.98,8.19 0.07,1.86 -0.1,3.89 1.2,5.43 -3.66,2.6 -7.81,-0.29 -11.74,-0.07 -0.44,0.57 -1.3,1.73 -1.73,2.3 -3.06,-0.32 -6.16,-2.07 -7.04,-5.19 -5.09,-0.01 -10.18,0 -15.26,0 -0.42,0.5 -1.24,1.5 -1.66,2 -1.71,0 -3.42,0.01 -5.12,0.04 -1.7,1.6 -4.4,2.43 -4.94,4.96 -0.6,-0.01 -1.78,-0.02 -2.38,-0.02 -1.26,3.2 -4.12,5.05 -6.78,6.97 -1.04,0.02 -2.08,0.04 -3.11,0.07 -0.41,-0.49 -1.24,-1.48 -1.65,-1.97 -1.87,-0.05 -3.86,0.21 -5.43,-1 -1.76,1.79 -3.31,3.77 -4.52,5.98 -0.57,-0.01 -1.72,-0.03 -2.3,-0.03 -0.81,-0.82 -1.62,-1.64 -2.43,-2.44 -0.01,-0.52 -0.03,-1.57 -0.04,-2.09 -1.3,-1.21 -2.51,-2.52 -3.36,-4.08 -2.16,-1.14 -4.06,-2.83 -4.93,-5.16 -3.45,-3.03 -6.7,1.35 -10.43,0.94 -0.82,-1.4 -1.62,-2.81 -2.45,-4.2 -1.16,0.01 -2.32,0.02 -3.47,0.03 -0.42,0.5 -1.25,1.5 -1.66,2 -0.6,0 -1.81,0 -2.42,0 -2.94,-9.61 -9.93,-17.49 -15.65,-25.6 -1.28,-0.81 -2.48,-1.73 -3.63,-2.7 0,-1.38 -0.01,-2.75 -0.03,-4.13 -1.22,0.59 -2.34,1.35 -3.41,2.16 -3.9,0.46 -6.45,3.58 -8.95,6.26 -0.59,0.01 -1.77,0.04 -2.36,0.05 -0.82,-1.36 -1.62,-2.72 -2.43,-4.07 -3.41,-0.39 -7.42,1.11 -10.38,-0.97 -0.3,0.33 -0.88,0.99 -1.17,1.33 -2.38,-3.65 -0.55,-8.91 -3.58,-12.24 -5.12,0.15 -11.43,-1.64 -15.21,2.88 -4.89,0.23 -10.11,-0.91 -14.47,1.91 -7.99,-0.3 -15.44,3.37 -23.52,2.12 -1.19,1.21 -2.41,2.39 -3.66,3.53 0.26,1.32 0.75,2.56 1.41,3.74 -0.3,0.25 -0.91,0.74 -1.22,0.99 0.43,0.74 0.86,1.47 1.29,2.22 -2.8,0.9 -4.57,3.35 -6.57,5.34 0.76,1.26 1.51,2.54 2.29,3.81 -1.55,1.43 -3.05,2.91 -4.53,4.42 2.01,2.04 4.43,3.57 6.7,5.28 -0.37,0.44 -1.13,1.31 -1.51,1.75 -1.6,-0.99 -3.15,-2.06 -4.57,-3.3 -1.37,0.8 -2.74,1.59 -4.09,2.41 -1.35,-0.81 -2.7,-1.6 -4.04,-2.4 0.02,-1.18 0.06,-2.34 0.1,-3.51 -2.08,-1.85 -4.55,-3.13 -7.03,-4.35 -2.56,1.79 -5.8,0.9 -8.7,1.07 -0.42,-0.5 -1.25,-1.5 -1.66,-2 -0.59,0 -1.75,0 -2.34,0 -0.41,-0.5 -1.24,-1.5 -1.66,-2 -1.09,0 -2.18,0 -3.26,0 -1.27,-1.34 -2.56,-2.67 -3.82,-4.01 -1.1,0.01 -2.19,0.03 -3.28,0.06 -1.08,-1.23 -2.1,-2.54 -2.74,-4.05 -1.75,-0.01 -3.5,0 -5.24,0.01 -0.44,-0.56 -1.31,-1.69 -1.75,-2.25 -6.21,3.34 -16.05,2.18 -19.17,9.59 -1.26,-0.84 -1.99,-2.15 -2.69,-3.44 -0.55,0.04 -1.64,0.12 -2.18,0.16 -2.01,1.56 -4.12,2.98 -5.97,4.72 -5.23,-0.12 -2.47,8.8 -9.13,6.26 -0.85,0.81 -1.71,1.63 -2.57,2.43 1.87,4.09 0.46,12.79 7,11.57 1.62,2.3 3.28,5.4 1.11,7.95 4.42,6.04 -5.4,8.19 -9.49,5.84 -1.91,2.11 -3.94,4.11 -5.91,6.16 -1.06,0 -2.12,-0.01 -3.17,-0.01 -5.26,2.84 -2.67,8.27 -0.24,12.18 -4.55,2.37 1.19,7.24 -3.3,9.66 1.05,4.2 6.87,13.91 -1.4,13.24 -2.68,-3.36 -6.69,-5.22 -9.47,-8.48 0,-1.72 0,-3.43 0,-5.14 -1.2,-1.17 -2.37,-2.37 -3.5,-3.59 -2.38,0.3 -4.7,0.97 -7.07,1.32 -1.98,-2.09 -3.62,-4.47 -5.39,-6.73 -0.03,-1.82 -0.04,-3.64 -0.05,-5.45 -2.53,0 -5.05,0 -7.57,0 -2.78,-3.46 -6.5,-5.87 -10.24,-8.17 -0.94,-6.33 -5.76,-10.81 -9.4,-15.7 1.24,-0.66 2.56,-1.1 3.94,-1.32 0.43,-0.51 1.31,-1.53 1.74,-2.03 1.33,0.26 2.59,0.74 3.77,1.41 1.26,-1.2 2.51,-2.41 3.77,-3.6 0,-1.53 0,-3.07 0,-4.59 2.59,-0.01 5.19,-0.01 7.78,0.04 1.45,-2.31 0.31,-7.34 4.22,-7.03 6.4,0.55 7.46,-6.91 10.93,-10.58 0.02,-0.5 0.07,-1.5 0.09,-2 1.15,-1.13 2.3,-2.27 3.43,-3.41 -2.35,-2.92 -5.32,-5.15 -8.66,-6.79 -1.5,-2.53 -3.03,-5.04 -4.53,-7.56 -0.2,-3.4 -0.26,-6.8 -2.23,-9.75 1.58,-3.87 -0.11,-7.95 -1.17,-11.75 -3.58,-3.04 -7.92,1.83 -11.25,-1.51 2.07,-1.83 4.39,-3.35 6.59,-5.01 -0.24,-2.13 -0.83,-4.19 -1.38,-6.25 0.55,-0.43 1.65,-1.3 2.19,-1.74 -0.02,-4.09 0,-8.18 -0.02,-12.27 -2.58,-1.2 -4.88,-2.92 -7.1,-4.7 5.24,-3.99 5.13,-11.93 10.82,-15.02 0.26,-0.54 0.79,-1.62 1.06,-2.17 0.48,-1.73 1.03,-3.44 1.42,-5.19 4.02,-4.65 10.04,-8.21 16.37,-7.32 1.13,1.17 2.27,2.33 3.43,3.48 0.79,-0.79 1.58,-1.57 2.37,-2.36 -1.24,-1.45 -2.35,-3 -3.34,-4.62 1.23,-1.31 2.22,-2.82 3.2,-4.32 8.36,-2.31 17.32,-2.65 24.92,-7.31 0.37,-3.59 -2.65,-7.41 0.18,-10.57 3.6,-2.18 5.33,-6.21 8.69,-8.71 -0.02,-1.09 -0.03,-2.18 -0.05,-3.27 2.74,-2.48 6.19,-4 8.88,-6.55 0.75,-4.3 3.41,-7.94 5.31,-11.79 1.62,0.02 3.24,0.03 4.86,0.04 -0.01,-1.26 -0.02,-2.51 -0.03,-3.76 3.38,-1.68 5.86,-4.54 8.42,-7.21 2.8,0.19 5.55,-0.34 8.19,-1.24 0.44,0.57 1.32,1.7 1.76,2.27 -0.93,0.98 -1.86,1.97 -2.78,2.96 0.79,0.8 1.59,1.6 2.4,2.4 0.98,-0.91 1.95,-1.83 2.94,-2.74 7,2.76 7.37,10.14 9.18,16.28 -7.63,1.91 -15.85,2.16 -23.84,2.04 -1.11,-2.01 -2.46,-3.86 -4.11,-5.46 -0.53,0.45 -1.59,1.33 -2.12,1.78 -0.05,2.27 0.38,4.74 -1.08,6.7 1.25,1.98 2.27,4.11 2.19,6.51 -3.6,2.91 -6.62,6.44 -8.4,10.75 0.76,0.68 1.52,1.37 2.3,2.05 -0.47,0.72 -0.92,1.45 -1.36,2.18 3.28,1.48 6.55,3.04 10.11,3.74 1.06,-1.84 2.1,-3.73 2.46,-5.86 -0.61,-0.45 -1.84,-1.36 -2.45,-1.82 1.07,-0.99 2.14,-1.99 3.22,-2.97 -0.01,1.75 -0.01,3.5 -0.02,5.25 4.55,3.87 14.82,3.48 12,-4.71 4.12,-3.04 8.97,-4 13.72,-5.07 1.16,1.24 2.34,2.48 3.51,3.73 -0.55,1.04 -1.08,2.09 -1.6,3.14 2.45,0.05 4.91,0.05 7.36,0.06 0.02,-1.49 0.03,-2.97 0.07,-4.44 2,-2.7 5.67,-6.58 2.7,-9.83 2.09,-2.41 4.8,-4.1 7.3,-6.03 -0.01,-0.72 -0.04,-2.17 -0.06,-2.89 3.27,-0.54 4.67,2.34 4.11,5.18 -1.23,0 -2.46,0 -3.68,0 -1.54,1.61 -3.1,3.19 -4.65,4.78 0.51,1 1.01,2 1.49,3.02 2.86,1.67 6.21,1.18 9.37,1.2 0.73,-1.72 1.56,-3.4 2.49,-5.02 3.25,0.28 6.48,-0.11 9.56,-1.17 0.41,-0.41 1.23,-1.22 1.64,-1.63 1.75,-0.41 3.47,-0.92 5.22,-1.34 0.58,1.58 1.61,2.91 2.75,4.13 2.55,-0.17 5,0.51 7.41,1.27 0.85,-1.45 1.68,-2.91 2.53,-4.36 3.16,-0.54 6.43,2.5 9.09,-0.18 0.83,1.01 1.58,2.08 2.1,3.29 0.56,0.01 1.69,0.01 2.25,0.02 0.41,-0.5 1.25,-1.51 1.66,-2.01 0.56,0 1.66,0 2.21,-0.01 1.19,-1.21 2.41,-2.39 3.67,-3.54 -0.27,-1.09 -0.63,-2.16 -1.13,-3.17 2.47,-4.4 7.13,-3.5 9.96,0.02 -0.03,1.56 -0.04,3.13 -0.05,4.7 1.33,0 2.67,0 4.01,0 0,0.65 0,1.94 0,2.58 1.67,1.6 3.32,3.23 5,4.83 0,0.56 -0.01,1.69 -0.01,2.25 0.51,0.42 1.52,1.26 2.03,1.68 0.49,-0.42 1.49,-1.25 1.98,-1.67 0,-1.45 -0.01,-2.91 -0.01,-4.36 0.55,-0.42 1.64,-1.27 2.18,-1.69 -0.63,-3.52 -1.58,-7 -1.18,-10.62 -1.42,0 -2.83,0 -4.23,0.01 1.9,-3.58 1.12,-7.69 1.23,-11.56 1.16,-1.14 2.31,-2.29 3.45,-3.45 1.08,0 2.15,0 3.23,0.01 1.94,-3.66 2.51,-8.09 5.63,-11.04 1.9,0.02 3.8,0.03 5.71,0.04 -0.01,2.14 -0.01,4.29 -0.04,6.44 -5.26,4.48 -1.59,11.86 -4.07,17.57 -0.19,4.33 -4.66,11.26 1.25,13.43 -0.67,2.3 -1.24,4.63 -1.29,7.03 -1.89,2.68 -3.86,5.3 -6.28,7.53 -4.29,-0.44 -8.81,-0.11 -11.81,3.4 3.64,5.37 10.1,4.87 15.81,4.59 3.43,-3.16 6.25,-8.02 11.42,-8.21 0.58,-4.21 -0.86,-8.2 -1.1,-12.34 0.84,-0.77 1.68,-1.55 2.51,-2.33 1.71,-0.06 3.43,-0.25 4.83,-1.35 0.66,0.66 1.32,1.33 1.99,1.99 -1.47,4.66 -3.99,11.17 1.24,14.39 2.21,-0.24 4.36,-0.86 6.52,-1.37 0.02,-0.64 0.04,-1.91 0.05,-2.55 -1.64,-0.61 -3.3,-1.18 -5.03,-1.46 -0.02,-0.65 -0.06,-1.96 -0.08,-2.62 1.01,-0.52 2.03,-1.03 3.07,-1.52 1,-5.38 -1,-11.25 -6.1,-13.65 -2.76,0.85 -5.65,1.48 -8.53,0.91 -3.26,-2.19 -0.21,-6.02 0.99,-8.55 2.74,-4.34 -5.05,-11.66 1.5,-13.75 0.02,2.55 0.21,5.12 1.38,7.45 1.81,-0.03 3.63,-0.05 5.45,-0.09 1.12,1.27 2.19,2.62 2.78,4.23 1.68,-0.34 3.28,-0.97 4.89,-1.57 -0.96,-3.87 -4.78,-5.53 -6.74,-8.53 0.74,-0.03 2.23,-0.07 2.98,-0.1 0.41,-2.05 2.65,-4.54 4.14,-1.76 1.45,3.07 4.39,4.57 7.34,5.93 0.26,3.16 -0.78,6.15 -1.16,9.25 1.7,1.99 3.1,4.23 5,6.06 0.48,-0.44 1.45,-1.31 1.93,-1.75 0.18,-2.17 0.77,-4.26 1.32,-6.36 -0.59,-0.43 -1.77,-1.3 -2.36,-1.74 0.31,-2.38 1.05,-4.69 1.31,-7.08 -2.15,-1.67 -3.66,-3.93 -4.47,-6.53 -0.55,0 -1.64,0 -2.19,0 -0.86,-0.84 -1.72,-1.67 -2.58,-2.48 0.14,-2.63 0.88,-5.21 2.24,-7.47 2.45,0.23 4.68,-0.66 6.63,-2.07 0.39,0.52 1.17,1.55 1.55,2.07 2.66,0.09 5.33,-0.05 7.74,-1.29 -0.01,-0.6 -0.03,-1.8 -0.05,-2.39 -1.09,-0.51 -2.16,-1.04 -3.23,-1.57 0.42,-2.77 1.29,-5.45 1.4,-8.26 2.07,-2.45 3.04,-5.67 5.52,-7.8 1.14,0.67 2.37,1.19 3.69,1.4 1.68,-1.51 3.58,-2.77 5.27,-4.29 1.17,0.25 2.29,0.65 3.38,1.17 2.77,-1.46 5.83,-2.28 8.98,-2.1 -0.01,-1.31 -0.01,-2.61 0,-3.92 1.41,0 2.82,-0.01 4.24,-0.02 -0.09,-4.25 -6.16,-8.7 -0.89,-12.02 1.08,0.02 2.17,0.03 3.26,0.04 0.92,1.01 1.86,2 2.79,3 -0.95,1.02 -1.9,2.02 -2.84,3.04 1.13,1.14 2.28,2.28 3.44,3.4 0,0.55 0,1.66 0,2.21 -0.75,0.62 -1.49,1.25 -2.23,1.88 0.52,0.4 1.55,1.21 2.07,1.62 2.25,-1.22 4.85,-1.43 7.22,-2.37 -0.03,-0.66 -0.08,-1.97 -0.11,-2.63 1.69,-1 3.42,-2.07 5.43,-2.26 1.64,1.62 4.03,2.52 5.01,4.72 2.75,1.07 3.34,4.22 4.76,6.48 -2.34,2.6 -3.32,6.16 -6.1,8.4 -0.03,0.49 -0.08,1.48 -0.11,1.97 -2.91,2.91 -4.06,7.17 -4.02,11.2 0.51,0.4 1.55,1.22 2.06,1.62 1.23,-1.05 2.5,-2.07 4.01,-2.72 0,-0.54 0,-1.62 0,-2.17 1.4,-1.42 2.87,-2.79 4.63,-3.78 1.83,-6.05 7.81,-2.75 10.4,0.77 -0.02,1.08 -0.02,2.15 -0.03,3.23 1.01,0.93 2.02,1.87 3.03,2.81 0.76,-0.74 1.52,-1.48 2.29,-2.21 -0.89,-1.48 -1.77,-2.96 -2.68,-4.42 2.75,-3.37 7.18,-2.88 11.07,-2.84 1.06,1.23 2.08,2.53 2.73,4.05 3.65,1.18 7.51,-2.36 10.65,0.16 2.8,-1.21 4.08,-4.13 6.25,-6.11 -0.44,-0.56 -1.31,-1.68 -1.75,-2.24 -0.35,0.37 -1.05,1.13 -1.4,1.51 -1.44,-0.86 -3.32,-1.51 -3.55,-3.44 3.06,-0.01 5.93,1.33 9.02,1.22 0.41,-0.52 1.25,-1.57 1.66,-2.1 1.16,-0.01 2.33,-0.03 3.5,-0.05 0.5,0.9 1.01,1.79 1.52,2.7 2.69,1.13 3.53,4.3 5.81,6 -0.34,0.19 -1,0.56 -1.34,0.74 0.88,0.87 1.77,1.74 2.65,2.61 0.56,0 1.66,0 2.21,0 0.42,0.5 1.26,1.5 1.67,2 0.58,0 1.73,0 2.31,0 0.41,0.45 1.22,1.33 1.63,1.78 4.14,1.52 8.23,2.94 12.76,2.21 -0.12,-2.35 0.51,-4.98 -1.13,-6.96 1.71,-1.12 3.73,-1.09 5.7,-1.11 0.81,-4.69 5.15,-1.99 8.21,-1.67 2.47,-3.48 3.27,-8.83 -2.13,-9.82 1.15,-2.93 4.56,-3.11 7.03,-4.35 1.22,1.31 2.46,2.61 3.69,3.93 0.55,-0.01 1.66,-0.01 2.21,-0.01 0.92,1 1.85,2 2.78,3 0.59,0 1.78,0 2.37,0 0.66,-2.49 1.38,-4.98 1.32,-7.59 0.78,-0.8 1.56,-1.61 2.35,-2.41 1.51,0 3.04,0 4.57,0 -0.01,1.19 -0.01,2.37 0,3.56 0.81,0.81 1.63,1.62 2.45,2.44 0.55,0 1.66,0 2.21,0 0.42,-0.5 1.26,-1.5 1.68,-2 0.55,0 1.67,0 2.22,0 1.05,1.08 2.11,2.16 3.19,3.22 1.22,-0.77 2.59,-1.22 4.02,-1.44 0.23,-1.48 0.71,-2.89 1.53,-4.17 1.25,1.3 2.44,2.69 3.13,4.39 0.54,0 1.63,0 2.17,0 1.13,-3.66 5.57,-4.28 7.94,-6.95 0.52,-0.01 1.56,-0.04 2.08,-0.06 0.91,-1 1.84,-1.99 2.77,-2.99 3.43,0 6.87,0.02 10.31,-0.03 1.73,1.77 2.93,3.94 3.73,6.28 1.22,-0.31 2.41,-0.72 3.58,-1.24 4.04,2.05 8.83,0.56 13.2,0.98 -0.08,-2.73 -1.62,-5 -3.45,-6.88 5.06,-2.68 11.43,-2.07 15.76,-5.97 4.96,-1.98 10.21,1.52 14.49,-2.29 -0.02,-1.99 -0.01,-3.99 0.06,-5.99 -2.02,1.66 -4.69,1.06 -7.07,1.17 0,-0.5 0,-1.51 0,-2.01 1.14,-0.02 2.28,-0.04 3.44,-0.07 2.31,-2.12 5.16,-3.63 8.27,-4.16 0.4,-0.41 1.21,-1.22 1.61,-1.63 z" />
    <path
       style="opacity:1;fill:#52b3c7;fill-opacity:1"
       id="path9"
       d="m 347.54,50.88 c 2.14,-2.17 4.65,-3.94 7.39,-5.27 0.04,1.36 0.08,2.72 0.12,4.08 -1.49,1.25 -3.07,2.38 -4.68,3.46 -0.21,-0.35 -0.64,-1.04 -0.85,-1.39 -0.45,0.52 -1.35,1.57 -1.8,2.1 -2.56,0.22 -4.99,1.12 -7.56,1.24 -0.51,0.84 -1.02,1.68 -1.51,2.53 -1.13,0.67 -2.19,1.45 -3.19,2.29 -0.98,0.05 -1.95,0.1 -2.92,0.15 -1.8,1.63 -4.61,2.52 -5.02,5.23 -0.9,-0.51 -1.79,-1.03 -2.67,-1.55 -0.47,0.41 -1.39,1.22 -1.86,1.63 0.01,0.55 0.01,1.66 0.01,2.21 -2.03,2 -4.56,3.76 -5.46,6.6 -1.19,-0.5 -2.37,-1.02 -3.55,-1.5 0,-1.24 0,-2.47 0.02,-3.71 0.67,0.02 2.01,0.06 2.68,0.08 1.07,-1.24 2.09,-2.54 2.74,-4.05 1.17,-0.01 2.34,-0.01 3.52,-0.01 -0.35,-2.78 -0.12,-6.59 3.65,-6.19 0.65,-1.37 1.58,-2.57 2.65,-3.64 2.63,-0.39 4.89,-1.93 7.51,-2.4 0.37,-0.43 1.12,-1.3 1.49,-1.74 2.79,2.35 6.13,-0.63 9.29,-0.15 z" />
    <path
       style="opacity:1;fill:#52b3c7;fill-opacity:1"
       id="path11"
       d="m 308.61,75.9 c 1.56,0.33 3.07,0.8 4.6,1.25 -4.65,4.77 -5.58,11.84 -5.25,18.22 -0.88,-0.44 -1.76,-0.88 -2.63,-1.33 -0.78,0.81 -1.55,1.62 -2.33,2.43 -0.01,-2.36 0,-4.72 0,-7.07 -1.31,-1.23 -2.6,-2.46 -3.91,-3.68 0.37,-0.91 0.73,-1.83 1.08,-2.74 1.11,0.71 2.38,1.03 3.67,1.27 0.07,-2.04 0.31,-4.1 1.39,-5.88 1.27,-0.61 2.36,-1.51 3.38,-2.47 z" />
    <path
       style="opacity:1;fill:#52b3c7;fill-opacity:1"
       id="path13"
       d="m 710.38,173.98 c 4.01,-0.63 7.51,2.43 8.65,6.08 2.58,2.73 6.7,4.72 8.42,8.22 0.48,-0.26 1.44,-0.8 1.93,-1.06 1.03,0.37 2.08,0.72 3.15,1.07 4.99,3.78 11.18,5.32 16.72,8.09 -1.47,1.36 -2.91,2.74 -4.38,4.08 -0.15,3.18 2.19,5.68 2.39,8.8 -2.19,-0.9 -4.18,-2.26 -4.95,-4.61 -2.73,-5.82 -9.81,-7.68 -12.5,-13.48 -3.89,-0.96 -7.75,-2.1 -11.55,-3.34 -0.87,-2.58 -2.2,-5.24 -4.95,-6.18 -0.47,-0.87 -0.92,-1.73 -1.37,-2.6 0.58,-1.14 1,-2.34 1.28,-3.59 -0.71,-0.37 -2.13,-1.11 -2.84,-1.48 z" />
    <path
       style="opacity:1;fill:#52b3c7;fill-opacity:1"
       id="path15"
       d="m 754.8,216.59 c 1.89,0.73 3.71,1.64 5.47,2.66 -0.98,0.98 -1.94,1.97 -2.9,2.97 -0.76,-1.92 -1.65,-3.79 -2.57,-5.63 z" />
  </g>
  <g
     transform="translate(-107.78,-6.9275463)"
     style="fill:#52b3c7;fill-opacity:1"
     id="#c89a11ff">
    <path
       style="opacity:1;fill:#88fcb0;fill-opacity:1"
       id="path18"
       d="m 622.59,219.59 c 3.49,-1.72 6.7,0.72 9.97,1.73 1.8,1.3 4.18,2.23 4.85,4.58 5.88,-0.43 10.65,4.61 13.96,8.82 2.52,1.16 5.13,2.29 7.19,4.22 5.79,0.65 11.33,-1.45 17.03,0.19 2.49,2.29 4.85,4.83 7.73,6.65 2.96,0.96 5.5,-1.54 8.3,-2.11 1.28,-1.12 2.6,-2.2 4.05,-3.11 1.12,-3.28 5,-8.23 8.62,-5.85 2.02,7.78 6.19,15.48 4.74,24.03 -3.47,1.94 -5.9,4.91 -7.33,8.6 4.93,3.29 8.74,7.79 11.69,12.92 -1.62,1.56 -3.44,2.87 -5.39,3.97 2.16,7.73 -4.39,12.26 -8.26,17.76 -3.08,-0.21 -6.4,-0.08 -8.69,2.29 3.26,7.69 -1.29,15.2 -6.34,20.76 -0.57,-0.01 -1.71,-0.03 -2.28,-0.04 -3.77,3.24 -6.22,7.62 -9.83,11.01 -0.65,0 -1.94,-0.01 -2.58,-0.01 -1.24,-5.5 2.64,-11.1 -0.37,-16.21 -2.21,1.27 -4.75,1.32 -7.23,1.26 -1.13,1.12 -2.27,2.25 -3.39,3.37 -0.04,1 -0.08,2.01 -0.1,3.01 -2.59,3.13 -4.06,7 -6.75,10.06 -0.17,1.85 -0.68,3.64 -1.31,5.38 -2.43,1.47 -5.87,0.24 -7.77,2.47 -0.52,2.56 0.01,5.15 1.04,7.52 3.76,1.21 7.61,2.5 11.62,2.14 0.96,1.21 1.88,2.45 2.65,3.81 2.54,1.62 5.71,1.54 8.28,0 1.39,-3 3.51,-5.57 5.74,-7.99 3.63,0.79 7.28,1.47 11.03,1.28 -1.68,3.41 -4.9,5.63 -7.47,8.32 0.01,0.58 0.04,1.73 0.06,2.31 -1.57,1.28 -3.25,2.42 -4.97,3.48 -0.04,1.98 0.02,4.02 -1.02,5.78 1.44,2.79 0.57,6.14 2.14,8.9 5.1,0.13 10.22,2.56 12.79,7.12 2.37,4.21 7.65,5.46 10.34,9.36 -1.8,0.79 -3.35,2 -4.75,3.35 3.12,3.09 10.7,-1.39 10.57,4.83 -1,0.88 -1.98,1.79 -2.94,2.71 -0.24,2.61 -1.69,4.81 -3.44,6.67 2.24,0.9 4.61,1.41 6.9,2.21 -0.18,-2.67 2.28,-2.15 4.13,-2.23 0.8,1.4 1.61,2.81 2.44,4.21 -0.27,0.32 -0.81,0.96 -1.08,1.28 1.02,1.55 0.81,3.43 0.91,5.19 -1.01,0.9 -2,1.81 -2.97,2.74 -1.17,6.15 -0.3,13.4 -5.05,18.23 0.78,8.58 -1.21,18.08 -8.04,23.88 -0.01,1.04 -0.02,2.09 -0.01,3.15 -4.04,3.86 -9.18,7.92 -9.13,14.08 -0.74,0.68 -1.47,1.37 -2.19,2.07 -1.94,0.37 -3.73,1.22 -5.41,2.23 -0.15,-0.25 -0.43,-0.76 -0.58,-1.01 -3.12,2.53 -7.04,4.01 -9.51,7.34 -1.61,-0.75 -3.16,-1.72 -3.72,-3.51 -1.2,0.35 -2.38,0.74 -3.54,1.16 2.61,2.7 -0.06,5.22 -2.55,6.53 -4.95,7.2 -15.71,8.38 -19.81,16.51 -0.64,0 -1.92,0.01 -2.56,0.02 -0.01,-1.34 -0.01,-2.68 0,-4.02 -3.61,0.05 -7.52,0.57 -10.55,-1.83 -3.22,2.9 -7.8,4.43 -12.1,3.73 -2.74,-1.51 -0.32,-4.65 -0.11,-6.88 -6.25,0.62 -12.12,-0.42 -17.98,-2.18 -1.98,5.21 -7.21,8.31 -12.74,7.25 -1.44,1.26 -3.07,2.27 -4.7,3.26 -0.33,-0.37 -0.99,-1.1 -1.32,-1.47 -1.61,1.71 -3.25,3.39 -4.89,5.08 -4.69,-1.34 -6.65,2.49 -5.64,6.61 -0.83,0.83 -1.64,1.68 -2.43,2.54 -3.43,-0.08 -6.68,-1.38 -10.12,-1.2 -0.85,-1.96 -2.92,-2.87 -4.45,-4.19 0.02,-2.09 0.03,-4.18 0.03,-6.27 -2.46,-0.9 -4.25,-2.87 -5.41,-5.15 -2.75,-1.26 -5.46,-2.64 -7.78,-4.59 1.32,-7.8 5.76,-14.99 4.15,-23.21 -3.92,-3.08 -4.85,-8.06 -6.18,-12.56 -1.09,0.04 -2.17,0.09 -3.24,0.15 -5.98,7.29 -11.81,-2.25 -14.82,-7.24 -5.05,0.19 -8.98,4.6 -14.31,3.17 -3.79,2.94 -5.43,7.51 -8.25,11.2 -2.32,1.46 -4.91,2.57 -6.66,4.78 -6.76,-1.11 -14.29,0.36 -20.43,-2.99 -1.28,0.52 -2.59,0.93 -3.93,1.22 -0.87,1.33 -1.68,2.7 -2.48,4.08 -1.26,-0.37 -2.5,-0.81 -3.71,-1.31 -4.73,3.7 -10.74,1.51 -15.82,-0.1 -3.59,2.71 -7.75,-0.65 -11.71,0.04 -3.72,-5.06 -10.4,-5.86 -14.96,-9.81 -0.52,-0.05 -1.57,-0.14 -2.09,-0.18 -1.8,-1.79 -3.75,-3.51 -4.82,-5.86 -3.3,0.75 -6.74,-2.31 -9.63,0.03 -1.8,-0.83 -3.5,-1.91 -4.37,-3.77 -1.82,-0.91 -3.6,-1.9 -5.12,-3.27 -1.01,-0.04 -2.01,-0.07 -3.01,-0.09 -1.13,-1.16 -2.26,-2.3 -3.39,-3.43 -0.39,0.39 -1.18,1.18 -1.57,1.57 -0.76,-0.83 -1.51,-1.65 -2.27,-2.46 -0.58,-2.1 -1.13,-4.2 -1.4,-6.36 1.3,-0.96 2.61,-1.9 4.02,-2.7 1.08,-1.86 1.28,-3.98 1.24,-6.09 -3.25,-3.73 -7.57,-6.75 -8.4,-12.02 -0.75,-5.95 -4.7,-10.62 -8.51,-14.96 -0.5,0.44 -1.52,1.31 -2.02,1.74 -3.69,-2.12 -7.25,-4.5 -10.12,-7.68 0,-1.1 0,-2.2 0.01,-3.3 -1.29,-0.5 -2.56,-1.02 -3.84,-1.5 -2.27,-3.1 0.48,-6.47 -0.14,-9.83 -0.18,-3.26 -2.95,-5.42 -5.15,-7.45 -0.12,-3.27 2.39,-5.86 2.27,-9.13 1.41,-1.46 2.84,-2.9 4.25,-4.36 0.57,-0.01 1.7,-0.02 2.26,-0.03 0.43,0.51 1.27,1.52 1.69,2.02 3.27,0.04 6.68,0.32 9.68,-1.25 -0.01,-0.58 -0.03,-1.74 -0.04,-2.32 0.81,-0.81 1.63,-1.61 2.44,-2.42 3.12,0.18 6.23,-0.16 9.18,-1.22 0.8,-1.7 2.54,-2.57 3.9,-3.74 1,-0.04 1.99,-0.08 3,-0.12 6.61,-3.92 10.7,-11.17 11.16,-18.54 -2.94,-3.45 -0.46,-7.41 -0.6,-11.31 3.83,-3.1 9.17,-1.44 13.18,-4.26 -0.38,-2.87 -2.03,-5.91 -0.05,-8.57 3.63,-2.94 7.63,-1.56 11.8,-1.16 0,-0.67 0,-2.01 0,-2.69 1.34,-1.48 3.4,-2.6 4.05,-4.54 -0.5,-2.55 -2.38,-4.73 -2.22,-7.47 3.69,-3 7.8,-5.61 9.3,-10.43 1.15,0.01 2.31,0.02 3.47,0.03 2.72,2.56 4.73,5.8 7.87,7.92 2.47,-0.02 5,0.04 7.24,1.26 3.91,7.64 11.29,15.43 7.31,24.71 3.15,5.25 11.36,-1.31 16.3,0.76 3.3,1.99 7.4,2.48 10.22,5.25 0.54,0.03 1.61,0.1 2.14,0.13 4.17,3.64 5.63,9.28 9.68,12.99 3.03,-0.02 6.07,-0.01 9.11,-0.06 2.84,-1.94 5.24,-4.77 8.55,-5.86 5.64,-0.18 11.31,-0.22 16.95,0.02 5.86,2.7 11.98,5.77 18.66,4.88 0.9,1 1.82,1.99 2.74,3 1.4,0 2.81,0 4.22,0 6.98,-8.44 17.3,-13.27 27.9,-15.2 2.15,-1.82 4.71,-3.01 7.29,-4.09 0.99,-5.29 4.8,-9.45 8.33,-13.26 -0.39,-2.57 -1.03,-5.09 -1.29,-7.67 2.18,0.49 4.36,1.07 6.6,1.29 2.18,-1.83 4.56,-3.42 6.6,-5.42 -0.01,-1.08 -0.02,-2.15 -0.02,-3.22 2.65,-2.59 5.11,-5.64 8.83,-6.72 1.5,-4.22 1.99,-8.82 2.23,-13.29 0.78,-0.81 1.57,-1.62 2.37,-2.43 1.8,0.01 3.61,0.02 5.43,0.03 1.64,-3.08 3.57,-6.08 4.36,-9.51 -3.77,-2.64 -8.15,-4.26 -12.73,-4.37 -2.72,3.21 -6.41,5.05 -10.42,6.12 -1.79,-1.04 -3.52,-2.19 -5.09,-3.53 -0.01,-1.39 -0.01,-2.79 -0.02,-4.18 -1.3,-1.44 -2.32,-3.08 -3.29,-4.74 1.01,-1 2.03,-2 3.06,-2.99 1.54,1.04 3.36,1.26 5.18,1.34 -0.91,-4.17 2.37,-7.31 3.05,-11.05 -3.93,-6.03 -1.06,-13.17 -0.91,-19.72 -1.05,-0.5 -2.09,-1.01 -3.12,-1.53 0.02,-0.62 0.05,-1.87 0.07,-2.49 4.62,-5.21 12.06,-6.16 18.59,-6.78 z" />
    <path
       style="opacity:1;fill:#52b3c7;fill-opacity:1"
       id="path20"
       d="m 131.15,353.41 c 1.29,-0.57 2.28,-1.57 2.69,-2.93 0.34,5.35 4.25,11.7 10.19,11.59 3.43,-1.16 6.81,-2.51 10.37,-3.3 -0.38,1.52 -1.36,2.71 -2.42,3.82 0.35,0.33 1.05,1 1.41,1.34 -0.45,0.54 -1.35,1.62 -1.8,2.17 1.13,1.1 2.26,2.21 3.4,3.31 0,0.63 0.01,1.9 0.01,2.53 0.5,0.03 1.5,0.09 2,0.12 0,1.14 0.01,2.29 0.02,3.44 3.69,4.45 8.34,7.98 12.27,12.23 7.66,3.65 16.37,4.54 24.67,3.09 0.03,-0.46 0.08,-1.38 0.1,-1.84 1.22,0.02 2.44,0.04 3.66,0.08 1.04,-1.26 2.03,-2.58 2.74,-4.06 4.12,-0.92 8.41,2.54 11.94,-0.74 2.23,1.11 4.78,0.69 7.18,0.77 1.23,3.58 5.51,4.29 7.92,6.87 0.59,0.03 1.76,0.09 2.35,0.12 1.14,1.97 2.19,4 3.3,6.01 0.63,-0.01 1.91,-0.04 2.55,-0.05 0.49,1.27 1.01,2.53 1.51,3.81 1.27,0.49 2.53,1 3.8,1.5 0.63,4.86 -1.43,9.46 -1.05,14.29 -1.57,0.43 -2.65,1.59 -3.4,2.98 -1.69,1.16 -3.23,2.5 -4.75,3.87 1.49,4.17 1.33,8.43 -1.6,11.95 1.19,3.93 -0.42,8.16 0.83,12.36 1.22,1.1 2.56,2.08 4.08,2.74 0.05,3.42 -1.88,6.33 -3.8,8.99 -0.39,1.07 -0.78,2.15 -1.2,3.22 1.03,1.78 2.36,3.37 3.86,4.79 0.03,2.41 0.02,4.83 -0.02,7.25 1.18,0.92 2.38,1.83 3.6,2.7 1.17,1.81 2.65,3.37 4.17,4.88 0.42,1.48 0.91,2.94 1.43,4.4 1.08,0.52 2.16,1.06 3.23,1.62 -1.59,1.47 -3.35,2.75 -5.27,3.76 -1.19,-0.56 -2.43,-1.01 -3.71,-1.34 -0.43,0.56 -1.3,1.69 -1.74,2.26 -0.54,0 -1.63,0.02 -2.18,0.02 -1.58,1.7 -3.45,3.09 -5.49,4.2 -0.01,2 -0.01,4.01 -0.01,6.03 -3.22,-0.49 -6.14,-2.04 -8.55,-4.19 -7.94,1.15 -13.21,-6.22 -21.01,-6.34 -1.09,-0.82 -2.23,-1.55 -3.41,-2.19 -0.03,-3 0,-6 -0.07,-8.99 -1.23,-1.4 -2.23,-2.96 -3.19,-4.55 -8.06,-0.82 -16.01,4.43 -23.6,-0.22 -0.96,-1.11 -1.85,-2.28 -2.59,-3.54 -1.13,-0.52 -2.26,-1.02 -3.4,-1.48 -0.82,-1.76 -1.22,-3.64 -1.31,-5.56 -1.52,-0.98 -3.03,-1.97 -4.4,-3.14 -1.4,-0.04 -2.8,-0.06 -4.2,-0.07 -0.68,-3.8 -2.92,-7.04 -4.21,-10.62 0.28,-0.28 0.86,-0.85 1.15,-1.13 -0.8,-1.72 -1.5,-3.48 -2.22,-5.22 1.58,-1.82 0.76,-3.98 -0.14,-5.88 -1.84,-0.76 -3.76,-1.21 -5.74,-1.28 0.66,-3.08 -1.25,-5.78 -4.55,-4.88 -1.38,1.3 -2.99,2.32 -4.6,3.3 -0.52,-0.4 -1.54,-1.19 -2.05,-1.58 0.93,-1.48 1.9,-2.92 3.05,-4.23 0.03,-1.81 0.05,-3.62 0.06,-5.41 0.51,-0.03 1.51,-0.09 2.02,-0.12 0.56,-7.82 -3.03,-16.34 -9.98,-20.36 -0.02,-0.54 -0.07,-1.61 -0.1,-2.15 -1.61,-0.55 -2.46,-2.01 -3.18,-3.43 1.02,-1.8 1.97,-3.9 4.2,-4.42 0.02,-0.54 0.06,-1.61 0.08,-2.15 2.06,-0.8 2.67,-3.39 4.94,-3.86 0.01,-1.06 0.01,-2.11 0.01,-3.16 -0.81,-0.77 -1.62,-1.54 -2.43,-2.31 0.61,-0.05 1.83,-0.15 2.44,-0.2 0,-0.63 -0.01,-1.9 -0.01,-2.53 -1.02,-0.93 -2.03,-1.85 -3.06,-2.76 -0.42,-4.96 2.93,-10.28 -0.13,-14.89 0.69,-0.71 1.39,-1.41 2.09,-2.11 0.03,-3.12 1.14,-6.09 1.25,-9.2 z" />
    <path
       style="opacity:1;fill:#52b3c7;fill-opacity:1"
       id="path22"
       d="m 715.28,460.32 c 0.89,-2.4 2.93,-4.03 4.71,-5.77 -0.38,9.31 1.01,18.78 -1.1,27.93 -2.12,-2.16 -3.16,-5.53 -5.88,-6.9 -1.2,-5.44 2.35,-9.94 2.27,-15.26 z" />
    <path
       style="opacity:1;fill:#52b3c7;fill-opacity:1"
       id="path24"
       d="m 525.34,478.24 c 1.15,-0.52 2.3,-1.04 3.47,-1.54 -0.35,4.33 2.63,7.68 5.13,10.83 0.7,6.28 -0.36,12.53 -3.28,18.15 -2,3.35 0.31,6.91 2.61,9.36 1.11,-0.03 2.22,-0.05 3.34,-0.07 1.5,1.49 2.98,3.04 3.84,5.01 0.64,0.01 1.92,0.02 2.56,0.03 -0.42,4.19 0.04,8.38 2.34,11.99 1.19,-0.01 2.38,-0.01 3.58,-0.01 0.04,0.55 0.11,1.64 0.15,2.19 2.37,-0.25 4.7,-0.83 7.01,-1.45 -0.85,1.51 -1.16,3.2 -1.22,4.92 -1.28,1.26 -2.56,2.52 -3.86,3.76 -0.01,0.53 -0.03,1.6 -0.04,2.14 -1.25,0.62 -2.4,1.4 -3.49,2.27 -3.35,-0.6 -5.28,1.98 -4.59,5.15 -3.12,-0.27 -6.26,0.1 -8.78,2.11 -0.05,1.69 -0.22,3.41 -1.07,4.92 2.14,3.27 0.23,7.03 -0.19,10.5 2.28,2 4.16,4.56 6.95,5.9 0.45,1.77 0.96,3.53 1.4,5.31 0.86,0.85 1.73,1.71 2.61,2.58 0.55,2.05 1.1,4.12 1.33,6.25 -1.7,1.53 -3.35,3.13 -5.01,4.71 0.79,1.39 0.91,2.96 0.94,4.53 1.16,0.95 2.37,1.85 3.66,2.65 0.5,1.04 1.02,2.09 1.54,3.15 3.03,0.99 3.56,4.3 4.15,7 1.03,5.04 4.65,9.47 3.54,14.86 -2.77,2.77 -3.88,6.72 -4.11,10.54 -0.48,0.03 -1.44,0.1 -1.92,0.14 2.92,-7.14 2.82,-15.45 0.86,-22.8 -0.38,-0.41 -1.14,-1.23 -1.52,-1.64 -1.31,-4.54 -4.01,-8.75 -7.23,-12.18 -0.03,-1.04 -0.05,-2.07 -0.06,-3.1 -6.27,-2.03 -0.55,-13.25 -7.61,-13.59 -1.75,-2.37 -3.81,-9.03 -7.43,-5.66 0.02,1.14 0.04,2.28 0.07,3.44 -2.55,2.39 -5.02,4.87 -7.42,7.41 -0.56,0 -1.67,0 -2.23,0.01 -0.63,-0.75 -1.27,-1.48 -1.89,-2.2 -0.69,0.82 -1.37,1.65 -2.04,2.49 -0.54,-1.21 -1.08,-2.41 -1.63,-3.59 -0.95,0.91 -1.91,1.82 -2.86,2.73 0.1,-6.11 3.37,-11.6 0.93,-17.74 -0.46,0.41 -1.4,1.22 -1.87,1.63 -0.01,-1.3 -0.01,-2.59 -0.02,-3.88 -1.65,-0.7 -3.01,-1.87 -4.24,-3.14 3.64,-3.66 -1.91,-5.96 -3.14,-9.13 -3.23,-1.54 -9.04,-0.45 -7.69,-5.9 -0.53,-0.44 -1.6,-1.32 -2.13,-1.76 0.76,-0.64 1.53,-1.26 2.3,-1.88 -0.02,-1.98 0,-4.02 -1.15,-5.72 1.36,0.03 2.72,0.07 4.09,0.11 -0.84,-6.14 1.56,-12.01 0.91,-18.11 1.67,1.11 4.74,2.1 5.82,-0.28 1.31,-5.67 1.44,-11.45 1.25,-17.24 3.17,-0.85 2.97,-4.95 4.25,-7.42 0.6,0.01 1.81,0.01 2.41,0.02 0.17,-1.29 0.87,-2.06 2.12,-2.31 0.37,-1.61 0.88,-3.18 1.45,-4.73 3.94,-0.74 9.96,2.15 12.08,-2.34 -1.33,-0.7 -2.59,-1.48 -3.79,-2.35 1.81,-2.19 3.49,-4.51 4.82,-7.03 z" />
    <path
       style="opacity:1;fill:#52b3c7;fill-opacity:1"
       id="path26"
       d="m 640.49,527.6 c 1.26,0.89 2.49,1.82 3.73,2.78 -1.01,0.96 -2.02,1.92 -3.02,2.88 -0.78,2.48 -1.33,5.01 -1.28,7.63 -2.41,1.26 -4.84,2.53 -6.9,4.33 -1.78,-1.03 -3.5,-2.18 -5.07,-3.49 0.02,-1.42 0.05,-2.83 0.1,-4.23 1.43,-1.43 2.61,-3.07 3.82,-4.68 2.23,-2.87 7.95,-1.1 8.62,-5.22 z" />
    <path
       style="opacity:1;fill:#52b3c7;fill-opacity:1"
       id="path28"
       d="m 551.77,637.65 c 0.27,-1.11 0.58,-2.21 0.94,-3.28 0.17,3.81 1.56,7.47 1.34,11.31 0.46,0.39 1.37,1.18 1.83,1.57 0.9,-0.56 1.81,-1.1 2.73,-1.63 0.85,1.91 1.42,3.94 1.53,6.05 0.92,0.89 1.84,1.79 2.78,2.69 -0.53,3.57 1.41,6.54 3.47,9.23 1.08,0.74 2.13,1.52 3.17,2.35 1.67,0.03 3.36,0.05 5.05,0.09 0.33,2.19 2.73,2.49 4.39,3.34 0,0.75 0,2.26 0,3.01 -0.35,-0.35 -1.07,-1.03 -1.42,-1.37 -0.99,0.79 -1.98,1.58 -3,2.33 -1.75,-3.96 -7.3,-4.53 -11.15,-5.53 -2.15,-1.72 -4,-3.82 -6.37,-5.23 -0.03,-0.52 -0.09,-1.57 -0.12,-2.09 -1.86,-2.74 -4.56,-4.66 -6.96,-6.86 -0.45,0.42 -1.35,1.26 -1.8,1.67 -0.94,-1.99 -1.68,-4.06 -2.36,-6.15 1.79,-3.06 3.27,-6.42 3.27,-10.03 0.88,-0.51 1.78,-1 2.68,-1.47 z" />
  </g>
  <g
     transform="translate(-107.78,-6.9275463)"
     style="fill:#93eeff;fill-opacity:1"
     id="#c36724ff">
    <path
       style="opacity:1;fill:#93eeff;fill-opacity:1"
       id="path31"
       d="m 777.99,235 c 4.69,-0.99 9.04,-3.22 13.74,-4.24 0.84,1.49 1.69,2.98 2.55,4.47 -1.42,1.4 -2.84,2.8 -4.28,4.19 -0.01,2.05 -0.01,4.1 0,6.15 0.81,0.8 1.63,1.62 2.45,2.44 -2.84,0.07 -5.88,-0.53 -8.46,0.94 -3.12,-2.68 -5.55,1.03 -7.47,3.15 -0.38,-0.38 -1.16,-1.16 -1.54,-1.54 -0.89,0.88 -1.75,1.77 -2.61,2.66 -0.45,-1 -0.9,-2 -1.35,-2.98 1.89,-0.41 3.18,-1.9 4.49,-3.22 -0.84,-0.82 -1.68,-1.63 -2.51,-2.43 -0.01,-1.08 -0.01,-2.15 0,-3.22 -1.01,-0.91 -2,-1.83 -2.99,-2.74 -0.01,-0.54 -0.04,-1.64 -0.05,-2.19 -2.05,-1.23 -3.69,-2.98 -5.49,-4.52 4.82,-0.47 8.83,3 13.52,3.08 z" />
    <path
       style="opacity:1;fill:#93eeff;fill-opacity:1"
       id="path33"
       d="m 783.04,268.44 c 2.05,-1.25 3.7,-3.03 5.57,-4.52 0.9,1.02 1.82,2.05 2.74,3.07 0.54,0.01 1.63,0.04 2.17,0.05 1.24,1.29 2.57,2.52 4.18,3.35 3.34,3.97 1.16,9.53 4.3,13.55 -0.49,1.22 -0.93,2.46 -1.3,3.72 8.23,2.93 6.41,13.58 12.26,18.89 0.02,1.7 0,3.4 -0.1,5.11 -0.43,-1.06 -0.81,-2.13 -1.14,-3.21 -1.18,-0.77 -2.31,-1.61 -3.39,-2.48 -0.69,0.79 -1.37,1.58 -2.04,2.38 -0.41,1.33 -0.9,2.64 -1.42,3.93 0.31,0.31 0.92,0.92 1.23,1.23 -1.31,1.24 -2.61,2.49 -3.89,3.75 -0.5,2.38 -1.24,4.71 -2.31,6.9 -3.17,-0.01 -6.27,-0.74 -9.04,-2.3 -0.46,0.36 -1.4,1.08 -1.87,1.44 -0.01,1.8 0,3.61 0.01,5.42 1.87,0.4 3.68,1.03 5.47,1.73 -1.13,0.53 -2.25,1.06 -3.35,1.61 -0.18,2.36 -0.76,4.66 -1.33,6.94 -1.61,0 -3.2,0 -4.78,0 -0.01,-2.79 -0.02,-5.57 -0.05,-8.35 -2.39,1.17 -4.8,2.42 -7.51,2.55 -3.84,2.68 -7.1,6.03 -8.77,10.49 -4.82,2.04 -7.18,7.48 -13.12,7.55 5.79,-4.88 6.33,-13.2 11.85,-17.87 3.55,-2.38 7.87,-4.18 9.74,-8.32 3.13,2.83 5.24,-1.75 8.08,-2.57 -0.43,-1.94 -1.3,-3.71 -2.23,-5.44 1.4,-2.18 1.42,-4.98 -0.06,-7.12 1.21,0.03 2.42,0.07 3.65,0.1 7.6,-5.5 7.64,-15.74 5.21,-23.92 -1.77,-4.69 -1.68,-9.95 -5.16,-13.88 -1.23,-0.52 -2.45,-1.04 -3.66,-1.54 0.02,-0.56 0.05,-1.68 0.06,-2.24 z" />
    <path
       style="opacity:1;fill:#93eeff;fill-opacity:1"
       id="path35"
       d="m 771.28,347.42 c 3.95,-1.18 4.98,-9.32 9.92,-5.33 -1.02,1.21 -1.97,2.47 -2.67,3.89 -0.59,0 -1.79,-0.01 -2.39,-0.01 -2.14,2.68 -2.45,6.03 -2.15,9.34 -0.5,-0.4 -1.49,-1.2 -1.99,-1.6 0,-0.68 0,-2.03 0,-2.7 -0.51,0.02 -1.53,0.07 -2.04,0.09 0.48,-1.21 0.92,-2.44 1.32,-3.68 z" />
    <path
       style="opacity:1;fill:#93eeff;fill-opacity:1"
       id="path37"
       d="m 752.06,360.37 c 1.52,-4.09 6.03,-4.85 9.87,-4.42 0.04,0.51 0.11,1.54 0.14,2.05 1.73,0 3.47,0 5.22,0.03 -0.34,1.34 -0.73,2.66 -1.2,3.97 1.11,3 1.38,6.23 2.09,9.34 -0.57,-0.42 -1.72,-1.28 -2.3,-1.71 -0.77,0.78 -1.53,1.56 -2.28,2.34 -0.55,0.02 -1.66,0.05 -2.22,0.07 -0.47,-1.01 -0.94,-2.01 -1.4,-3 2.91,-3.86 -0.72,-8.41 -4.66,-9.45 -0.61,1.25 -1.19,2.52 -1.75,3.8 -0.51,-1.02 -1,-2.03 -1.51,-3.02 z" />
  </g>
  <g
     transform="translate(-107.78,-6.9275463)"
     style="fill:#88fcb0;fill-opacity:1"
     id="#9c9a61ff">
    <path
       style="opacity:1;fill:#88fcb0;fill-opacity:1"
       id="path40"
       d="m 310,247.01 c 6.45,1.27 11.29,-6.83 17.68,-2.79 0.77,0.72 1.54,1.44 2.33,2.17 -0.01,2.11 -0.02,4.23 -0.05,6.36 3.07,2.31 7.39,6.1 11.22,3.1 0.46,0.37 1.37,1.1 1.82,1.47 0,1.28 0,2.56 0.01,3.84 6.36,0.4 10.35,-5.75 15.9,-7.15 7.48,3.28 11.31,11.1 15.54,17.63 3.65,3.75 4.76,8.96 6.93,13.55 2.12,-0.43 4.2,-1.11 6.18,-1.99 3.75,2.91 8.66,1.52 13.02,1.8 3.73,3.87 8.18,7.39 9.67,12.82 2.68,1.81 5.74,0.87 8.56,-0.02 -0.34,-2.83 2,-4.44 4.66,-3.93 -0.63,1.24 -1.35,2.43 -2.13,3.58 -0.49,1.41 -1,2.83 -1.52,4.24 -2.1,0.82 -4.09,1.93 -5.7,3.52 -0.96,3.85 -1.2,7.62 0.1,11.44 -1.47,1.13 -2.97,2.21 -4.52,3.22 -2.56,-1.8 -5.48,0.67 -8.32,0.22 -0.75,0.76 -1.49,1.52 -2.23,2.29 -0.37,2.43 -0.95,4.84 -1.3,7.28 -0.73,0.71 -1.44,1.42 -2.16,2.14 -4.77,1.94 -10.56,1.19 -14.69,4.5 -0.14,2.64 3.54,3.19 5.04,4.95 -0.46,5.24 1.02,10.82 -1.27,15.76 -1.51,0 -3,0.01 -4.5,0.04 -1.02,-1.25 -1.97,-2.54 -2.72,-3.96 -4.89,-0.11 -9.62,-1.72 -14.55,-1.12 -3.9,-0.48 -7.14,2.58 -11.03,2.07 -4.85,-0.23 -6.81,-6.76 -11.98,-6.11 -3.37,-0.37 -6.04,2.15 -7.21,5.1 -3.49,0.3 -6.88,-0.54 -10.28,-1.17 -3.97,5 -10.34,7.14 -16.07,9.44 -2.02,1.32 -3.99,2.73 -5.69,4.46 -2.35,3 -5.6,-0.82 -8.41,-1.05 -0.78,-0.7 -1.56,-1.39 -2.34,-2.08 0,-0.55 0.01,-1.65 0.01,-2.2 -1.08,-1.05 -2.15,-2.1 -3.2,-3.15 3.3,-5.21 -3.17,-10.54 -1.9,-16.3 -6.01,0.09 -12.88,2.47 -17.46,-3.02 -1.59,-0.05 -3.12,0.27 -4.5,1.07 -0.89,-0.45 -1.78,-0.89 -2.67,-1.32 -2.23,-4.43 -2.65002,-9.97999 -6.47002,-13.35999 0,0 -14.16593,-1.07273 -6.04998,-7.55001 -9.06,3.02 -19.03,2.6 -28.03,4.91 -2.36,8.58 -4.34,17.66 -6.95,26.33 -0.63,-0.01 -1.88,-0.02 -2.51,-0.03 -0.9,-2.77 -1.9,-5.51 -3.34,-8.04 -2.16,0.02 -4.33,0.03 -6.49,0.03 -0.8,-0.82 -1.61,-1.63 -2.42,-2.43 -0.01,-0.53 -0.02,-1.59 -0.03,-2.12 -6.11,-2.1 -6.32,-9.1 -7.16,-14.44 C 192.88,321 194.94,321 197,321 l 0,-3.55 c 0.75,-0.77 1.5,-1.54 2.26,-2.31 1.9,1.14 4.15,0.84 6.28,0.93 1.24,1.3 2.6,2.5 4.19,3.38 0.89,-6.18 4.15,-11.78 4.43,-18.17 -1.61,-0.93 -3.2,-1.92 -4.64,-3.1 -0.51,-0.09 -1.52,-0.28 -2.03,-0.37 -2.11,-2 -4.93,-2.81 -7.55,-3.87 -2.93,1.68 -5.96,3.54 -9.49,3.15 -0.79,-0.85 -1.59,-1.69 -2.39,-2.52 0.1,-2.8 -0.3,-5.55 -1.32,-8.16 -0.74,-0.98 -1.46,-1.98 -2.16,-2.98 -2.49,-1.37 -4.99,-3.99 -4.51,-7.04 1.51,-2.09 4.13,-2.72 6.14,-4.18 1.64,-3.1 3.79,-6.05 7.06,-7.6 1.55,1.62 2.86,3.44 3.97,5.39 l 2.34,0 c 0.76,-0.8 1.52,-1.59 2.28,-2.39 0.1,-1.86 0.56,-3.65 1.3,-5.36 7.09,-3.51 17.58,-4.81 23.33,1.72 0.59,0 1.76,0.01 2.34,0.02 0.51,0.86 1.02,1.73 1.52,2.61 1.09,0.72 2.14,1.49 3.19,2.29 2.2,0.07 4.51,-0.07 6.46,1.12 4.85,2.67 12.26,-1.46 15.6,4.34 1.18,3.74 4.73,5.42 7.38,7.96 3.1,-4.47 8.33,0.05 12.68,-1.32 0.19,-1.36 0.97,-2.14 2.34,-2.33 l 0,-2.27 c -2.38,-0.88 -4.56,-2.2 -6.3,-4.06 3.71,-3.29 0.33,-7.48 2.46,-11.19 2.16,-0.99 4.5,-1.26 6.85,-1.24 -0.01,-0.61 -0.03,-1.85 -0.04,-2.46 -1.68,-0.58 -2.54,-2.1 -3.26,-3.6 0.9,-0.95 1.79,-1.9 2.68,-2.85 4.4,0.57 8.58,-0.32 12.57,-1.96 5.97,1.12 11.15,-2.64 17.04,-2.02 z" />
    <path
       style="opacity:1;fill:#88fcb0;fill-opacity:1"
       id="path42"
       d="m 330.41,409.04 c 4.1,0.5 7.95,-1.38 12.03,-1.02 1.07,0.95 2.24,1.8 3.54,2.44 0.01,1.37 0.01,2.74 0.03,4.12 5.01,1.2 8.61,8.96 13.78,6.51 0.33,0.38 0.99,1.13 1.32,1.51 -0.83,0.7 -1.64,1.41 -2.46,2.13 -2.87,0.44 -5.3,2.04 -7.14,4.25 -4.71,0.03 -9.43,0.03 -14.14,0 -1.4,1.42 -2.72,2.92 -3.81,4.59 4.26,-0.19 1.51,3.23 0.45,5.21 0.51,0.38 1.53,1.13 2.04,1.51 -0.05,2.11 0.19,4.34 -0.78,6.31 0.68,1.39 1.37,2.78 2.04,4.19 1.33,0.53 2.65,1.07 3.99,1.6 -0.77,0.65 -1.53,1.3 -2.3,1.96 -0.01,1.36 -0.02,2.73 -0.04,4.11 -2.3,4.44 -7.39,7.02 -8.2,12.13 -5.04,2.97 -3.45,13.01 -11.6,12.64 -1.15,1.92 -2.49,3.72 -4.12,5.26 -0.01,0.58 -0.03,1.73 -0.04,2.3 -2.18,0.53 -4.36,1.08 -6.59,1.36 -0.5,-1.08 -1.01,-2.15 -1.53,-3.21 -1.16,0.02 -2.32,0.05 -3.47,0.08 -2.74,2.85 -5.54,5.66 -8.41,8.4 0,1.51 -0.01,3.03 0,4.56 0.84,0.02 2.52,0.06 3.36,0.07 -0.4,0.83 -0.79,1.65 -1.19,2.48 1.24,1.8 1.96,3.85 2,6.05 2.76,1.11 4.48,3.58 5.89,6.07 -0.81,0.7 -1.61,1.41 -2.41,2.13 -4.78,2.89 -9.23,-1.17 -14.13,-0.82 -1.8,1.91 -3.98,3.39 -6.06,4.99 -3.52,-2.65 -6.63,-5.49 -7.53,-10.03 -0.74,0.03 -2.21,0.08 -2.95,0.11 0.02,-1.65 0.04,-3.29 0.08,-4.92 -6.71,-3.8 -14.69,-1.49 -21.99,-2.11 -0.04,-0.52 -0.1,-1.57 -0.14,-2.09 -2.02,0.03 -4.11,-0.02 -5.92,1.03 -4.15,-1.37 -8.68,-1.44 -13.01,-2.05 -0.01,-1.27 -0.02,-2.52 -0.02,-3.77 2.45,-1.33 4.93,-2.59 7.4,-3.88 1.06,0.34 2.13,0.68 3.2,1 0.44,-0.56 1.3,-1.69 1.73,-2.26 0.63,0.02 1.9,0.05 2.54,0.06 1.85,-2.44 2.51,-5.39 2.21,-8.41 -0.43,0.39 -1.3,1.17 -1.73,1.56 -0.96,-2.22 -1.92,-4.45 -2.62,-6.77 -2.78,-2.06 -4.2,-5.7 -7.7,-6.87 -0.02,-2.24 -0.02,-4.48 -0.01,-6.71 5.04,0.79 9.67,3.19 15,2.17 7.34,-1.31 14.82,2.99 21.86,-0.2 0.34,-1.85 0.85,-3.66 1.38,-5.46 1.89,-1.7 3.29,-3.83 3.97,-6.28 3.06,1.73 6.74,0.7 10.08,0.89 -0.3,-1.34 -0.69,-2.65 -1.29,-3.88 4.73,-2.46 9.87,1.69 13.81,-2.4 1.14,-2.65 1.62,-5.5 2.37,-8.27 1.39,-0.75 2.66,-1.7 3.88,-2.69 -0.03,-1.09 -0.06,-2.17 -0.08,-3.25 -0.84,-0.89 -1.67,-1.78 -2.49,-2.67 2.94,1.11 6.05,1.38 9.17,1.24 2.36,-6.3 6.52,-13.31 3.11,-20.01 1.55,-0.03 3.11,-0.05 4.67,-0.09 2.5,-3.01 7.73,-2.84 8.97,-6.9 z" />
  </g>
  <g
     transform="translate(-107.78,-6.9275463)"
     style="fill:#ee5f59;fill-opacity:1"
     id="#0e3030ff">
    <path
       style="opacity:1;fill:#ee5f59;fill-opacity:1"
       id="path45"
       d="m 593.35,257.9 c 0.37,0.31 1.11,0.92 1.47,1.22 -2.72,4.41 1.63,8.08 3.32,11.88 -0.47,0.79 -0.93,1.59 -1.38,2.39 1.83,0.81 3.36,2.1 4.7,3.58 7.92,2.13 13.39,-5.9 21.2,-3.97 0.9,1.01 1.81,2.01 2.73,3.02 -1.28,1.35 -2.57,2.7 -3.83,4.07 -0.33,-0.32 -1,-0.94 -1.33,-1.25 -2.35,1.23 -4.79,2.25 -7.26,3.21 0.06,4.59 -0.01,9.18 0.07,13.78 -3.37,2.66 -7.98,4.08 -10,8.15 -1.11,2.67 -2.11,6.05 -5.15,7.06 -2.32,-0.5 -4.39,-1.77 -6.66,-2.41 -2.49,3.36 -3.01,7.7 -1.02,11.44 -3.2,3.68 -6.41,7.45 -7.99,12.14 -7.02,4.26 -15.74,5.01 -22.85,9.19 -3.48,3.45 -7.59,6.07 -11.54,8.93 -1.09,-1.12 -2.17,-2.24 -3.23,-3.38 -1.93,-0.01 -3.88,0.07 -5.63,0.96 -4.74,-1.84 -9.83,-2.84 -14.06,-5.79 -5.64,-0.29 -11.3,-0.11 -16.94,-0.09 -6.01,1.31 -9.76,8.56 -16.58,7.01 -1.06,-1.14 -2.13,-2.26 -3.21,-3.37 -0.1,-0.57 -0.29,-1.71 -0.39,-2.27 -2.24,-1.89 -3.29,-4.6 -4.01,-7.35 -1.09,-0.07 -2.17,-0.13 -3.25,-0.19 -3.04,-3 -7.56,-3.14 -11.02,-5.41 -4.99,-2.66 -10.93,1.88 -15.74,-0.57 4.81,-10.15 -5.63,-17.73 -8,-26.75 -2.89,0.23 -5.83,-1.83 -8.56,-0.33 -2.2,-2.27 -4.4,-4.52 -6.62,-6.75 0.91,-1.02 1.83,-2.03 2.75,-3.05 1.15,0.01 2.3,0.01 3.45,0.02 2.23,-3.5 4.91,-6.75 8.65,-8.72 5.83,-2.84 12.28,-1.5 18.24,-3.44 0.94,1.26 1.88,2.54 2.77,3.85 2.13,0.9 4.5,3.28 6.85,1.62 4.1,-2.97 8.78,0.53 13.29,-0.31 1.14,-1.19 2.29,-2.37 3.45,-3.54 -1.02,-2.27 -1.17,-4.74 -1.1,-7.18 -1.01,-0.9 -2.02,-1.79 -3.03,-2.66 -0.51,-3.29 1.4,-5.95 3.18,-8.48 3.88,0.75 8.13,3 11.94,0.9 4.74,0.75 7.96,4.02 9.24,8.56 3.3,2.76 7.34,4.08 11.64,3.4 0.05,-0.66 0.14,-1.99 0.19,-2.66 0.74,-0.77 1.48,-1.54 2.22,-2.3 1.1,-0.04 2.21,-0.08 3.33,-0.11 0.42,-0.48 1.28,-1.44 1.71,-1.93 5.1,-1.25 9.37,2.1 14.31,2.1 0.4,0.43 1.21,1.28 1.62,1.71 5.48,0.65 11.25,2.44 16.59,0.04 2.99,-1.58 7,0.18 9.55,-2.3 3.04,-4.51 8.8,-6.43 10.86,-11.74 2.77,0.5 5.53,1.11 8.36,1.29 0.88,-1.08 1.79,-2.15 2.7,-3.22 z" />
    <path
       style="opacity:1;fill:#ee5f59;fill-opacity:1"
       id="path47"
       d="m 337,350.99 c 1.87,0 3.74,0.01 5.61,0.02 2.21,2.25 4.25,5.08 7.45,5.93 4.18,0.91 7.78,-2.33 11.94,-1.98 4.71,-0.48 9.28,0.77 13.94,1.16 0.46,0.91 0.92,1.83 1.38,2.75 1.68,0.57 3.39,1.09 5.11,1.59 -0.52,1.25 -1.78,1.56 -2.94,1.95 -2.94,2.79 -8.34,2.22 -9.91,6.39 -2.31,0.82 -4.74,1.23 -7.19,1.27 -0.78,-0.85 -1.57,-1.69 -2.36,-2.52 -0.48,0.44 -1.44,1.32 -1.93,1.76 1.03,4.23 -1.89,6.77 -6,5.8 -0.5,-1.04 -0.99,-2.08 -1.46,-3.12 -1.08,0.01 -2.15,0.02 -3.21,0.04 -2.23,2.75 -5.22,4.61 -8.39,6.07 0.02,2.41 0.17,4.94 -1.11,7.1 -4.39,-1.48 -9.01,-2.38 -13.66,-2.29 -1.1,-1.51 -2.29,-2.95 -3.53,-4.34 1.4,-0.35 2.24,-1.2 2.51,-2.56 4.46,4.69 7.84,-1.14 11.72,-3.25 0.01,-1.26 0.03,-2.51 0.04,-3.75 -1.88,-0.01 -3.75,-0.02 -5.62,-0.02 -1.09,-1.13 -2.19,-2.25 -3.3,-3.36 -0.04,-0.67 -0.13,-2.02 -0.18,-2.69 -2.29,-0.03 -4.64,-0.06 -6.79,0.87 -0.31,-0.36 -0.93,-1.07 -1.25,-1.43 3.67,-0.65 3.89,-4.88 5.23,-7.63 4.51,1.43 9.3,1.38 13.89,2.45 0,-2.07 0.01,-4.14 0.01,-6.21 z" />
  </g>
  <g
     transform="translate(-107.78,-6.9275463)"
     style="fill:#ee5f59;fill-opacity:1"
     id="#613000ff">
    <path
       style="opacity:1;fill:#ee5f59;fill-opacity:1"
       id="path50"
       d="m 701.81,305.05 c 2.85,-4.35 5.62,-8.73 9.25,-12.49 -0.05,2.03 -0.07,4.06 -0.06,6.1 2.94,0 2.03,3.29 1.9,5.24 -2.31,5.01 -7.43,9.92 -5.35,15.84 -0.2,0.49 -0.6,1.48 -0.81,1.98 3.89,1.52 9.64,0.67 11.74,4.98 -4.82,-0.49 -9.46,3.12 -8.52,8.25 -1.43,-0.71 -2.99,-0.99 -4.56,-1.06 -0.69,0.75 -1.38,1.5 -2.07,2.25 -1.71,-0.95 -3.63,-1.23 -5.54,-1.31 0.82,-1.32 1.69,-2.68 3.17,-3.35 0.02,-1.7 0.03,-3.41 0.05,-5.11 -2.31,-3.78 -6.26,-4 -9.39,-1.03 -0.78,-1.07 -2.41,-2.4 -1.37,-3.82 4.06,-4.21 6.14,-11.07 3.78,-16.59 2.58,0.06 5.18,0.08 7.78,0.12 z" />
  </g>
  <g
     transform="translate(-107.78,-6.9275463)"
     id="#f59b00ff">
    <path
       style="opacity:1;fill:#ee5f59;fill-opacity:1"
       id="path53"
       d="m 187.75,298.78 c 3.89,2.94 8.69,-0.02 12.33,-1.94 3.61,2.79 7.88,4.29 11.97,6.19 -1.18,1.59 -1.08,3.57 -1.17,5.44 -1.19,1.41 -2.17,2.96 -3.12,4.54 -1.82,0 -3.63,-0.01 -5.44,-0.01 -0.41,-0.5 -1.23,-1.5 -1.64,-2 -1.1,-0.01 -2.19,-0.01 -3.27,-0.01 -0.73,0.78 -1.46,1.57 -2.18,2.37 -0.32,1.27 -0.74,2.51 -1.22,3.73 -1.62,-1.27 -3.67,-1.13 -5.59,-1.15 -0.9,0.97 -1.8,1.95 -2.71,2.92 0.77,1.43 1.52,3.1 3.27,3.54 0.02,3.03 0.02,6.06 0.04,9.09 1.65,2.3 3.71,4.19 6.01,5.83 -0.01,1.43 -0.02,2.86 -0.03,4.3 -1.04,0.49 -2.06,1 -3.08,1.53 0.34,2.27 -0.83,5.28 1.44,6.81 4.56,1.51 2.79,-6.52 7.62,-5.15 0.01,1.9 0.02,3.8 0.05,5.71 1.24,1.2 2.4,2.49 3.38,3.93 -1.05,0.49 -2.08,0.99 -3.11,1.51 -0.74,-0.82 -1.48,-1.62 -2.23,-2.41 -0.44,0.42 -1.33,1.27 -1.77,1.69 -0.8,-1.34 -0.69,-4.81 -2.9,-4.17 -3.38,3 -4.69,7.63 -5.62,11.91 0.91,0 2.75,0.02 3.66,0.03 -0.81,0.81 -1.62,1.62 -2.44,2.43 0,0.59 -0.02,1.77 -0.03,2.36 1.37,0.81 2.74,1.61 4.11,2.43 -0.04,0.56 -0.12,1.68 -0.16,2.24 -3.93,4.06 -4.08,10.22 -3.92,15.53 -5.68,-0.47 -11.96,1.42 -17.03,-1.95 -5.44,-2.09 -7.52,-8.34 -12.96,-10.49 -0.02,-3.52 -0.01,-7.04 -0.01,-10.55 0.64,-0.01 1.92,-0.02 2.57,-0.02 0.66,-1.72 1.93,-3.06 3.18,-4.38 0.39,-2.14 1.42,-4.06 2.5,-5.92 1.36,0.33 2.69,0.8 3.94,1.45 0.5,-0.38 1.49,-1.14 1.99,-1.52 -0.43,-1.79 -0.94,-3.56 -1.38,-5.34 -0.91,-0.89 -1.82,-1.78 -2.72,-2.66 0.36,-7.33 -6.2,-13.81 -3.5,-21.21 0.26,-1.98 1.59,-3.47 3.57,-3.84 -0.61,-1.48 -1.13,-2.99 -1.41,-4.56 -0.43,-0.01 -1.3,-0.04 -1.74,-0.06 0,-0.66 0,-1.97 0,-2.63 -0.5,-0.41 -1.5,-1.23 -2,-1.64 0,-1.19 0,-2.37 0,-3.54 4.88,0.64 7.58,-3.9 10.99,-6.5 0.49,0.43 1.47,1.28 1.96,1.71 0.61,-0.26 1.83,-0.78 2.44,-1.04 1.04,0.3 2.08,0.59 3.14,0.88 0.72,-2.27 2.53,-3.85 4.22,-5.41 z" />
  </g>
  <g
     transform="translate(-107.78,-6.9275463)"
     style="fill:#52b3c7;fill-opacity:1"
     id="#c89a60ff">
    <path
       style="opacity:1;fill:#52b3c7;fill-opacity:1"
       id="path56"
       d="m 222.19,324.14 c 6.53,-1.95 13.6,-1.55 20.25,-3.32 -0.74,0.85 -1.48,1.69 -2.23,2.53 -0.72,2.3 -1.31,4.64 -1.31,7.07 3.75,-0.68 3.66,-5.62 7.01,-6.84 0.03,0.78 0.08,2.33 0.11,3.1 -0.51,0.41 -1.51,1.23 -2.02,1.64 -0.01,0.6 -0.02,1.81 -0.03,2.41 3.13,2.37 6.58,0.56 8.91,-1.94 1.39,4.61 4.53,8.54 5.38,13.31 3.32,0.45 6.74,-2.38 9.75,-0.11 4.01,2.98 9.11,1.87 13.75,1.97 1.46,2.77 1.33,5.91 1.24,8.95 0.61,0.05 1.82,0.13 2.43,0.17 -0.81,0.78 -1.62,1.56 -2.43,2.34 0,1.85 0,3.71 0,5.58 1.33,0 2.66,0 4,0 -0.01,1.52 0,3.04 0,4.57 0.81,0.79 1.62,1.59 2.43,2.39 4.06,-0.87 7.3,2.04 11.21,2.23 1.57,-2.31 3.34,-4.47 5.76,-5.94 3.03,-0.66 5.86,-2.09 8.15,-4.18 0.7,-0.04 2.1,-0.11 2.8,-0.15 -1.69,1.48 -3.72,4.12 -1.18,5.9 1.63,2.56 4.23,-0.2 6.37,0.31 2.63,1.97 4.27,5.36 7.66,6.21 -0.87,0.88 -1.73,1.76 -2.57,2.67 -1.29,-0.81 -2.59,-1.6 -3.87,-2.41 -0.93,1.1 -1.74,2.29 -2.26,3.64 -1.33,-0.33 -2.59,-0.83 -3.8,-1.44 -0.74,0.77 -1.47,1.54 -2.19,2.32 -0.57,-0.58 -1.12,-1.15 -1.68,-1.72 0.54,-0.42 1.63,-1.28 2.17,-1.7 0,-2.62 0,-5.24 -0.01,-7.85 -2.47,0.06 -4.66,1.24 -6.38,2.96 -3.28,-2.33 -8.02,-0.31 -6.68,4.09 -2.24,1.46 -5.58,2.03 -6.32,5 -5.22,-1.03 -8.47,3.15 -9.86,7.58 2.2,0.9 4.38,1.95 6.04,3.71 0.27,1.15 0.59,2.3 0.97,3.43 -1.9,2.13 -3.07,4.75 -4.09,7.38 -0.65,0 -1.94,0 -2.58,0 1.06,-10.61 -12.58,-11.46 -17.94,-18.18 -8.66,-3.21 -9.44,-13.09 -12.4,-20.52 -1.33,-1.39 -2.69,-2.75 -4.04,-4.11 -1.9,-0.48 -3.79,-1 -5.7,-1.4 0.09,-2.94 0.17,-5.95 -1.15,-8.65 -1.5,-0.52 -3,-1 -4.54,-1.34 -0.49,-0.96 -0.98,-1.91 -1.47,-2.86 -1.18,0.02 -2.35,0.05 -3.52,0.08 -0.4,0.46 -1.21,1.38 -1.61,1.84 -3.36,-0.19 -5.99,2.41 -9.33,2.28 -1.13,1.09 -2.25,2.18 -3.38,3.27 -0.01,0.71 -0.03,2.14 -0.04,2.85 -2.39,-0.89 -4.79,-1.74 -7.19,-2.57 2.92,-8.73 4.2,-17.92 7.41,-26.55 z" />
    <path
       style="opacity:1;fill:#52b3c7;fill-opacity:1"
       id="path58"
       d="m 564.97,526.07 c 1.59,-0.07 3.11,-0.57 4.57,-1.21 1.31,2.85 3.14,5.46 5.42,7.62 0.02,1.02 0.04,2.05 0.06,3.08 2.22,0.88 3.83,2.68 5.39,4.42 0.57,0.01 1.69,0.05 2.25,0.06 0.44,-0.56 1.32,-1.67 1.76,-2.23 1.44,1.41 2.82,2.9 3.91,4.61 -2.71,0.49 -3.67,3.03 -4.66,5.23 3.51,0.51 6.53,2.47 9.66,4.02 6.43,2.84 8.83,11.48 16.27,12.56 1.86,3.76 5.9,5.67 8.25,9.12 -1.63,2.05 -0.54,4.58 0.4,6.67 0.79,-0.01 2.38,-0.02 3.17,-0.03 -1.21,1.26 -2.42,2.51 -3.62,3.77 1.51,2.57 2.52,5.39 3.46,8.23 -1.33,0 -2.65,0 -3.96,0.02 -0.41,-0.53 -1.23,-1.59 -1.64,-2.12 -3.66,-0.85 -5.54,2.14 -4.71,5.49 -0.92,-0.87 -1.82,-1.73 -2.73,-2.57 -1.71,1.96 -5.95,1.47 -5.17,-1.73 1.72,-3.13 3.2,-7.15 0.74,-10.34 0.72,-0.73 1.44,-1.44 2.18,-2.14 0.03,-0.61 0.08,-1.83 0.11,-2.44 -3.6,-2.34 -12.82,-4.61 -8.93,-10.32 -1.4,-2.04 -3.36,-3.64 -4.56,-5.8 -0.54,-0.02 -1.61,-0.05 -2.15,-0.06 -2.12,-3.58 -10.22,-8.39 -10.64,-1.35 -1.07,1.13 -2.14,2.27 -3.19,3.42 -1.4,-0.89 -2.78,-1.81 -4.02,-2.91 -2.21,0.75 -5.04,1.45 -4.87,4.37 -0.94,1.2 -1.71,2.5 -2.21,3.95 -2.99,-5.41 -1.09,-11.66 -0.48,-17.36 -0.66,-3.68 -4.72,-1.26 -7.01,-0.86 -0.02,-1.6 -0.03,-3.19 -0.02,-4.78 -0.78,-0.8 -1.54,-1.59 -2.3,-2.38 -1,0.44 -2,0.87 -3.01,1.29 -0.15,-2.47 2.39,-2.81 4.09,-3.69 0.28,-2.26 1.31,-4.32 2.89,-5.95 2.18,1.69 4.96,1.27 7.53,1.29 -0.92,-2.94 -0.83,-6.18 -2.23,-8.95 z" />
  </g>
  <g
     transform="translate(-107.78,-6.9275463)"
     style="fill:#93eeff;fill-opacity:1"
     id="#956627ff">
    <path
       style="opacity:1;fill:#93eeff;fill-opacity:1"
       id="path61"
       d="m 717.57,329.83 c 1.26,-1.18 2.57,-2.31 3.99,-3.31 0.59,1.01 1.19,2.04 1.78,3.07 1.06,0.72 2.1,1.47 3.14,2.25 0.59,0.05 1.75,0.16 2.34,0.22 2.35,2.79 4.43,6.08 4.32,9.88 0.89,0.47 1.8,0.92 2.72,1.38 0.47,1.38 0.94,2.77 1.38,4.18 -3.29,2.03 -6.28,5.05 -8.65,8.17 -2.07,1.05 -4.73,1.86 -4.99,4.58 -0.78,-0.86 -1.56,-1.71 -2.34,-2.55 -0.44,-1.52 -0.92,-3.03 -1.36,-4.54 1.56,-1.79 1.04,-3.91 -0.09,-5.73 -1.87,-0.83 -3.32,-2.25 -4.23,-4.05 -0.54,-0.34 -1.61,-1.02 -2.15,-1.36 0.91,-0.02 2.72,-0.04 3.62,-0.06 -0.05,-1.16 -0.09,-2.31 -0.13,-3.47 -3.33,-2.59 -6.33,-9.51 0.65,-8.66 z" />
    <path
       style="opacity:1;fill:#93eeff;fill-opacity:1"
       id="path63"
       d="m 204.04,342.6 c 3.47,2.17 3.53,7.72 5.26,11.4 5.22,-1.81 9.75,3.53 14.52,0.86 0.61,-1.97 1.3,-3.91 2.24,-5.75 4.14,-0.64 8.54,-0.87 12.13,-3.27 1.74,1.71 3.67,3.19 5.79,4.39 0.02,2.1 0.02,4.2 0.04,6.31 1.15,0.66 2.3,1.37 3.43,2.08 2.95,0.69 5.46,2.39 7.41,4.67 -0.05,3.62 2.71,6.55 2.28,10.25 1.79,1.71 3.19,3.75 4.19,6.02 7.69,5.03 14.57,11.17 22.66,15.63 0.01,0.73 0.03,2.18 0.04,2.9 -2.01,-1.25 -4.19,-2.27 -6.62,-2.24 -0.9,1.05 -1.82,2.09 -2.74,3.13 -4.06,-0.95 -7.95,0.74 -6.84,5.49 -0.84,1.12 -1.61,2.29 -2.32,3.5 -3.48,0.06 -6.95,0.04 -10.43,-0.01 -0.75,1.69 -1.43,3.42 -2.18,5.12 -1.17,-0.05 -2.33,-0.09 -3.49,-0.12 -0.43,-0.42 -1.29,-1.25 -1.71,-1.67 -1.27,-0.4 -2.52,-0.83 -3.76,-1.29 0.07,-3 0.07,-6 0.06,-8.99 -0.64,0 -1.93,-0.01 -2.58,-0.01 -0.8,-0.82 -1.61,-1.63 -2.42,-2.42 0,-0.65 -0.01,-1.93 -0.01,-2.58 -1.2,0 -2.4,-0.01 -3.59,0 -0.94,-2.68 -2.6,-4.98 -4.66,-6.9 -0.56,-0.07 -1.69,-0.22 -2.25,-0.29 -1.99,-1.59 -4.25,-2.79 -6.51,-3.94 0.01,-0.72 0.02,-2.15 0.03,-2.86 -4.32,0.32 -8.92,-0.9 -13.01,0.9 -3.12,-1.54 -6.68,-0.75 -10.01,-0.97 -0.52,1.32 -0.95,2.68 -1.3,4.06 -1.11,0 -2.21,0 -3.31,0 -0.86,-0.94 -1.72,-1.86 -2.58,-2.79 1.55,-2.32 2.54,-4.93 2.32,-7.76 2.69,-0.89 3.73,-4.39 1.83,-6.53 0.69,-1.27 1.38,-2.54 2.08,-3.8 -0.48,-1.27 -0.92,-2.55 -1.34,-3.83 -1.61,-1.58 -3.23,-3.22 -4.21,-5.29 4.77,1.18 9.99,3.28 14.7,0.75 0.08,-2.81 -1.14,-5.34 -3.11,-7.29 -0.07,-2.29 -0.08,-4.58 -0.03,-6.86 z" />
    <path
       style="opacity:1;fill:#93eeff;fill-opacity:1"
       id="path65"
       d="m 383.04,657.99 c 1.15,0.45 2.31,0.89 3.49,1.32 2.84,2.73 4.52,6.39 7.34,9.14 -0.32,3.6 1.57,6.67 3.28,9.67 -0.75,1.86 -1.19,3.83 -1.29,5.85 -3.48,2.18 -7.48,3.38 -11.6,3.13 -7.14,-8.29 -3.65,-19.82 -1.22,-29.11 z" />
  </g>
  <g
     transform="translate(-107.78,-6.9275463)"
     style="fill:#ee5f59;fill-opacity:1"
     id="#facd95ff">
    <path
       style="opacity:1;fill:#93eeff;fill-opacity:1"
       id="path68"
       d="m 311.54,371 c 0.85,-0.85 1.71,-1.67 2.6,-2.48 -0.02,1.87 -0.63,3.62 -1.29,5.34 -1.54,0.53 -3.07,1.09 -4.69,1.29 -0.81,1.25 -1.56,2.53 -2.31,3.81 0.52,0.99 1.02,1.99 1.51,3.01 4.44,-1.59 8.22,3.88 12.26,1.18 0.5,-0.05 1.49,-0.15 1.99,-0.19 0.49,1.04 1.01,2.07 1.54,3.1 4.75,-0.84 9.19,1.33 13.9,0.98 -0.05,1.11 -0.11,2.22 -0.18,3.33 -0.58,1.15 -0.95,2.36 -1.12,3.64 4,-1.01 6.36,0.61 7.11,4.56 -0.31,0.61 -0.92,1.82 -1.22,2.43 -2.77,0 -5.54,0 -8.3,0 -0.42,0.49 -1.25,1.48 -1.67,1.97 -1.02,0.04 -2.03,0.1 -3.04,0.17 -1.09,0.51 -2.23,0.86 -3.41,1.05 -0.94,1.31 -1.54,3.13 -3.48,3.13 3.03,-5.23 -0.47,-10.73 0.26,-16.21 -1.6,-0.1 -3.31,0.03 -4.64,-1.03 -3.31,2.75 -7.52,4.03 -10.86,6.7 -3.18,-0.22 -4.1,2.74 -3.48,5.37 -3.34,-2.6 -7.78,1.8 -11.36,-1.53 1.06,-2.8 3.41,-4.94 4.34,-7.75 -0.62,-2.13 -1.16,-4.27 -1.1,-6.5 -1.69,-0.94 -3.31,-2.03 -5.13,-2.7 0.89,-0.88 1.78,-1.78 2.66,-2.67 1.71,-0.01 3.43,0 5.16,0 0.73,-2.04 2.34,-3.52 3.82,-5.03 0.59,0.02 1.77,0.06 2.36,0.08 0.59,-1.66 1.2,-3.31 1.46,-5.05 2.1,-0.01 4.2,0 6.31,0 z" />
    <path
       style="opacity:1;fill:#ee5f59;fill-opacity:1"
       id="path70"
       d="m 594.62,594.26 c 1.62,-0.22 3.25,-0.51 4.62,-1.49 1.07,1.05 2.13,2.12 3.19,3.21 2.07,0.1 4.36,-0.44 6.19,0.88 1.04,0.07 2.09,0.15 3.14,0.22 0.88,-1.46 1.72,-2.94 2.61,-4.39 0.66,0.76 1.32,1.53 1.99,2.31 1.06,-0.01 2.12,-0.01 3.2,0 1.49,1.56 3.03,3.09 4.6,4.58 -0.53,0.43 -1.6,1.3 -2.13,1.73 0.49,2.8 -0.18,6.5 -3.87,5.78 -0.51,0.84 -1.01,1.69 -1.5,2.55 -1.84,0.93 -3.31,2.4 -4.8,3.8 0.06,1.75 0.38,3.47 1.31,4.99 -0.97,-0.46 -1.93,-0.92 -2.87,-1.4 -0.9,0.99 -1.79,1.98 -2.68,2.99 -0.58,-0.02 -1.76,-0.04 -2.34,-0.05 -1.31,2.58 -3.68,4.46 -4.7,7.19 -2.29,-1.39 -4.96,-1.22 -7.52,-1.19 -0.04,-2.17 0.2,-4.5 -1.32,-6.27 -1.2,1.21 -2.39,2.43 -3.56,3.68 -2.41,-8.31 -4.25,-16.42 -6.32,-24.86 1.62,-1.5 3.18,-3.06 4.67,-4.69 2.6,0.72 5.52,2.07 8.09,0.43 z" />
  </g>
  <g
     transform="translate(-107.78,-6.9275463)"
     style="fill:#ee5f59;fill-opacity:1"
     id="#facc57ff">
    <path
       style="opacity:1;fill:#ee5f59;fill-opacity:1"
       id="path73"
       d="m 307.01,399.41 c 3.46,-2.05 7.25,-3.72 9.98,-6.77 0.47,0.41 1.4,1.24 1.87,1.66 0.4,4.06 2.55,8.58 0.2,12.41 1.9,2.56 5.47,5.1 6.34,0.29 0.57,0 1.7,0 2.27,0 0.41,-0.5 1.25,-1.5 1.66,-2 1.2,-0.01 2.4,0 3.6,0.01 0.04,-0.57 0.11,-1.7 0.14,-2.26 2.61,1.51 5.63,1.23 8.53,1.35 -3.36,2.09 -7.36,2.05 -11.16,1.91 -2.27,3.25 -6.09,4.48 -9.01,6.93 -2.46,0.39 -5.73,-0.98 -7.39,1.44 -0.25,3.51 1.57,6.76 2.13,10.19 -0.5,0.43 -1.48,1.29 -1.98,1.72 -0.25,1.11 -0.55,2.21 -0.89,3.31 -0.27,1.54 -0.58,3.1 -1.34,4.5 -1.28,-0.93 -2.83,-1.14 -4.34,-1.37 -2.97,-2.18 -6.75,0.09 -5.66,3.75 3.96,2.09 0.82,4.66 -1.91,5.73 0,3.03 -0.28,6.43 -2.4,8.78 -2.24,0.38 -4.02,-1.31 -5.88,-2.25 -0.71,0.69 -1.41,1.38 -2.12,2.08 -2.53,0.36 -5.5,1.29 -6.04,4.18 -2.06,0 -4.11,0 -6.17,0 -0.81,0.81 -1.62,1.63 -2.44,2.44 0,0.54 0,1.61 0,2.15 -1.34,1.26 -2.66,2.55 -4,3.82 0,1.19 0,2.38 0,3.58 -6.24,0.93 -12.25,-2.21 -18.44,-0.64 -5.59,2.17 -10.87,-1.56 -16.27,-2.56 -0.48,-1.34 -1.44,-2.39 -2.36,-3.43 0.46,-0.41 1.39,-1.21 1.85,-1.62 0.43,-2.89 2.51,-5.29 2.33,-8.3 -2.09,-0.71 -3.6,-2.34 -5.13,-3.84 -1.14,-3.83 2.03,-7.94 0.08,-11.26 0.9,-1.39 1.87,-2.74 3.03,-3.92 -1.19,-3.8 -2.25,-9.92 3.91,-8.52 0,-1.3 0,-2.6 0,-3.9 0.75,0 2.26,0 3.01,0 -0.01,-2.05 -0.02,-4.09 -0.09,-6.13 1.16,0.71 2.46,1.12 3.8,1.33 0.41,0.45 1.23,1.35 1.64,1.8 1.73,0 3.46,0 5.2,0 0.8,-0.82 1.62,-1.64 2.44,-2.44 0,-0.64 0,-1.93 0,-2.57 3.92,-0.18 8.12,0.77 11.75,-1.16 0.65,-2.01 1.68,-3.89 3.21,-5.37 0.01,-0.62 0.04,-1.86 0.06,-2.48 1.61,0.02 3.22,0.04 4.83,0.07 0.52,-1.01 1.03,-2.03 1.53,-3.05 1.02,0 2.05,0.01 3.09,0.03 3.4,3.38 8.57,3.72 12.91,5.27 3.31,1.74 6.81,-1.45 10.16,0.87 0.43,-1.8 1.61,-3.17 3.45,-3.56 0.01,-0.55 0.02,-1.65 0.02,-2.2 z" />
  </g>
  <g
     transform="translate(-107.78,-6.9275463)"
     style="fill:#52b3c7;fill-opacity:1"
     id="#3f652aff">
    <path
       style="opacity:1;fill:#52b3c7;fill-opacity:1"
       id="path76"
       d="m 358.62,427.97 c 1.02,-1.08 2.06,-2.14 3.1,-3.2 1.05,0.51 2.1,1.03 3.17,1.54 2.2,6.48 2.7,15.04 10.1,17.91 0,1.43 -0.01,2.85 -0.01,4.29 -1.93,0.98 -3.56,2.4 -5.12,3.87 0.27,3.84 1.56,7.56 1.15,11.45 6.38,1.52 13.59,2.12 18.15,7.59 -3.33,2.91 -7.13,6.38 -6.23,11.31 3.76,2.78 7.98,4.92 11.48,8.04 0.52,0.13 1.56,0.38 2.09,0.51 2.49,1.86 5.75,2.36 8.02,4.56 2.19,0.04 4.42,0.15 6.48,1.02 1.47,-0.59 3.02,-0.89 4.61,-1 0.88,1.04 1.8,2.07 2.72,3.1 3.42,-0.63 6.32,0.83 9.01,2.75 6.43,0.62 13.16,0.49 19.35,2.46 0.23,-0.68 0.69,-2.06 0.92,-2.75 2.83,1.3 -0.15,3.97 0.25,6.2 0.53,0.43 1.59,1.28 2.12,1.71 0.01,1.09 0.02,2.19 0.04,3.3 -1.14,0.52 -2.26,1.04 -3.37,1.59 0.95,4.55 4.16,8.1 5.72,12.4 4.17,4.19 6.19,9.68 7.58,15.29 -4.03,1.8 -9.48,1.5 -8.2,-4.38 -2.38,1 -3.73,3.2 -4.92,5.36 -0.59,0.06 -1.76,0.19 -2.35,0.25 -2.26,1.63 -4.48,3.32 -6.55,5.18 0,2.39 -0.13,4.89 1.22,7 -4.64,5.89 -12.57,7.71 -16.84,14 -1.67,2.99 -4.7,4.63 -6.8,7.21 -4.89,3.48 -9.63,7.08 -14.42,10.68 1.27,4.77 -2.44,6.85 -6.7,5.84 -1.1,1.1 -2.2,2.21 -3.31,3.32 -0.04,0.62 -0.11,1.84 -0.14,2.45 -2.63,0.39 -5.23,0.97 -7.86,1.32 -1.18,2.26 -2.64,4.84 -1.68,7.47 1.44,4.02 -0.49,8.55 1.6,12.39 1.36,2.27 1.06,4.95 0.9,7.47 -2.56,4.07 -6.54,8.02 -5.98,13.2 0.52,0.41 1.57,1.25 2.09,1.67 -0.01,2.15 -0.01,4.31 -0.01,6.48 -5.5,-0.81 -8.52,4.18 -8.14,9.09 -0.6,0.06 -1.79,0.18 -2.38,0.24 -3.49,2.11 -7.14,5.08 -6.61,9.66 -1.77,0.63 -4.37,2.28 -5.6,-0.08 -6.06,-5.7 -8.41,-13.97 -10.47,-21.57 -2.81,-8.8 -11.11,-15.44 -10.93,-25.19 -1.09,-9.7 -6.88,-17.2 -11.26,-25.62 -1.49,-5.72 -0.7,-12.04 -3.45,-17.43 -0.37,-3.87 0.3,-7.91 -1.54,-11.52 -2.68,-5.79 3.86,-11.77 0.37,-17.4 -2.23,-2.85 0.76,-5.74 1.31,-8.62 -1.76,-0.47 -3.5,-1 -5.21,-1.6 -1.26,4.59 -1.42,11.2 -7.8,11.52 -0.42,0.44 -1.27,1.31 -1.69,1.75 -7.22,1.15 -9.77,-7 -14.43,-10.76 0.1,-3.16 5.17,-3.44 7.77,-3.38 0.03,-0.64 0.09,-1.92 0.11,-2.56 0.48,-0.42 1.42,-1.27 1.9,-1.7 0.03,-0.71 0.09,-2.12 0.11,-2.83 -2.9,-0.22 -5.26,1.6 -7.95,2.24 -2.52,-1.58 -4.7,-3.64 -7.15,-5.31 0.03,-1.28 0.07,-2.54 0.11,-3.8 -1.13,0.48 -2.26,0.95 -3.39,1.42 0.38,-0.59 1.14,-1.78 1.52,-2.38 1.46,0 2.92,0 4.39,0.01 1.88,-5.12 8.48,3.13 11.95,-1.8 1.08,0.79 2.19,1.56 3.34,2.29 0.03,-0.81 0.11,-2.42 0.15,-3.23 1.71,-0.13 3.25,-0.78 4.39,-2.09 -1.89,-2.88 -4.29,-5.63 -4.71,-9.17 -0.66,0.01 -1.98,0.04 -2.64,0.05 -1.45,-2.28 -1.82,-4.98 -1.06,-7.57 -1.41,-0.94 -2.63,-2.15 -4.17,-2.9 1.76,-2.23 4.1,-3.97 5.4,-6.55 0.6,-0.01 1.8,-0.03 2.39,-0.04 0.49,1.06 0.99,2.12 1.49,3.18 2.94,-0.19 5.81,-0.89 8.72,-1.32 2.88,-3.52 4.67,-8.12 9.37,-9.63 5.93,-2.18 3.85,-10.6 9.61,-12.66 -0.27,-6.95 9.27,-9.87 7.23,-17.32 1.51,-0.2 4.34,-0.48 3.91,-2.64 -2.43,-1.77 -5.47,-2.89 -6.79,-5.8 1.73,-2.86 0.6,-6.05 -1.13,-8.58 0.53,-0.39 1.58,-1.17 2.11,-1.56 0.16,-1.86 -0.67,-3.02 -2.65,-3.11 6.02,-4.25 14.45,3.04 18.97,-4.49 1.04,-0.04 2.09,-0.07 3.15,-0.09 z" />
    <path
       style="opacity:1;fill:#52b3c7;fill-opacity:1"
       id="path78"
       d="m 498.11,473.04 c 5.01,0.85 9.08,-2.6 13.85,-3.3 0.01,0.72 0.04,2.17 0.05,2.89 1,0.48 2.01,0.96 3.02,1.46 -0.02,1.63 -0.03,3.27 -0.04,4.91 1.56,-0.01 3.13,-0.01 4.7,0 0.37,0.43 1.1,1.29 1.47,1.72 -3.41,1.16 -5.68,3.81 -1.88,6.33 -1.98,-0.04 -3.94,-0.05 -5.9,-0.06 -3.39,5.46 -10.37,8.23 -11.67,14.77 -0.92,0.89 -1.84,1.78 -2.77,2.67 0.78,5.35 0.98,10.67 -1.13,15.83 -0.46,-0.41 -1.38,-1.23 -1.84,-1.64 -1.33,1.25 -2.65,2.51 -3.97,3.77 0.63,5.49 -1.41,10.75 -1.11,16.23 -2.67,-4.84 -3.06,-10.96 -1.68,-16.29 -2.16,-2.96 -5.49,-2.79 -7.54,0.2 0.4,0.66 0.8,1.33 1.21,2.01 -0.95,1.67 -1.88,3.37 -2.84,5.04 -1.5,-6.89 1.25,-13.25 7.12,-17.04 -0.19,-2.02 -0.75,-3.98 -1.49,-5.85 -6.12,2.73 -12.76,4.95 -19.56,4.3 0.36,-3.64 -1.19,-6.96 -3.35,-9.79 4.31,-5.35 12.52,-2.54 18.3,-5.38 -0.05,-1.16 -0.08,-2.32 -0.11,-3.47 -0.78,-0.74 -1.56,-1.47 -2.32,-2.2 1.91,-1.17 4.12,-1.25 6.3,-1.21 0.48,-0.97 0.96,-1.94 1.43,-2.91 0.58,-0.02 1.73,-0.06 2.31,-0.08 3.78,-3.79 7.08,-8.09 9.44,-12.91 z" />
  </g>
  <g
     transform="translate(-107.78,-6.9275463)"
     style="fill:#ee5f59;fill-opacity:1"
     id="#6c9bd1ff">
    <path
       style="opacity:1;fill:#ee5f59;fill-opacity:1"
       id="path81"
       d="m 391.33,473.09 c 2.03,1.93 4.38,-0.38 6.69,-0.13 3.46,0.1 5.46,3.32 7.36,5.78 6.73,2.78 13.87,5.98 19.06,11.23 4.25,-0.99 8.63,2.58 12.55,0.05 2.01,1.28 4.42,0.84 6.67,1.13 2.58,2.01 0.48,5.97 2.55,8.49 -2.27,1.25 -4.97,1.9 -7.34,0.5 -3.68,-2.17 -8.23,-0.04 -11.87,-2.14 -1.99,-1.28 -4.38,-1.01 -6.61,-1.05 -2.28,-6.27 -10.13,-2.75 -15.07,-3.98 -0.41,-0.49 -1.23,-1.47 -1.64,-1.95 -1.04,-0.04 -2.07,-0.06 -3.1,-0.09 -4.72,-3.65 -10.3,-6.13 -14.6,-10.3 0,-1.09 0,-2.17 0,-3.25 1.64,-1.61 3.37,-3.12 5.35,-4.29 z" />
  </g>
  <g
     transform="translate(-107.78,-6.9275463)"
     id="#c0352bff">
    <path
       style="opacity:1;fill:#93eeff;fill-opacity:1"
       id="path84"
       d="m 459,487.29 c 1.2,-0.33 2.41,-0.65 3.61,-1 4.3,2.98 9.74,1.3 14.61,1.7 -0.53,1.51 -1.04,3.03 -1.44,4.58 0.7,0.31 2.11,0.91 2.82,1.21 -4.1,0.55 -8.15,1.65 -12.33,1.22 -0.37,0.5 -1.11,1.48 -1.48,1.98 -1.95,-1.26 -4.1,-2.16 -6.45,-2.13 -0.45,-0.89 -0.9,-1.77 -1.34,-2.65 0.5,-0.36 1.5,-1.1 2,-1.47 -0.01,-1.15 -0.01,-2.3 0,-3.44 z" />
  </g>
  <g
     transform="translate(-107.78,-6.9275463)"
     style="fill:#52b3c7;fill-opacity:1"
     id="#000000ff">
    <path
       style="opacity:1;fill:#52b3c7;fill-opacity:1"
       id="path87"
       d="m 447.92,490.99 c 1.23,0 2.46,0.01 3.71,0.02 0.08,1.98 1.73,2.09 3.32,2.15 0.36,1.22 0.67,2.49 0.24,3.76 2.65,0.35 5.19,1.27 7.64,2.33 -1.43,0.83 -2.64,1.96 -3.89,3.02 -1.66,-2.46 -4.28,-3.9 -6.75,-5.39 -1.06,1.47 -2.21,2.93 -2.5,4.8 -1.32,-3.41 -1.78,-7.06 -1.77,-10.69 z" />
  </g>
  <g
     transform="translate(-107.78,-6.9275463)"
     style="fill:#93eeff;fill-opacity:1"
     id="#d0cc59ff">
    <path
       style="opacity:1;fill:#93eeff;fill-opacity:1"
       id="path90"
       d="m 452.97,500.7 c 1.58,1.42 3.86,2.29 4.52,4.49 1.16,-0.24 2.3,-0.6 3.34,-1.19 0.86,1.55 1.79,3.08 3.01,4.39 -1.12,1.65 -1.56,4.39 0.52,5.5 6.96,1.08 13.73,-0.94 19.88,-4.04 0.54,5.26 -5.22,6.52 -6.97,10.45 -0.53,3.95 -0.79,8.23 1.06,11.91 -1.55,-1.11 -3.4,-1.3 -5.23,-1.28 -0.57,-1.09 -1.12,-2.18 -1.65,-3.27 -0.94,0.64 -1.86,1.31 -2.76,1.99 1.83,2.25 0.9,5.39 2.46,7.78 -0.96,-0.46 -1.91,-0.92 -2.84,-1.38 -0.86,0.92 -1.72,1.83 -2.59,2.74 -1.29,0.23 -2.54,0.6 -3.66,1.27 -0.49,-3.72 -1.42,-7.43 -3.35,-10.67 -1.34,-0.77 -2.56,-1.71 -3.75,-2.67 0,-1.06 0.01,-2.12 0.01,-3.18 -2.12,-2.42 -3.85,-5.15 -5.25,-8.03 3.44,-0.6 3.33,-4.47 3.36,-7.17 -0.52,-0.41 -1.56,-1.24 -2.08,-1.65 -0.01,-1.23 -0.01,-2.45 0,-3.66 0.49,-0.01 1.48,-0.03 1.98,-0.04 -0.01,-0.57 -0.01,-1.71 -0.01,-2.29 z" />
  </g>
  <g
     transform="translate(-107.78,-6.9275463)"
     style="fill:#93eeff;fill-opacity:1"
     id="#f49b5eff">
    <path
       style="opacity:1;fill:#93eeff;fill-opacity:1"
       id="path93"
       d="m 594.21,510.96 c 3.34,3.01 8,1.37 11.84,3.1 -0.61,1.08 -1.01,2.25 -1.28,3.47 1.45,0.47 2.66,1.39 3.77,2.43 2.18,0.05 4.37,0.03 6.56,-0.02 0.14,5.36 -7.22,4.3 -6.24,9.54 -1.6,1.7 -2.81,3.77 -3.08,6.12 -1.87,0.9 -3.36,2.34 -4.8,3.79 0.01,2.7 0.02,5.39 0.05,8.09 1.11,1.36 2.15,2.81 3.49,3.98 0.93,1.6 2.64,2.24 4.31,2.82 0.43,1.84 0.93,3.67 1.35,5.53 2.96,0.1 5.31,1.97 7.26,4.02 11.28,0.98 15.56,12.99 18.47,22.12 -0.22,3.21 1.38,6 3.01,8.62 -1.22,1.11 -2.82,2.48 -1.11,3.98 -1.54,1.67 -0.82,3.99 0.36,5.62 -0.35,0.42 -1.05,1.27 -1.4,1.69 l 1.18,0.16 c -0.46,1.16 -0.87,2.36 -1.21,3.57 -5.57,3.17 -8.49,10.06 -15.29,11.23 -0.54,0.06 -1.61,0.2 -2.15,0.26 -0.42,0.48 -1.27,1.44 -1.69,1.92 0.41,0.42 1.22,1.27 1.63,1.69 -2.14,0.14 -3.56,1.76 -3.46,3.88 -3.2,4.76 -8.12,7.66 -10.53,12.99 -2.47,-5.2 1.29,-10.85 -2.29,-15.35 3.96,-3.98 9.07,-5.31 14.36,-6.58 -1.13,-2.09 -2.27,-4.22 -2.58,-6.61 1.42,-0.02 2.83,-0.03 4.26,-0.03 0,-0.74 0,-2.24 0,-2.98 0.64,-0.01 1.93,-0.01 2.57,-0.02 0.65,-1.82 2.02,-3.19 3.41,-4.46 0.01,-1.5 0.01,-2.99 0.02,-4.48 0.5,-0.02 1.5,-0.08 2,-0.11 0,-0.63 0,-1.9 0,-2.53 -1.35,-1.28 -2.67,-2.56 -4.01,-3.82 0.21,-3.9 0.06,-7.81 -1.2,-11.52 0.55,-0.03 1.66,-0.09 2.22,-0.12 -0.01,-1.18 -0.02,-2.35 -0.02,-3.51 -1.51,-0.67 -2.81,-1.68 -4.05,-2.74 0.02,-0.56 0.05,-1.69 0.06,-2.26 0.79,-0.78 1.59,-1.56 2.4,-2.34 -0.43,-0.52 -1.29,-1.58 -1.72,-2.1 -1.24,-0.01 -2.46,-0.01 -3.68,0 -0.01,-1.34 -0.01,-2.68 0,-4.01 -0.69,0.01 -2.06,0.02 -2.75,0.03 -1.06,-1.79 -2.21,-3.51 -3.55,-5.08 -1.17,0.04 -2.34,0.08 -3.51,0.12 -0.52,-0.9 -1.02,-1.8 -1.52,-2.69 -3.97,-2.28 -6.58,-6.2 -10,-9.15 -2.92,-0.51 -5.49,-2.06 -7.99,-3.56 0.77,-0.68 1.54,-1.35 2.32,-2.02 -0.01,-1.42 -0.01,-2.82 0,-4.22 -1.65,-1.58 -3.26,-3.18 -4.9,-4.75 -1.24,1.01 -2.51,1.99 -3.89,2.79 -0.08,-0.61 -0.23,-1.85 -0.3,-2.47 -0.73,0 -2.18,0 -2.91,0 -0.01,-1.53 -0.01,-3.05 0,-4.57 -3.04,-0.81 -4.09,-3.97 -6.08,-6.03 -0.42,-4.7 5.12,-3.26 8.08,-3.39 0,-0.74 0,-2.22 0,-2.96 5.51,0.75 11.59,-2.44 14.21,-7.08 z" />
  </g>
  <g
     transform="translate(-107.78,-6.9275463)"
     id="#c03500ff" />
  <g
     transform="translate(-107.78,-6.9275463)"
     style="fill:#93eeff;fill-opacity:1"
     id="#cfcc96ff">
    <path
       style="opacity:1;fill:#93eeff;fill-opacity:1"
       id="path97"
       d="m 548.51,548.78 c 2.07,-2.01 4.74,-3.1 7.65,-2.98 -2.22,2.2 -0.75,4.71 1.24,6.37 1.68,-0.12 3.39,-0.34 4.84,-1.32 0.06,3.08 -2.55,6.36 -0.21,9.15 -2.65,3.78 0.78,8.89 3.96,11.16 2.75,-1.63 2.69,-5.7 4.36,-8.3 2.57,-0.13 4.81,1.03 6.87,2.45 1.05,-1.29 1.97,-2.72 3.32,-3.74 0.97,-1.49 2.13,-2.83 3.4,-4.07 2.79,3.33 6.64,5.35 10.04,7.88 0.23,3.23 -1.48,9.07 3.6,8.82 1.65,1.67 3.57,3.03 5.65,4.13 -0.88,0.86 -1.76,1.72 -2.62,2.59 3.18,1.91 2.19,5.09 1.22,7.98 -4,2.27 -9.63,4.6 -13.91,1.95 -2.69,1.57 -5.19,3.47 -7.58,5.45 -2.77,2.97 0.47,6.7 -0.26,10.17 2.2,2.05 3.29,4.86 3.06,7.87 -1.92,-1.74 -4.12,-3.32 -6.78,-3.52 -0.72,-0.69 -1.43,-1.37 -2.13,-2.03 -2.4,1.89 -5.57,1.04 -8.37,1.29 1.64,-2.01 1.07,-4.67 1.17,-7.04 -2.98,0.41 -5.78,-0.7 -8.65,-1.02 -3.29,2.45 -0.19,6.67 -0.54,9.8 -1.74,3.2 1,6.41 0.15,9.78 -3.42,-5.16 -4.64,-11.34 -6.17,-17.24 -2.99,-0.76 -3.88,-4.05 -3.98,-6.74 -0.34,0.37 -1,1.13 -1.34,1.5 -0.83,-0.87 -1.67,-1.73 -2.5,-2.58 -0.01,-1.36 0,-2.71 0.01,-4.06 2.07,-2.04 5.34,-4.96 3.27,-8.09 -0.12,-3.19 -1.84,-5.88 -4.24,-7.86 -0.03,-0.5 -0.09,-1.49 -0.12,-1.99 -0.83,-1.02 -1.61,-2.05 -2.32,-3.13 -1.76,-1.08 -3.3,-2.47 -4.79,-3.87 0.92,-3.06 2.23,-6.66 0.15,-9.55 0.72,-1.69 1.38,-3.4 2.16,-5.05 2.23,0.05 4.46,0.06 6.7,0.07 -0.33,-2.38 1.22,-4.38 3.69,-4.23 z" />
  </g>
  <g
     transform="translate(-107.78,-6.9275463)"
     style="fill:#93eeff;fill-opacity:1"
     id="#68652aff">
    <path
       style="opacity:1;fill:#93eeff;fill-opacity:1"
       id="path100"
       d="m 564.85,670.52 c 1.27,0.62 2.49,1.39 3.64,2.24 0.54,0.11 1.62,0.32 2.15,0.42 2.31,4.39 6.63,1.64 10.38,1.69 -0.03,-1.3 -0.06,-2.6 -0.09,-3.89 1.22,0.46 2.45,0.92 3.69,1.37 1.31,1.09 2.65,2.15 4.09,3.1 1.85,2.73 2.67,5.92 2.34,9.22 0.48,0.41 1.46,1.24 1.94,1.65 0,1.1 0,2.22 0.01,3.34 -0.52,0.43 -1.56,1.28 -2.08,1.71 -0.62,3.87 1.43,7.12 4.74,8.95 0.93,3.55 5.47,8.03 1.58,11.13 -6.06,-5.07 -13.83,-7.36 -20.89,-10.64 -1.88,-4.09 -4.88,-7.51 -7.16,-11.36 -2.14,-6.22 -1.28,-13.03 -4.34,-18.93 z" />
  </g>
</svg>
