<?xml version="1.0" encoding="UTF-8" ?>
<!DOCTYPE svg PUBLIC "-//W3C//DTD SVG 1.1//EN" "http://www.w3.org/Graphics/SVG/1.1/DTD/svg11.dtd">
<svg width="354pt" height="354pt" viewBox="0 0 354 354" version="1.1" xmlns="http://www.w3.org/2000/svg">
<g id="#ffffffff">
<path fill="#ffffff" opacity="1.00" d=" M 168.66 0.00 L 185.25 0.00 C 224.57 2.14 263.16 17.18 292.82 43.20 C 329.11 74.16 351.27 120.28 354.00 167.80 L 354.00 186.07 C 351.61 225.34 336.48 263.84 310.35 293.38 C 279.16 329.50 232.96 351.60 185.36 354.00 L 168.72 354.00 C 129.41 351.88 90.83 336.81 61.15 310.82 C 24.71 279.62 2.39 233.17 0.00 185.33 L 0.00 167.95 C 2.64 121.32 23.96 76.02 59.04 45.05 C 88.99 17.98 128.42 2.18 168.66 0.00 M 160.78 38.16 C 165.43 41.33 165.12 47.95 163.61 52.52 C 154.54 58.31 147.71 68.84 149.30 79.92 C 151.40 91.61 161.02 102.12 172.96 103.97 C 188.27 106.15 203.47 92.69 203.58 77.32 C 200.23 75.72 195.74 77.17 191.97 77.05 C 190.92 85.60 182.92 93.51 173.96 91.97 C 167.30 90.18 161.63 83.98 161.07 77.02 C 161.08 68.71 168.30 62.18 176.13 60.82 C 177.21 54.41 175.05 47.35 177.18 41.31 C 186.13 35.77 184.15 20.71 173.67 18.41 C 162.75 14.79 152.85 29.69 160.78 38.16 M 209.25 82.07 C 208.16 83.55 207.11 85.06 206.12 86.61 C 233.17 103.97 260.04 121.60 287.10 138.95 C 288.37 137.63 289.63 136.30 290.88 134.97 C 263.75 117.22 236.54 99.58 209.25 82.07 M 57.11 134.34 C 57.83 135.87 58.57 137.40 59.29 138.93 C 88.65 122.15 117.79 104.97 146.97 87.88 C 146.05 86.25 145.08 84.64 144.06 83.07 C 115.05 100.12 86.13 117.33 57.11 134.34 M 54.01 160.95 C 53.99 176.96 53.98 192.97 54.02 208.97 C 93.01 209.02 131.99 209.02 170.97 208.97 C 171.02 187.99 171.02 167.01 170.97 146.03 C 136.96 145.97 102.95 146.00 68.94 146.01 C 60.96 145.78 53.78 152.98 54.01 160.95 M 177.03 146.03 C 176.98 167.01 176.98 187.99 177.03 208.97 C 216.01 209.02 254.99 209.02 293.97 208.97 C 294.02 192.96 294.01 176.95 293.99 160.95 C 294.22 152.97 287.02 145.79 279.05 146.01 C 245.04 146.00 211.03 145.97 177.03 146.03 M 54.03 215.03 C 53.97 231.03 53.99 247.04 54.01 263.04 C 53.77 271.02 60.97 278.24 68.95 277.99 C 102.96 278.00 136.97 278.03 170.97 277.97 C 171.02 256.99 171.02 236.01 170.97 215.03 C 131.99 214.98 93.01 214.98 54.03 215.03 M 177.03 215.03 C 176.98 236.01 176.98 256.99 177.03 277.97 C 211.03 278.03 245.04 278.00 279.04 277.99 C 287.02 278.22 294.22 271.03 293.99 263.05 C 294.01 247.04 294.03 231.03 293.97 215.03 C 254.99 214.98 216.01 214.98 177.03 215.03 Z" />
</g>
<g id="#a7a7a7ff">
<path fill="#a7a7a7" opacity="1.00" d=" M 160.78 38.16 C 152.85 29.69 162.75 14.79 173.67 18.41 C 184.15 20.71 186.13 35.77 177.18 41.31 C 175.05 47.35 177.21 54.41 176.13 60.82 C 168.30 62.18 161.08 68.71 161.07 77.02 C 161.63 83.98 167.30 90.18 173.96 91.97 C 182.92 93.51 190.92 85.60 191.97 77.05 C 195.74 77.17 200.23 75.72 203.58 77.32 C 203.47 92.69 188.27 106.15 172.96 103.97 C 161.02 102.12 151.40 91.61 149.30 79.92 C 147.71 68.84 154.54 58.31 163.61 52.52 C 165.12 47.95 165.43 41.33 160.78 38.16 Z" />
</g>
<g id="#ee5f59ff">
<path fill="#ee5f59" opacity="1.00" d=" M 209.25 82.07 C 236.54 99.58 263.75 117.22 290.88 134.97 C 289.63 136.30 288.37 137.63 287.10 138.95 C 260.04 121.60 233.17 103.97 206.12 86.61 C 207.11 85.06 208.16 83.55 209.25 82.07 Z" />
<path fill="#ee5f59" opacity="1.00" d=" M 57.11 134.34 C 86.13 117.33 115.05 100.12 144.06 83.07 C 145.08 84.64 146.05 86.25 146.97 87.88 C 117.79 104.97 88.65 122.15 59.29 138.93 C 58.57 137.40 57.83 135.87 57.11 134.34 Z" />
</g>
<g id="#52b3c7ff">
<path fill="#52b3c7" opacity="1.00" d=" M 54.01 160.95 C 53.78 152.98 60.96 145.78 68.94 146.01 C 102.95 146.00 136.96 145.97 170.97 146.03 C 171.02 167.01 171.02 187.99 170.97 208.97 C 131.99 209.02 93.01 209.02 54.02 208.97 C 53.98 192.97 53.99 176.96 54.01 160.95 Z" />
<path fill="#52b3c7" opacity="1.00" d=" M 177.03 146.03 C 211.03 145.97 245.04 146.00 279.05 146.01 C 287.02 145.79 294.22 152.97 293.99 160.95 C 294.01 176.95 294.02 192.96 293.97 208.97 C 254.99 209.02 216.01 209.02 177.03 208.97 C 176.98 187.99 176.98 167.01 177.03 146.03 Z" />
<path fill="#52b3c7" opacity="1.00" d=" M 54.03 215.03 C 93.01 214.98 131.99 214.98 170.97 215.03 C 171.02 236.01 171.02 256.99 170.97 277.97 C 136.97 278.03 102.96 278.00 68.95 277.99 C 60.97 278.24 53.77 271.02 54.01 263.04 C 53.99 247.04 53.97 231.03 54.03 215.03 Z" />
<path fill="#52b3c7" opacity="1.00" d=" M 177.03 215.03 C 216.01 214.98 254.99 214.98 293.97 215.03 C 294.03 231.03 294.01 247.04 293.99 263.05 C 294.22 271.03 287.02 278.22 279.04 277.99 C 245.04 278.00 211.03 278.03 177.03 277.97 C 176.98 256.99 176.98 236.01 177.03 215.03 Z" />
</g>
</svg>
