<?xml version="1.0" encoding="UTF-8" ?>
<!DOCTYPE svg PUBLIC "-//W3C//DTD SVG 1.1//EN" "http://www.w3.org/Graphics/SVG/1.1/DTD/svg11.dtd">
<svg width="354pt" height="354pt" viewBox="0 0 354 354" version="1.1" xmlns="http://www.w3.org/2000/svg">
<g id="#ffffffff">
<path fill="#ffffff" opacity="1.00" d=" M 168.68 0.00 L 185.23 0.00 C 229.53 2.28 272.79 21.38 303.63 53.39 C 333.72 83.71 351.44 125.31 354.00 167.84 L 354.00 186.04 C 351.62 225.32 336.49 263.83 310.35 293.38 C 279.16 329.51 232.94 351.61 185.34 354.00 L 168.74 354.00 C 124.69 351.72 81.63 332.85 50.87 301.12 C 20.31 270.54 2.28 228.38 0.00 185.30 L 0.00 167.98 C 2.50 125.64 20.05 84.21 49.88 53.90 C 80.72 21.61 124.18 2.32 168.68 0.00 M 173.31 28.39 C 164.14 30.12 157.51 39.77 159.24 48.96 C 160.59 58.14 169.88 65.16 179.08 63.88 C 188.63 62.96 196.24 53.45 194.88 43.92 C 193.96 33.77 183.25 25.99 173.31 28.39 M 173.56 68.53 C 167.57 71.06 162.54 75.69 159.26 81.31 C 150.77 94.89 144.13 109.59 138.60 124.60 C 136.43 131.26 133.59 138.04 134.19 145.19 C 136.10 144.69 137.77 143.59 138.93 141.99 C 145.09 134.24 149.22 125.17 153.88 116.51 C 153.97 128.25 153.96 140.53 159.54 151.20 C 158.46 169.44 159.21 187.79 161.37 205.93 C 162.23 211.28 162.63 216.92 165.23 221.78 C 168.15 222.24 168.05 217.95 168.91 215.98 C 172.62 196.59 173.21 176.70 172.87 157.00 C 175.64 156.98 178.41 156.98 181.18 157.00 C 180.71 173.57 181.42 190.19 183.46 206.65 C 184.30 211.76 184.73 217.14 187.23 221.78 C 190.14 222.25 190.05 217.94 190.91 215.99 C 194.90 194.67 195.50 172.78 194.54 151.17 C 199.97 140.47 200.06 128.25 200.11 116.52 C 204.22 124.13 207.89 132.02 212.89 139.11 C 214.70 141.61 216.57 144.52 219.82 145.18 C 220.40 137.24 217.05 129.77 214.61 122.39 C 208.49 106.65 201.58 90.99 191.83 77.12 C 187.34 72.11 180.84 66.29 173.56 68.53 M 97.41 91.54 C 89.36 93.61 83.30 101.72 84.03 110.08 C 84.32 119.67 93.48 127.87 103.07 126.97 C 112.68 126.72 120.86 117.51 119.98 107.92 C 119.71 96.98 107.93 88.43 97.41 91.54 M 247.29 91.37 C 238.42 93.03 231.87 102.13 233.11 111.07 C 233.94 119.91 242.11 127.21 250.99 127.00 C 261.02 127.31 269.86 117.91 268.98 107.92 C 268.68 97.31 257.62 88.86 247.29 91.37 M 86.28 141.31 C 77.21 154.72 70.52 169.61 64.64 184.65 C 62.03 192.27 58.60 199.98 59.16 208.22 C 62.85 207.30 64.90 203.94 66.91 201.02 C 71.48 194.27 74.90 186.87 78.82 179.76 C 79.18 188.99 78.74 198.50 81.70 207.38 C 82.59 210.21 84.69 212.75 84.55 215.83 C 83.31 232.91 84.32 250.09 86.14 267.09 C 87.01 273.05 87.37 279.34 90.23 284.77 C 93.15 285.23 93.06 280.93 93.93 278.97 C 97.69 259.58 98.10 239.70 97.98 220.01 C 100.66 219.98 103.35 219.98 106.03 220.02 C 105.84 237.36 106.36 254.76 108.77 271.96 C 109.50 276.30 110.04 280.85 112.23 284.76 C 115.15 285.25 115.06 280.93 115.93 278.97 C 119.93 257.66 120.47 235.80 119.60 214.20 C 125.27 202.89 125.02 190.03 125.16 177.70 C 130.21 186.94 134.45 196.75 141.05 205.05 C 142.19 206.70 144.02 207.56 145.85 208.22 C 146.32 200.53 143.35 193.26 140.90 186.13 C 135.23 171.17 128.55 156.50 119.90 143.00 C 116.77 137.52 111.07 134.31 105.63 131.54 C 97.72 129.06 90.82 135.65 86.28 141.31 M 236.17 140.12 C 226.40 153.97 219.51 169.64 213.39 185.38 C 210.94 192.78 207.54 200.25 208.17 208.22 C 209.81 207.72 211.44 206.98 212.50 205.56 C 218.95 197.77 223.08 188.44 227.87 179.62 C 228.14 188.90 227.74 198.44 230.68 207.37 C 231.52 210.14 233.61 212.60 233.54 215.60 C 232.26 233.69 233.30 251.89 235.44 269.88 C 236.25 274.93 236.71 280.24 239.21 284.80 C 242.16 285.27 242.08 280.96 242.94 278.98 C 246.69 259.59 247.16 239.71 246.93 220.01 C 249.65 219.99 252.36 219.99 255.08 220.01 C 254.72 237.39 255.36 254.82 257.74 272.05 C 258.49 276.37 259.02 280.91 261.21 284.80 C 264.16 285.26 264.08 280.96 264.93 278.98 C 269.06 257.53 269.33 235.47 268.69 213.74 C 274.49 202.59 273.95 189.76 274.11 177.56 C 279.13 186.87 283.43 196.69 290.05 205.03 C 291.21 206.64 292.91 207.73 294.83 208.22 C 295.49 200.77 292.40 193.78 290.16 186.86 C 284.37 171.42 277.52 156.27 268.52 142.42 C 265.58 137.28 260.10 134.55 255.13 131.77 C 247.69 128.79 240.77 134.94 236.17 140.12 Z" />
</g>
<g id="#ee5f59ff">
<path fill="#ee5f59" opacity="1.00" d=" M 173.31 28.39 C 183.25 25.99 193.96 33.77 194.88 43.92 C 196.24 53.45 188.63 62.96 179.08 63.88 C 169.88 65.16 160.59 58.14 159.24 48.96 C 157.51 39.77 164.14 30.12 173.31 28.39 Z" />
<path fill="#ee5f59" opacity="1.00" d=" M 173.56 68.53 C 180.84 66.29 187.34 72.11 191.83 77.12 C 201.58 90.99 208.49 106.65 214.61 122.39 C 217.05 129.77 220.40 137.24 219.82 145.18 C 216.57 144.52 214.70 141.61 212.89 139.11 C 207.89 132.02 204.22 124.13 200.11 116.52 C 200.06 128.25 199.97 140.47 194.54 151.17 C 195.50 172.78 194.90 194.67 190.91 215.99 C 190.05 217.94 190.14 222.25 187.23 221.78 C 184.73 217.14 184.30 211.76 183.46 206.65 C 181.42 190.19 180.71 173.57 181.18 157.00 C 178.41 156.98 175.64 156.98 172.87 157.00 C 173.21 176.70 172.62 196.59 168.91 215.98 C 168.05 217.95 168.15 222.24 165.23 221.78 C 162.63 216.92 162.23 211.28 161.37 205.93 C 159.21 187.79 158.46 169.44 159.54 151.20 C 153.96 140.53 153.97 128.25 153.88 116.51 C 149.22 125.17 145.09 134.24 138.93 141.99 C 137.77 143.59 136.10 144.69 134.19 145.19 C 133.59 138.04 136.43 131.26 138.60 124.60 C 144.13 109.59 150.77 94.89 159.26 81.31 C 162.54 75.69 167.57 71.06 173.56 68.53 Z" />
</g>
<g id="#93eeffff">
<path fill="#93eeff" opacity="1.00" d=" M 97.41 91.54 C 107.93 88.43 119.71 96.98 119.98 107.92 C 120.86 117.51 112.68 126.72 103.07 126.97 C 93.48 127.87 84.32 119.67 84.03 110.08 C 83.30 101.72 89.36 93.61 97.41 91.54 Z" />
<path fill="#93eeff" opacity="1.00" d=" M 86.28 141.31 C 90.82 135.65 97.72 129.06 105.63 131.54 C 111.07 134.31 116.77 137.52 119.90 143.00 C 128.55 156.50 135.23 171.17 140.90 186.13 C 143.35 193.26 146.32 200.53 145.85 208.22 C 144.02 207.56 142.19 206.70 141.05 205.05 C 134.45 196.75 130.21 186.94 125.16 177.70 C 125.02 190.03 125.27 202.89 119.60 214.20 C 120.47 235.80 119.93 257.66 115.93 278.97 C 115.06 280.93 115.15 285.25 112.23 284.76 C 110.04 280.85 109.50 276.30 108.77 271.96 C 106.36 254.76 105.84 237.36 106.03 220.02 C 103.35 219.98 100.66 219.98 97.98 220.01 C 98.10 239.70 97.69 259.58 93.93 278.97 C 93.06 280.93 93.15 285.23 90.23 284.77 C 87.37 279.34 87.01 273.05 86.14 267.09 C 84.32 250.09 83.31 232.91 84.55 215.83 C 84.69 212.75 82.59 210.21 81.70 207.38 C 78.74 198.50 79.18 188.99 78.82 179.76 C 74.90 186.87 71.48 194.27 66.91 201.02 C 64.90 203.94 62.85 207.30 59.16 208.22 C 58.60 199.98 62.03 192.27 64.64 184.65 C 70.52 169.61 77.21 154.72 86.28 141.31 Z" />
</g>
<g id="#52b3c7ff">
<path fill="#52b3c7" opacity="1.00" d=" M 247.29 91.37 C 257.62 88.86 268.68 97.31 268.98 107.92 C 269.86 117.91 261.02 127.31 250.99 127.00 C 242.11 127.21 233.94 119.91 233.11 111.07 C 231.87 102.13 238.42 93.03 247.29 91.37 Z" />
<path fill="#52b3c7" opacity="1.00" d=" M 236.17 140.12 C 240.77 134.94 247.69 128.79 255.13 131.77 C 260.10 134.55 265.58 137.28 268.52 142.42 C 277.52 156.27 284.37 171.42 290.16 186.86 C 292.40 193.78 295.49 200.77 294.83 208.22 C 292.91 207.73 291.21 206.64 290.05 205.03 C 283.43 196.69 279.13 186.87 274.11 177.56 C 273.95 189.76 274.49 202.59 268.69 213.74 C 269.33 235.47 269.06 257.53 264.93 278.98 C 264.08 280.96 264.16 285.26 261.21 284.80 C 259.02 280.91 258.49 276.37 257.74 272.05 C 255.36 254.82 254.72 237.39 255.08 220.01 C 252.36 219.99 249.65 219.99 246.93 220.01 C 247.16 239.71 246.69 259.59 242.94 278.98 C 242.08 280.96 242.16 285.27 239.21 284.80 C 236.71 280.24 236.25 274.93 235.44 269.88 C 233.30 251.89 232.26 233.69 233.54 215.60 C 233.61 212.60 231.52 210.14 230.68 207.37 C 227.74 198.44 228.14 188.90 227.87 179.62 C 223.08 188.44 218.95 197.77 212.50 205.56 C 211.44 206.98 209.81 207.72 208.17 208.22 C 207.54 200.25 210.94 192.78 213.39 185.38 C 219.51 169.64 226.40 153.97 236.17 140.12 Z" />
</g>
</svg>
