<?xml version="1.0" encoding="UTF-8" ?>
<!DOCTYPE svg PUBLIC "-//W3C//DTD SVG 1.1//EN" "http://www.w3.org/Graphics/SVG/1.1/DTD/svg11.dtd">
<svg width="354pt" height="354pt" viewBox="0 0 354 354" version="1.1" xmlns="http://www.w3.org/2000/svg">
<g id="#ffffffff">
<path fill="#ffffff" opacity="1.00" d=" M 168.53 0.00 L 185.42 0.00 C 224.68 2.19 263.21 17.21 292.83 43.20 C 329.08 74.12 351.21 120.18 354.00 167.63 L 354.00 186.31 C 351.53 225.49 336.44 263.90 310.35 293.38 C 279.20 329.47 233.04 351.56 185.49 354.00 L 168.56 354.00 C 124.58 351.66 81.59 332.82 50.87 301.12 C 20.34 270.58 2.33 228.49 0.00 185.47 L 0.00 167.71 C 2.72 121.17 24.01 75.98 59.03 45.06 C 88.95 18.01 128.33 2.22 168.53 0.00 M 166.35 53.48 C 138.46 55.75 111.52 67.95 91.38 87.37 C 69.05 108.48 55.12 138.23 53.29 168.92 C 50.79 203.81 64.08 239.45 88.85 264.15 C 109.85 285.61 138.94 298.92 168.92 300.72 C 203.81 303.19 239.45 289.94 264.14 265.15 C 289.55 240.41 303.27 204.28 300.72 168.91 C 298.89 138.22 284.94 108.48 262.62 87.36 C 237.39 62.90 201.33 50.27 166.35 53.48 Z" />
<path fill="#ffffff" opacity="1.00" d=" M 167.33 68.44 C 201.86 65.07 237.45 79.67 259.78 106.19 C 281.31 130.96 290.52 165.84 283.95 198.00 C 278.38 227.10 260.23 253.43 235.15 269.16 C 213.63 282.87 187.19 288.54 161.94 284.95 C 131.06 280.83 102.51 262.56 85.64 236.39 C 66.57 207.58 62.67 169.50 75.45 137.40 C 89.87 99.54 126.89 71.58 167.33 68.44 M 167.36 75.49 C 125.12 79.05 87.51 111.75 77.95 153.02 C 72.13 176.38 74.92 201.78 85.79 223.28 C 98.52 249.14 122.76 269.00 150.61 276.45 C 168.66 281.33 188.06 281.20 206.02 275.98 C 233.68 268.11 257.53 247.93 269.87 221.95 C 280.49 200.22 282.83 174.66 276.63 151.31 C 269.45 123.65 250.06 99.47 224.61 86.47 C 207.15 77.30 186.96 73.54 167.36 75.49 Z" />
<path fill="#ffffff" opacity="1.00" d=" M 169.32 90.45 C 200.41 87.14 232.31 102.38 249.74 128.24 C 262.77 147.22 267.86 171.46 263.36 194.06 C 258.60 219.63 241.60 242.47 218.65 254.63 C 196.82 266.47 169.87 268.20 146.68 259.33 C 122.43 250.29 102.78 229.92 94.61 205.37 C 86.70 182.17 89.20 155.67 101.44 134.42 C 115.18 109.92 141.29 92.83 169.32 90.45 M 168.32 96.43 C 147.91 98.41 128.51 108.64 115.26 124.27 C 94.48 148.02 90.04 184.35 104.47 212.41 C 118.32 241.04 150.36 259.45 182.09 256.79 C 212.08 255.07 239.88 234.87 251.00 207.01 C 260.56 184.02 258.54 156.65 245.68 135.32 C 230.25 108.85 198.80 92.92 168.32 96.43 Z" />
<path fill="#ffffff" opacity="1.00" d=" M 168.37 111.48 C 199.43 106.94 231.33 128.17 239.49 158.39 C 245.48 178.73 240.71 201.79 227.12 218.07 C 207.40 243.11 168.67 249.59 141.95 232.14 C 114.36 215.79 102.87 177.86 117.04 149.02 C 126.21 128.79 146.31 114.08 168.37 111.48 M 170.31 119.43 C 149.43 121.84 130.55 136.45 123.04 156.09 C 116.05 173.58 118.22 194.43 128.87 210.00 C 138.76 225.02 155.97 234.92 173.94 235.90 C 191.41 237.10 209.09 229.79 220.82 216.84 C 239.82 196.71 241.08 162.93 223.59 141.46 C 211.29 125.49 190.31 116.77 170.31 119.43 Z" />
<path fill="#ffffff" opacity="1.00" d=" M 171.40 134.49 C 188.62 131.77 206.68 140.82 215.18 155.95 C 224.48 171.69 222.21 193.29 209.65 206.63 C 199.27 218.38 182.27 223.59 167.09 219.68 C 148.00 215.24 133.51 196.61 134.10 176.98 C 133.92 156.17 150.78 137.04 171.40 134.49 M 172.29 142.37 C 155.54 144.55 141.89 160.08 141.99 176.99 C 141.43 193.45 153.91 209.02 170.03 212.22 C 185.15 215.72 202.00 207.87 208.92 193.96 C 216.30 180.69 213.41 162.96 202.62 152.39 C 194.80 144.57 183.25 140.64 172.29 142.37 Z" />
</g>
<g id="#ef6c4fff">
<path fill="#ef6c4f" opacity="1.00" d=" M 166.35 53.48 C 201.33 50.27 237.39 62.90 262.62 87.36 C 284.94 108.48 298.89 138.22 300.72 168.91 C 303.27 204.28 289.55 240.41 264.14 265.15 C 239.45 289.94 203.81 303.19 168.92 300.72 C 138.94 298.92 109.85 285.61 88.85 264.15 C 64.08 239.45 50.79 203.81 53.29 168.92 C 55.12 138.23 69.05 108.48 91.38 87.37 C 111.52 67.95 138.46 55.75 166.35 53.48 M 167.33 68.44 C 126.89 71.58 89.87 99.54 75.45 137.40 C 62.67 169.50 66.57 207.58 85.64 236.39 C 102.51 262.56 131.06 280.83 161.94 284.95 C 187.19 288.54 213.63 282.87 235.15 269.16 C 260.23 253.43 278.38 227.10 283.95 198.00 C 290.52 165.84 281.31 130.96 259.78 106.19 C 237.45 79.67 201.86 65.07 167.33 68.44 Z" />
<path fill="#ef6c4f" opacity="1.00" d=" M 168.32 96.43 C 198.80 92.92 230.25 108.85 245.68 135.32 C 258.54 156.65 260.56 184.02 251.00 207.01 C 239.88 234.87 212.08 255.07 182.09 256.79 C 150.36 259.45 118.32 241.04 104.47 212.41 C 90.04 184.35 94.48 148.02 115.26 124.27 C 128.51 108.64 147.91 98.41 168.32 96.43 M 168.37 111.48 C 146.31 114.08 126.21 128.79 117.04 149.02 C 102.87 177.86 114.36 215.79 141.95 232.14 C 168.67 249.59 207.40 243.11 227.12 218.07 C 240.71 201.79 245.48 178.73 239.49 158.39 C 231.33 128.17 199.43 106.94 168.37 111.48 Z" />
</g>
<g id="#52b3c7ff">
<path fill="#52b3c7" opacity="1.00" d=" M 167.36 75.49 C 186.96 73.54 207.15 77.30 224.61 86.47 C 250.06 99.47 269.45 123.65 276.63 151.31 C 282.83 174.66 280.49 200.22 269.87 221.95 C 257.53 247.93 233.68 268.11 206.02 275.98 C 188.06 281.20 168.66 281.33 150.61 276.45 C 122.76 269.00 98.52 249.14 85.79 223.28 C 74.92 201.78 72.13 176.38 77.95 153.02 C 87.51 111.75 125.12 79.05 167.36 75.49 M 169.32 90.45 C 141.29 92.83 115.18 109.92 101.44 134.42 C 89.20 155.67 86.70 182.17 94.61 205.37 C 102.78 229.92 122.43 250.29 146.68 259.33 C 169.87 268.20 196.82 266.47 218.65 254.63 C 241.60 242.47 258.60 219.63 263.36 194.06 C 267.86 171.46 262.77 147.22 249.74 128.24 C 232.31 102.38 200.41 87.14 169.32 90.45 Z" />
<path fill="#52b3c7" opacity="1.00" d=" M 170.31 119.43 C 190.31 116.77 211.29 125.49 223.59 141.46 C 241.08 162.93 239.82 196.71 220.82 216.84 C 209.09 229.79 191.41 237.10 173.94 235.90 C 155.97 234.92 138.76 225.02 128.87 210.00 C 118.22 194.43 116.05 173.58 123.04 156.09 C 130.55 136.45 149.43 121.84 170.31 119.43 M 171.40 134.49 C 150.78 137.04 133.92 156.17 134.10 176.98 C 133.51 196.61 148.00 215.24 167.09 219.68 C 182.27 223.59 199.27 218.38 209.65 206.63 C 222.21 193.29 224.48 171.69 215.18 155.95 C 206.68 140.82 188.62 131.77 171.40 134.49 Z" />
</g>
<g id="#88fcb0ff">
<path fill="#88fcb0" opacity="1.00" d=" M 172.29 142.37 C 183.25 140.64 194.80 144.57 202.62 152.39 C 213.41 162.96 216.30 180.69 208.92 193.96 C 202.00 207.87 185.15 215.72 170.03 212.22 C 153.91 209.02 141.43 193.45 141.99 176.99 C 141.89 160.08 155.54 144.55 172.29 142.37 Z" />
</g>
</svg>
