<?xml version="1.0" encoding="UTF-8" ?>
<!DOCTYPE svg PUBLIC "-//W3C//DTD SVG 1.1//EN" "http://www.w3.org/Graphics/SVG/1.1/DTD/svg11.dtd">
<svg width="354pt" height="354pt" viewBox="0 0 354 354" version="1.1" xmlns="http://www.w3.org/2000/svg">
<g id="#ffffffff">
<path fill="#ffffff" opacity="1.00" d=" M 163.72 0.00 L 190.20 0.00 C 227.56 3.41 264.07 17.84 292.42 42.64 C 328.44 73.12 350.77 118.54 354.00 165.53 L 354.00 188.44 C 351.15 228.11 335.11 266.77 308.15 296.11 C 278.11 329.60 234.98 350.15 190.29 354.00 L 164.59 354.00 C 126.93 350.90 90.14 336.28 61.56 311.39 C 25.59 280.84 3.22 235.48 0.00 188.47 L 0.00 165.57 C 3.20 118.55 25.58 73.17 61.56 42.62 C 89.93 17.90 126.37 3.41 163.72 0.00 M 135.08 98.93 C 134.82 104.72 135.05 110.52 135.03 116.31 C 188.33 116.49 241.64 116.50 294.94 116.30 C 294.87 110.18 295.25 104.04 294.78 97.93 C 294.04 90.72 287.26 84.86 280.03 85.02 C 236.68 84.99 193.32 84.99 149.97 85.02 C 142.38 84.77 135.30 91.31 135.08 98.93 M 135.03 120.05 C 135.04 136.28 134.85 152.51 135.13 168.73 C 160.68 168.64 186.24 168.68 211.79 168.72 C 212.03 152.51 211.85 136.30 211.89 120.09 C 186.27 119.97 160.65 120.05 135.03 120.05 M 218.12 120.09 C 218.14 136.30 217.97 152.51 218.21 168.71 C 243.76 168.68 269.31 168.64 294.87 168.73 C 295.15 152.51 294.97 136.27 294.96 120.04 C 269.35 120.06 243.73 119.97 218.12 120.09 M 74.20 146.17 C 65.18 158.87 56.24 171.63 47.28 184.38 C 45.38 186.84 46.11 190.12 45.96 193.00 C 46.28 210.58 45.51 228.23 46.34 245.77 C 50.14 250.21 57.53 247.11 62.76 247.97 C 63.40 234.34 76.44 223.01 90.04 224.58 C 102.17 225.39 112.04 235.96 112.99 247.92 C 143.59 247.97 174.18 248.03 204.78 247.98 C 205.36 240.84 209.11 234.60 214.04 229.60 C 185.10 229.47 156.16 229.11 127.22 228.80 C 127.34 201.85 127.66 174.91 128.02 147.97 C 128.55 144.86 126.38 141.83 123.08 142.09 C 108.71 141.91 94.31 141.97 79.93 142.06 C 77.22 141.85 75.62 144.28 74.20 146.17 M 135.15 173.30 C 134.87 187.55 134.97 201.81 135.07 216.06 C 134.86 219.75 138.46 222.44 141.96 222.00 C 165.27 221.98 188.59 222.07 211.90 221.94 C 211.83 205.73 212.05 189.51 211.78 173.30 C 186.23 173.38 160.69 173.39 135.15 173.30 M 218.22 173.31 C 217.94 189.51 218.18 205.72 218.09 221.93 C 241.41 222.08 264.73 221.98 288.04 221.99 C 291.54 222.43 295.09 219.75 294.88 216.07 C 294.99 201.81 295.13 187.55 294.85 173.29 C 269.31 173.40 243.76 173.37 218.22 173.31 M 83.37 226.46 C 72.19 228.54 63.81 239.78 65.09 251.10 C 65.89 262.60 76.47 272.26 88.00 271.99 C 99.53 272.26 110.11 262.61 110.90 251.10 C 112.82 236.34 97.83 222.93 83.37 226.46 M 225.37 226.46 C 214.19 228.54 205.81 239.78 207.09 251.10 C 207.89 262.60 218.47 272.26 230.00 271.99 C 241.52 272.26 252.12 262.61 252.90 251.10 C 254.83 236.34 239.82 222.94 225.37 226.46 M 245.97 230.02 C 251.07 234.70 254.39 241.04 255.07 247.96 C 261.35 247.88 267.67 248.35 273.94 247.75 C 277.99 247.04 276.81 241.94 277.08 239.00 C 276.76 236.09 278.07 230.84 273.94 230.29 C 264.64 229.71 255.29 230.07 245.97 230.02 Z" />
<path fill="#ffffff" opacity="1.00" d=" M 79.50 149.49 C 93.33 148.65 107.29 149.38 121.17 149.14 C 121.22 160.98 121.50 172.84 121.02 184.67 C 99.31 184.54 77.59 184.66 55.88 184.61 C 63.40 172.68 71.55 161.12 79.50 149.49 Z" />
<path fill="#ffffff" opacity="1.00" d=" M 83.35 238.43 C 91.69 234.48 101.85 243.06 99.14 251.95 C 97.54 260.25 86.17 263.75 80.15 257.85 C 73.77 252.69 75.65 241.25 83.35 238.43 Z" />
<path fill="#ffffff" opacity="1.00" d=" M 225.25 238.24 C 233.48 234.78 243.09 243.15 240.68 251.75 C 239.13 259.69 228.76 263.56 222.42 258.50 C 215.09 253.55 216.81 240.97 225.25 238.24 Z" />
</g>
<g id="#88fcb0ff">
<path fill="#88fcb0" opacity="1.00" d=" M 135.08 98.93 C 135.30 91.31 142.38 84.77 149.97 85.02 C 193.32 84.99 236.68 84.99 280.03 85.02 C 287.26 84.86 294.04 90.72 294.78 97.93 C 295.25 104.04 294.87 110.18 294.94 116.30 C 241.64 116.50 188.33 116.49 135.03 116.31 C 135.05 110.52 134.82 104.72 135.08 98.93 Z" />
<path fill="#88fcb0" opacity="1.00" d=" M 135.03 120.05 C 160.65 120.05 186.27 119.97 211.89 120.09 C 211.85 136.30 212.03 152.51 211.79 168.72 C 186.24 168.68 160.68 168.64 135.13 168.73 C 134.85 152.51 135.04 136.28 135.03 120.05 Z" />
<path fill="#88fcb0" opacity="1.00" d=" M 218.12 120.09 C 243.73 119.97 269.35 120.06 294.96 120.04 C 294.97 136.27 295.15 152.51 294.87 168.73 C 269.31 168.64 243.76 168.68 218.21 168.71 C 217.97 152.51 218.14 136.30 218.12 120.09 Z" />
<path fill="#88fcb0" opacity="1.00" d=" M 135.15 173.30 C 160.69 173.39 186.23 173.38 211.78 173.30 C 212.05 189.51 211.83 205.73 211.90 221.94 C 188.59 222.07 165.27 221.98 141.96 222.00 C 138.46 222.44 134.86 219.75 135.07 216.06 C 134.97 201.81 134.87 187.55 135.15 173.30 Z" />
<path fill="#88fcb0" opacity="1.00" d=" M 218.22 173.31 C 243.76 173.37 269.31 173.40 294.85 173.29 C 295.13 187.55 294.99 201.81 294.88 216.07 C 295.09 219.75 291.54 222.43 288.04 221.99 C 264.73 221.98 241.41 222.08 218.09 221.93 C 218.18 205.72 217.94 189.51 218.22 173.31 Z" />
</g>
<g id="#ee5f59ff">
<path fill="#ee5f59" opacity="1.00" d=" M 74.20 146.17 C 75.62 144.28 77.22 141.85 79.93 142.06 C 94.31 141.97 108.71 141.91 123.08 142.09 C 126.38 141.83 128.55 144.86 128.02 147.97 C 127.66 174.91 127.34 201.85 127.22 228.80 C 156.16 229.11 185.10 229.47 214.04 229.60 C 209.11 234.60 205.36 240.84 204.78 247.98 C 174.18 248.03 143.59 247.97 112.99 247.92 C 112.04 235.96 102.17 225.39 90.04 224.58 C 76.44 223.01 63.40 234.34 62.76 247.97 C 57.53 247.11 50.14 250.21 46.34 245.77 C 45.51 228.23 46.28 210.58 45.96 193.00 C 46.11 190.12 45.38 186.84 47.28 184.38 C 56.24 171.63 65.18 158.87 74.20 146.17 M 79.50 149.49 C 71.55 161.12 63.40 172.68 55.88 184.61 C 77.59 184.66 99.31 184.54 121.02 184.67 C 121.50 172.84 121.22 160.98 121.17 149.14 C 107.29 149.38 93.33 148.65 79.50 149.49 Z" />
<path fill="#ee5f59" opacity="1.00" d=" M 245.97 230.02 C 255.29 230.07 264.64 229.71 273.94 230.29 C 278.07 230.84 276.76 236.09 277.08 239.00 C 276.81 241.94 277.99 247.04 273.94 247.75 C 267.67 248.35 261.35 247.88 255.07 247.96 C 254.39 241.04 251.07 234.70 245.97 230.02 Z" />
</g>
<g id="#a7a7a7ff">
<path fill="#a7a7a7" opacity="1.00" d=" M 83.37 226.46 C 97.83 222.93 112.82 236.34 110.90 251.10 C 110.11 262.61 99.53 272.26 88.00 271.99 C 76.47 272.26 65.89 262.60 65.09 251.10 C 63.81 239.78 72.19 228.54 83.37 226.46 M 83.35 238.43 C 75.65 241.25 73.77 252.69 80.15 257.85 C 86.17 263.75 97.54 260.25 99.14 251.95 C 101.85 243.06 91.69 234.48 83.35 238.43 Z" />
<path fill="#a7a7a7" opacity="1.00" d=" M 225.37 226.46 C 239.82 222.94 254.83 236.34 252.90 251.10 C 252.12 262.61 241.52 272.26 230.00 271.99 C 218.47 272.26 207.89 262.60 207.09 251.10 C 205.81 239.78 214.19 228.54 225.37 226.46 M 225.25 238.24 C 216.81 240.97 215.09 253.55 222.42 258.50 C 228.76 263.56 239.13 259.69 240.68 251.75 C 243.09 243.15 233.48 234.78 225.25 238.24 Z" />
</g>
</svg>
