<?xml version="1.0" encoding="UTF-8" ?>
<!DOCTYPE svg PUBLIC "-//W3C//DTD SVG 1.1//EN" "http://www.w3.org/Graphics/SVG/1.1/DTD/svg11.dtd">
<svg width="354pt" height="354pt" viewBox="0 0 354 354" version="1.1" xmlns="http://www.w3.org/2000/svg">
<g id="#ffffffff">
<path fill="#ffffff" opacity="1.00" d=" M 164.95 0.00 L 189.41 0.00 C 226.83 3.12 263.41 17.51 291.88 42.18 C 328.29 72.75 350.91 118.54 354.00 165.91 L 354.00 187.93 C 350.97 235.37 328.32 281.21 291.88 311.83 C 263.50 336.45 227.03 350.77 189.73 354.00 L 165.12 354.00 C 127.26 351.09 90.28 336.37 61.56 311.39 C 25.51 280.76 3.07 235.24 0.00 188.09 L 0.00 166.07 C 3.02 118.62 25.71 72.82 62.10 42.16 C 90.71 17.49 127.38 2.97 164.95 0.00 M 257.16 84.00 C 250.08 134.31 242.93 184.61 235.83 234.92 C 191.54 235.07 147.24 234.82 102.96 235.04 C 96.74 235.26 97.49 246.91 103.91 245.99 C 148.96 246.01 194.02 245.99 239.08 246.00 C 240.86 246.03 243.14 245.67 243.88 243.77 C 251.20 191.73 258.53 139.66 265.98 87.62 C 272.09 87.25 278.28 88.06 284.35 87.22 C 288.11 86.04 287.71 80.05 283.90 79.29 C 276.61 78.79 269.26 79.10 261.96 79.14 C 259.27 78.96 257.36 81.53 257.16 84.00 M 67.46 109.32 C 66.23 115.18 67.75 121.23 69.24 126.90 C 69.43 128.75 71.71 128.12 72.94 128.31 C 130.33 128.21 187.73 128.36 245.12 128.24 C 246.29 120.79 247.42 113.33 248.39 105.85 C 189.91 105.71 131.44 105.83 72.96 105.79 C 70.47 105.47 67.95 106.71 67.46 109.32 M 70.83 133.65 C 73.08 147.79 75.85 161.86 78.21 175.99 C 100.51 176.07 122.83 176.09 145.13 175.98 C 145.22 161.86 145.24 147.75 145.12 133.63 C 120.36 133.56 95.59 133.53 70.83 133.65 M 150.57 133.62 C 150.46 147.75 150.48 161.88 150.56 176.01 C 179.95 176.04 209.35 176.10 238.75 175.97 C 240.47 161.86 242.33 147.75 244.02 133.63 C 212.87 133.54 181.72 133.57 150.57 133.62 M 79.66 180.97 C 81.57 194.35 83.81 207.67 85.78 221.04 C 86.23 225.89 91.08 229.96 95.95 229.52 C 112.31 229.58 128.67 229.60 145.03 229.47 C 145.37 213.32 145.15 197.14 145.14 180.98 C 123.31 180.87 101.49 180.89 79.66 180.97 M 150.56 180.97 C 150.47 197.12 150.48 213.28 150.56 229.44 C 177.60 229.49 204.65 229.57 231.69 229.40 C 233.63 213.26 235.85 197.16 237.79 181.03 C 208.71 180.81 179.63 180.93 150.56 180.97 M 117.36 250.47 C 108.62 252.34 102.12 261.18 103.08 270.09 C 103.67 278.81 111.20 286.32 119.91 286.94 C 129.10 287.92 138.16 280.97 139.70 271.88 C 142.55 259.41 129.71 247.07 117.36 250.47 M 216.36 250.47 C 207.62 252.34 201.12 261.18 202.08 270.09 C 202.67 279.18 210.85 286.89 219.96 287.01 C 229.11 287.44 237.72 280.12 238.83 271.04 C 241.01 258.79 228.38 247.18 216.36 250.47 Z" />
<path fill="#ffffff" opacity="1.00" d=" M 119.34 260.41 C 125.04 258.53 130.84 264.46 129.37 270.12 C 128.40 276.13 119.94 278.75 115.86 274.14 C 111.49 270.07 113.54 261.87 119.34 260.41 Z" />
<path fill="#ffffff" opacity="1.00" d=" M 218.34 260.39 C 224.33 258.46 230.32 265.11 228.10 270.90 C 226.59 276.46 218.72 278.46 214.83 274.18 C 210.36 270.13 212.50 261.81 218.34 260.39 Z" />
</g>
<g id="#52b3c7ff">
<path fill="#52b3c7" opacity="1.00" d=" M 257.16 84.00 C 257.36 81.53 259.27 78.96 261.96 79.14 C 269.26 79.10 276.61 78.79 283.90 79.29 C 287.71 80.05 288.11 86.04 284.35 87.22 C 278.28 88.06 272.09 87.25 265.98 87.62 C 258.53 139.66 251.20 191.73 243.88 243.77 C 243.14 245.67 240.86 246.03 239.08 246.00 C 194.02 245.99 148.96 246.01 103.91 245.99 C 97.49 246.91 96.74 235.26 102.96 235.04 C 147.24 234.82 191.54 235.07 235.83 234.92 C 242.93 184.61 250.08 134.31 257.16 84.00 Z" />
<path fill="#52b3c7" opacity="1.00" d=" M 67.46 109.32 C 67.95 106.71 70.47 105.47 72.96 105.79 C 131.44 105.83 189.91 105.71 248.39 105.85 C 247.42 113.33 246.29 120.79 245.12 128.24 C 187.73 128.36 130.33 128.21 72.94 128.31 C 71.71 128.12 69.43 128.75 69.24 126.90 C 67.75 121.23 66.23 115.18 67.46 109.32 Z" />
<path fill="#52b3c7" opacity="1.00" d=" M 70.83 133.65 C 95.59 133.53 120.36 133.56 145.12 133.63 C 145.24 147.75 145.22 161.86 145.13 175.98 C 122.83 176.09 100.51 176.07 78.21 175.99 C 75.85 161.86 73.08 147.79 70.83 133.65 Z" />
<path fill="#52b3c7" opacity="1.00" d=" M 150.57 133.62 C 181.72 133.57 212.87 133.54 244.02 133.63 C 242.33 147.75 240.47 161.86 238.75 175.97 C 209.35 176.10 179.95 176.04 150.56 176.01 C 150.48 161.88 150.46 147.75 150.57 133.62 Z" />
<path fill="#52b3c7" opacity="1.00" d=" M 79.66 180.97 C 101.49 180.89 123.31 180.87 145.14 180.98 C 145.15 197.14 145.37 213.32 145.03 229.47 C 128.67 229.60 112.31 229.58 95.95 229.52 C 91.08 229.96 86.23 225.89 85.78 221.04 C 83.81 207.67 81.57 194.35 79.66 180.97 Z" />
<path fill="#52b3c7" opacity="1.00" d=" M 150.56 180.97 C 179.63 180.93 208.71 180.81 237.79 181.03 C 235.85 197.16 233.63 213.26 231.69 229.40 C 204.65 229.57 177.60 229.49 150.56 229.44 C 150.48 213.28 150.47 197.12 150.56 180.97 Z" />
</g>
<g id="#ee5f59ff">
<path fill="#ee5f59" opacity="1.00" d=" M 117.36 250.47 C 129.71 247.07 142.55 259.41 139.70 271.88 C 138.16 280.97 129.10 287.92 119.91 286.94 C 111.20 286.32 103.67 278.81 103.08 270.09 C 102.12 261.18 108.62 252.34 117.36 250.47 M 119.34 260.41 C 113.54 261.87 111.49 270.07 115.86 274.14 C 119.94 278.75 128.40 276.13 129.37 270.12 C 130.84 264.46 125.04 258.53 119.34 260.41 Z" />
<path fill="#ee5f59" opacity="1.00" d=" M 216.36 250.47 C 228.38 247.18 241.01 258.79 238.83 271.04 C 237.72 280.12 229.11 287.44 219.96 287.01 C 210.85 286.89 202.67 279.18 202.08 270.09 C 201.12 261.18 207.62 252.34 216.36 250.47 M 218.34 260.39 C 212.50 261.81 210.36 270.13 214.83 274.18 C 218.72 278.46 226.59 276.46 228.10 270.90 C 230.32 265.11 224.33 258.46 218.34 260.39 Z" />
</g>
</svg>
