<?xml version="1.0" encoding="UTF-8" ?>
<!DOCTYPE svg PUBLIC "-//W3C//DTD SVG 1.1//EN" "http://www.w3.org/Graphics/SVG/1.1/DTD/svg11.dtd">
<svg width="354pt" height="354pt" viewBox="0 0 354 354" version="1.1" xmlns="http://www.w3.org/2000/svg">
<g id="#ffffffff">
<path fill="#ffffff" opacity="1.00" d=" M 169.65 0.00 L 185.18 0.00 C 225.95 2.15 265.87 18.35 296.01 45.99 C 330.68 77.09 351.65 122.30 354.00 168.73 L 354.00 185.24 C 351.77 229.07 333.01 271.86 301.64 302.65 C 270.96 333.49 228.55 351.74 185.20 354.00 L 168.78 354.00 C 125.43 351.75 83.06 333.46 52.36 302.64 C 20.77 271.64 2.00 228.45 0.00 184.30 L 0.00 168.87 C 2.24 125.49 20.52 83.07 51.38 52.38 C 82.34 20.77 125.52 2.01 169.65 0.00 M 105.14 96.05 C 94.11 117.80 94.29 144.76 105.49 166.40 C 113.17 181.75 126.30 193.85 141.50 201.57 C 141.80 212.07 141.56 222.58 142.01 233.08 C 142.24 238.06 147.00 242.16 151.93 241.98 C 167.58 242.02 183.23 241.70 198.87 241.57 C 204.07 241.77 208.95 237.32 208.97 232.07 C 209.24 221.76 208.55 211.42 209.07 201.12 C 212.45 198.05 217.06 196.52 220.55 193.49 C 247.30 174.25 258.89 137.17 248.02 106.08 C 238.37 75.93 208.73 53.57 177.01 53.02 C 147.34 51.66 118.04 69.35 105.14 96.05 M 146.42 243.65 C 140.24 243.84 140.76 254.32 146.93 253.95 C 166.14 253.85 185.38 253.71 204.59 253.35 C 210.72 253.13 210.21 242.70 204.07 243.05 C 184.86 243.15 165.63 243.29 146.42 243.65 M 146.42 256.64 C 140.25 256.84 140.76 267.31 146.93 266.95 C 166.14 266.84 185.37 266.70 204.58 266.34 C 210.71 266.13 210.22 255.70 204.07 256.05 C 184.86 256.13 165.63 256.30 146.42 256.64 M 146.41 269.66 C 140.29 269.87 140.78 280.31 146.93 279.95 C 166.14 279.86 185.37 279.70 204.58 279.35 C 210.75 279.17 210.23 268.69 204.07 269.05 C 184.86 269.17 165.62 269.30 146.41 269.66 M 159.04 282.27 C 158.89 286.75 158.85 291.62 161.61 295.42 C 167.44 304.37 182.56 304.35 188.41 295.44 C 191.24 291.57 191.15 286.60 190.98 282.04 C 180.33 281.98 169.69 282.29 159.04 282.27 Z" />
</g>
<g id="#88fcb0ff">
<path fill="#88fcb0" opacity="1.00" d=" M 105.14 96.05 C 118.04 69.35 147.34 51.66 177.01 53.02 C 208.73 53.57 238.37 75.93 248.02 106.08 C 258.89 137.17 247.30 174.25 220.55 193.49 C 217.06 196.52 212.45 198.05 209.07 201.12 C 208.55 211.42 209.24 221.76 208.97 232.07 C 208.95 237.32 204.07 241.77 198.87 241.57 C 183.23 241.70 167.58 242.02 151.93 241.98 C 147.00 242.16 142.24 238.06 142.01 233.08 C 141.56 222.58 141.80 212.07 141.50 201.57 C 126.30 193.85 113.17 181.75 105.49 166.40 C 94.29 144.76 94.11 117.80 105.14 96.05 Z" />
</g>
<g id="#ee5f59ff">
<path fill="#ee5f59" opacity="1.00" d=" M 146.42 243.65 C 165.63 243.29 184.86 243.15 204.07 243.05 C 210.21 242.70 210.72 253.13 204.59 253.35 C 185.38 253.71 166.14 253.85 146.93 253.95 C 140.76 254.32 140.24 243.84 146.42 243.65 Z" />
<path fill="#ee5f59" opacity="1.00" d=" M 146.42 256.64 C 165.63 256.30 184.86 256.13 204.07 256.05 C 210.22 255.70 210.71 266.13 204.58 266.34 C 185.37 266.70 166.14 266.84 146.93 266.95 C 140.76 267.31 140.25 256.84 146.42 256.64 Z" />
<path fill="#ee5f59" opacity="1.00" d=" M 146.41 269.66 C 165.62 269.30 184.86 269.17 204.07 269.05 C 210.23 268.69 210.75 279.17 204.58 279.35 C 185.37 279.70 166.14 279.86 146.93 279.95 C 140.78 280.31 140.29 269.87 146.41 269.66 Z" />
<path fill="#ee5f59" opacity="1.00" d=" M 159.04 282.27 C 169.69 282.29 180.33 281.98 190.98 282.04 C 191.15 286.60 191.24 291.57 188.41 295.44 C 182.56 304.35 167.44 304.37 161.61 295.42 C 158.85 291.62 158.89 286.75 159.04 282.27 Z" />
</g>
</svg>
