<?xml version="1.0" encoding="UTF-8" ?>
<!DOCTYPE svg PUBLIC "-//W3C//DTD SVG 1.1//EN" "http://www.w3.org/Graphics/SVG/1.1/DTD/svg11.dtd">
<svg width="354pt" height="354pt" viewBox="0 0 354 354" version="1.1" xmlns="http://www.w3.org/2000/svg">
<g id="#ffffffff">
<path fill="#ffffff" opacity="1.00" d=" M 168.72 0.00 L 185.17 0.00 C 209.29 1.55 233.27 7.23 254.94 18.08 C 303.76 41.75 340.40 89.02 350.59 142.38 C 352.40 150.79 353.01 159.37 354.00 167.89 L 354.00 185.96 C 351.64 225.26 336.51 263.81 310.35 293.38 C 279.15 329.52 232.92 351.62 185.30 354.00 L 168.80 354.00 C 124.73 351.74 81.64 332.87 50.87 301.12 C 20.30 270.53 2.26 228.36 0.00 185.27 L 0.00 168.06 C 2.48 125.69 20.03 84.23 49.88 53.89 C 80.73 21.59 124.21 2.31 168.72 0.00 M 139.99 87.42 C 143.02 87.53 146.06 87.52 149.09 87.38 C 148.89 81.65 152.78 75.59 159.00 75.69 C 172.33 75.61 185.68 75.51 199.00 75.74 C 204.96 75.81 208.73 81.72 208.39 87.26 C 211.25 87.56 214.13 87.58 217.01 87.40 C 218.67 78.59 213.77 68.07 204.07 67.16 C 187.04 66.89 169.97 66.89 152.94 67.16 C 143.22 68.07 138.33 78.60 139.99 87.42 M 52.03 99.94 C 52.17 108.86 51.53 117.86 52.38 126.74 C 56.30 134.14 65.32 136.56 72.66 139.29 C 99.27 147.31 127.23 149.95 154.90 151.02 C 154.31 145.04 155.98 137.14 163.00 136.01 C 172.60 135.53 182.34 135.35 191.93 136.14 C 198.63 137.60 199.84 145.22 199.35 150.99 C 224.71 150.58 250.21 147.93 274.85 141.75 C 283.72 138.90 293.91 136.57 300.07 129.03 C 303.87 120.26 301.21 110.27 302.03 100.99 C 303.01 94.66 297.47 88.48 291.04 89.00 C 215.01 88.98 138.97 89.38 62.94 89.42 C 57.11 88.96 51.78 94.09 52.03 99.94 M 52.04 132.93 C 51.98 155.95 51.95 178.97 52.05 201.98 C 93.02 202.08 133.99 202.09 174.96 201.98 C 175.02 192.66 174.94 183.35 174.84 174.03 C 169.25 173.48 162.51 175.36 158.07 170.93 C 154.00 167.09 155.25 161.09 154.97 156.09 C 128.83 154.70 102.50 152.64 77.11 145.88 C 68.10 143.21 58.31 140.44 52.04 132.93 M 269.01 148.23 C 246.10 153.24 222.65 154.91 199.28 156.17 C 199.03 161.19 200.35 167.34 196.13 171.12 C 191.84 175.29 185.38 173.50 180.03 173.99 C 179.91 183.32 180.00 192.65 180.07 201.98 C 220.70 202.09 261.33 202.08 301.96 201.98 C 301.98 179.30 301.97 156.62 301.84 133.95 C 293.14 142.71 280.58 145.43 269.01 148.23 M 167.30 140.38 C 162.68 141.53 159.56 146.27 159.99 150.97 C 160.16 156.22 158.75 162.75 163.42 166.55 C 168.95 170.90 176.55 168.31 183.01 169.02 C 188.93 169.89 195.23 165.32 194.97 159.08 C 195.25 152.51 196.23 143.17 188.38 140.58 C 181.46 139.53 174.26 139.83 167.30 140.38 M 52.04 207.04 C 51.94 224.04 52.02 241.05 52.00 258.05 C 51.58 263.65 56.54 268.71 62.13 268.53 C 99.74 268.66 137.35 269.04 174.96 268.96 C 175.03 248.32 175.03 227.68 174.96 207.04 C 133.99 206.97 93.01 206.97 52.04 207.04 M 180.02 207.05 C 179.92 227.68 179.92 248.32 180.02 268.95 C 217.37 269.04 254.73 269.01 292.08 268.97 C 297.39 269.20 302.17 264.37 301.96 259.07 C 302.03 241.73 302.03 224.38 301.96 207.04 C 261.31 206.98 220.67 206.96 180.02 207.05 Z" />
</g>
<g id="#52b3c7ff">
<path fill="#52b3c7" opacity="1.00" d=" M 139.99 87.42 C 138.33 78.60 143.22 68.07 152.94 67.16 C 169.97 66.89 187.04 66.89 204.07 67.16 C 213.77 68.07 218.67 78.59 217.01 87.40 C 214.13 87.58 211.25 87.56 208.39 87.26 C 208.73 81.72 204.96 75.81 199.00 75.74 C 185.68 75.51 172.33 75.61 159.00 75.69 C 152.78 75.59 148.89 81.65 149.09 87.38 C 146.06 87.52 143.02 87.53 139.99 87.42 Z" />
</g>
<g id="#88fcb0ff">
<path fill="#88fcb0" opacity="1.00" d=" M 52.03 99.94 C 51.78 94.09 57.11 88.96 62.94 89.42 C 138.97 89.38 215.01 88.98 291.04 89.00 C 297.47 88.48 303.01 94.66 302.03 100.99 C 301.21 110.27 303.87 120.26 300.07 129.03 C 293.91 136.57 283.72 138.90 274.85 141.75 C 250.21 147.93 224.71 150.58 199.35 150.99 C 199.84 145.22 198.63 137.60 191.93 136.14 C 182.34 135.35 172.60 135.53 163.00 136.01 C 155.98 137.14 154.31 145.04 154.90 151.02 C 127.23 149.95 99.27 147.31 72.66 139.29 C 65.32 136.56 56.30 134.14 52.38 126.74 C 51.53 117.86 52.17 108.86 52.03 99.94 Z" />
<path fill="#88fcb0" opacity="1.00" d=" M 52.04 132.93 C 58.31 140.44 68.10 143.21 77.11 145.88 C 102.50 152.64 128.83 154.70 154.97 156.09 C 155.25 161.09 154.00 167.09 158.07 170.93 C 162.51 175.36 169.25 173.48 174.84 174.03 C 174.94 183.35 175.02 192.66 174.96 201.98 C 133.99 202.09 93.02 202.08 52.05 201.98 C 51.95 178.97 51.98 155.95 52.04 132.93 Z" />
<path fill="#88fcb0" opacity="1.00" d=" M 269.01 148.23 C 280.58 145.43 293.14 142.71 301.84 133.95 C 301.97 156.62 301.98 179.30 301.96 201.98 C 261.33 202.08 220.70 202.09 180.07 201.98 C 180.00 192.65 179.91 183.32 180.03 173.99 C 185.38 173.50 191.84 175.29 196.13 171.12 C 200.35 167.34 199.03 161.19 199.28 156.17 C 222.65 154.91 246.10 153.24 269.01 148.23 Z" />
<path fill="#88fcb0" opacity="1.00" d=" M 52.04 207.04 C 93.01 206.97 133.99 206.97 174.96 207.04 C 175.03 227.68 175.03 248.32 174.96 268.96 C 137.35 269.04 99.74 268.66 62.13 268.53 C 56.54 268.71 51.58 263.65 52.00 258.05 C 52.02 241.05 51.94 224.04 52.04 207.04 Z" />
<path fill="#88fcb0" opacity="1.00" d=" M 180.02 207.05 C 220.67 206.96 261.31 206.98 301.96 207.04 C 302.03 224.38 302.03 241.73 301.96 259.07 C 302.17 264.37 297.39 269.20 292.08 268.97 C 254.73 269.01 217.37 269.04 180.02 268.95 C 179.92 248.32 179.92 227.68 180.02 207.05 Z" />
</g>
<g id="#ee5f59ff">
<path fill="#ee5f59" opacity="1.00" d=" M 167.30 140.38 C 174.26 139.83 181.46 139.53 188.38 140.58 C 196.23 143.17 195.25 152.51 194.97 159.08 C 195.23 165.32 188.93 169.89 183.01 169.02 C 176.55 168.31 168.95 170.90 163.42 166.55 C 158.75 162.75 160.16 156.22 159.99 150.97 C 159.56 146.27 162.68 141.53 167.30 140.38 Z" />
</g>
</svg>
