<?xml version="1.0" encoding="UTF-8" ?>
<!DOCTYPE svg PUBLIC "-//W3C//DTD SVG 1.1//EN" "http://www.w3.org/Graphics/SVG/1.1/DTD/svg11.dtd">
<svg width="528pt" height="573pt" viewBox="0 0 528 573" version="1.1" xmlns="http://www.w3.org/2000/svg">
<g id="#ee5f59ff">
<path fill="#ee5f59" opacity="1.00" d=" M 255.45 0.00 L 273.54 0.00 C 311.56 1.93 349.18 13.19 381.41 33.59 C 433.70 66.07 471.36 121.05 482.50 181.62 C 485.33 196.33 486.53 211.31 486.60 226.29 C 496.75 230.21 505.79 237.06 511.74 246.23 C 525.40 267.24 526.49 293.20 528.00 317.44 L 528.00 348.54 C 526.50 373.46 525.44 400.37 510.72 421.63 C 502.28 433.81 488.29 441.17 473.81 443.26 C 472.16 462.41 468.16 481.75 458.61 498.65 C 448.57 516.98 432.28 531.42 413.62 540.60 C 389.45 552.55 362.37 556.99 335.68 558.57 C 327.09 568.45 313.54 570.74 301.34 573.00 L 283.73 573.00 C 271.44 570.63 257.18 568.56 249.08 557.91 C 244.66 552.14 247.99 544.21 253.45 540.49 C 265.04 532.03 280.01 530.03 294.01 530.02 C 306.37 530.36 319.25 532.42 329.82 539.22 C 332.86 540.98 334.86 545.31 338.95 544.16 C 372.29 542.38 408.85 536.15 433.06 511.05 C 455.15 488.12 459.98 454.56 459.00 424.01 C 459.01 354.67 458.97 285.33 459.03 216.00 C 457.06 148.59 417.15 84.21 358.03 51.95 C 297.15 17.52 217.60 19.76 159.04 58.12 C 102.68 93.50 67.04 159.39 68.99 225.99 C 69.05 298.99 69.02 372.00 68.88 445.00 C 51.05 445.20 31.71 440.30 19.87 426.08 C 2.74 405.41 1.69 377.10 0.00 351.55 L 0.00 318.49 C 1.06 302.87 1.81 287.08 5.85 271.86 C 10.37 251.77 23.15 232.27 43.48 225.60 C 42.93 182.08 55.24 138.44 78.88 101.85 C 110.49 52.21 162.59 16.02 220.37 4.46 C 231.92 1.99 243.69 0.94 255.45 0.00 Z" />
<path fill="#ee5f59" opacity="1.00" d=" M 122.01 205.01 C 144.67 204.99 167.33 204.99 189.99 205.01 C 190.01 227.67 190.01 250.33 189.99 272.99 C 167.33 273.01 144.67 273.01 122.01 272.99 C 121.99 250.33 121.99 227.67 122.01 205.01 Z" />
<path fill="#ee5f59" opacity="1.00" d=" M 338.01 205.01 C 360.67 204.99 383.33 204.99 405.99 205.01 C 406.01 227.67 406.01 250.33 405.99 272.99 C 383.33 273.01 360.67 273.01 338.01 272.99 C 337.99 250.33 337.99 227.67 338.01 205.01 Z" />
<path fill="#ee5f59" opacity="1.00" d=" M 194.01 277.01 C 216.67 276.99 239.33 276.99 261.99 277.01 C 262.00 287.42 262.02 297.82 261.98 308.23 C 239.33 310.93 216.68 313.67 194.03 316.34 C 193.97 303.23 194.00 290.12 194.01 277.01 Z" />
</g>
<g id="#52b3c7ff">
<path fill="#52b3c7" opacity="1.00" d=" M 285.01 79.01 C 303.67 78.99 322.33 78.99 340.99 79.01 C 341.02 82.34 341.02 85.66 340.98 88.99 C 322.33 89.01 303.67 89.01 285.01 88.99 C 284.98 85.66 284.98 82.34 285.01 79.01 Z" />
<path fill="#52b3c7" opacity="1.00" d=" M 285.01 107.01 C 303.67 106.99 322.33 106.99 340.98 107.01 C 341.02 110.34 341.02 113.66 340.99 116.99 C 322.33 117.01 303.67 117.01 285.01 116.99 C 284.98 113.66 284.98 110.34 285.01 107.01 Z" />
<path fill="#52b3c7" opacity="1.00" d=" M 194.01 205.01 C 216.67 204.99 239.33 204.99 261.99 205.01 C 262.01 227.67 262.01 250.33 261.99 272.99 C 239.33 273.01 216.67 273.01 194.01 272.99 C 193.99 250.33 193.99 227.67 194.01 205.01 Z" />
<path fill="#52b3c7" opacity="1.00" d=" M 266.01 277.01 C 288.67 276.99 311.33 276.99 333.99 277.01 C 333.99 290.12 334.05 303.23 333.96 316.34 C 311.30 313.74 288.66 310.98 266.03 308.23 C 265.97 297.83 266.00 287.42 266.01 277.01 Z" />
</g>
<g id="#a7a7a7ff">
<path fill="#a7a7a7" opacity="1.00" d=" M 285.01 93.01 C 303.67 92.99 322.33 92.99 340.99 93.01 C 341.02 96.34 341.02 99.66 340.99 102.99 C 322.33 103.01 303.67 103.01 285.01 102.99 C 284.98 99.66 284.98 96.34 285.01 93.01 Z" />
<path fill="#a7a7a7" opacity="1.00" d=" M 128.01 121.01 C 217.34 120.99 306.66 120.99 395.99 121.01 C 396.01 128.67 396.01 136.33 395.99 143.99 C 384.33 144.03 372.67 143.97 361.01 144.01 C 360.97 163.00 361.03 182.00 360.99 200.99 C 296.33 201.01 231.67 201.01 167.01 200.99 C 166.97 182.00 167.03 163.00 166.99 144.01 C 154.00 143.97 141.00 144.03 128.01 143.99 C 127.99 136.33 127.99 128.67 128.01 121.01 M 196.01 145.01 C 195.99 153.00 195.99 161.00 196.01 168.99 C 204.00 169.01 212.00 169.01 219.99 168.99 C 220.01 161.00 220.01 153.00 219.99 145.01 C 212.00 144.99 204.00 144.99 196.01 145.01 M 224.01 145.01 C 223.99 153.00 223.99 161.00 224.01 168.99 C 232.00 169.01 240.00 169.01 247.99 168.99 C 248.01 161.00 248.01 153.00 247.99 145.01 C 240.00 144.99 232.00 144.99 224.01 145.01 M 252.01 145.01 C 251.99 153.00 251.99 161.00 252.01 168.99 C 260.00 169.01 268.00 169.01 275.99 168.99 C 276.01 161.00 276.01 153.00 275.99 145.01 C 268.00 144.99 260.00 144.99 252.01 145.01 M 280.01 145.01 C 279.99 153.00 279.99 161.00 280.01 168.99 C 288.00 169.01 296.00 169.01 303.99 168.99 C 304.01 161.00 304.01 153.00 303.99 145.01 C 296.00 144.99 288.00 144.99 280.01 145.01 M 308.01 145.01 C 307.99 153.00 307.99 161.00 308.01 168.99 C 316.00 169.01 324.00 169.01 331.99 168.99 C 332.01 161.00 332.01 153.00 331.99 145.01 C 323.99 144.99 316.00 144.99 308.01 145.01 Z" />
<path fill="#a7a7a7" opacity="1.00" d=" M 194.03 316.34 C 216.68 313.67 239.33 310.93 261.98 308.23 C 262.49 308.17 263.51 308.04 264.03 307.98 C 263.96 363.98 264.03 419.98 263.99 475.98 C 224.16 476.34 184.27 475.35 144.49 476.48 C 129.09 460.17 118.58 440.07 109.05 419.97 C 95.79 390.96 84.26 361.05 75.24 330.48 C 90.85 328.79 106.42 326.77 122.02 324.97 C 144.68 322.27 167.34 319.58 189.99 316.86 C 191.34 316.68 192.68 316.51 194.03 316.34 Z" />
</g>
<g id="#88fcb0ff">
<path fill="#88fcb0" opacity="1.00" d=" M 266.01 205.01 C 288.67 204.99 311.33 204.99 333.99 205.01 C 334.01 227.67 334.01 250.33 333.99 272.99 C 311.33 273.01 288.67 273.01 266.01 272.99 C 265.99 250.33 265.99 227.67 266.01 205.01 Z" />
<path fill="#88fcb0" opacity="1.00" d=" M 122.01 277.01 C 144.67 276.99 167.33 276.99 189.99 277.01 C 190.01 290.29 190.00 303.57 189.99 316.86 C 167.34 319.58 144.68 322.27 122.02 324.97 C 121.98 308.98 122.00 293.00 122.01 277.01 Z" />
<path fill="#88fcb0" opacity="1.00" d=" M 338.01 277.01 C 360.67 276.99 383.33 276.99 405.99 277.01 C 406.00 293.00 406.02 308.99 405.98 324.97 C 383.32 322.25 360.66 319.55 338.00 316.86 C 338.00 303.57 337.99 290.29 338.01 277.01 Z" />
<path fill="#88fcb0" opacity="1.00" d=" M 144.49 476.48 C 184.27 475.35 224.16 476.34 263.99 475.98 C 303.83 476.33 343.74 475.36 383.54 476.47 C 378.73 481.05 372.88 485.39 366.06 485.98 C 299.04 486.04 232.02 485.96 165.01 486.02 C 157.07 486.50 150.03 481.65 144.49 476.48 Z" />
</g>
<g id="#8c8d8cff">
<path fill="#8c8d8c" opacity="1.00" d=" M 264.03 307.98 C 264.53 308.04 265.53 308.17 266.03 308.23 C 288.66 310.98 311.30 313.74 333.96 316.34 C 335.31 316.49 336.65 316.67 338.00 316.86 C 360.66 319.55 383.32 322.25 405.98 324.97 C 421.57 326.77 437.14 328.77 452.74 330.49 C 443.77 361.06 432.19 390.96 418.96 419.97 C 409.43 440.07 398.91 460.15 383.54 476.47 C 343.74 475.36 303.83 476.33 263.99 475.98 C 264.03 419.98 263.96 363.98 264.03 307.98 Z" />
</g>
</svg>
